%TF.GenerationSoftware,KiCad,Pcbnew,9.0.7*%
%TF.CreationDate,2026-09-25T08:31:45+02:00*%
%TF.ProjectId,xiao led module,7869616f-206c-4656-9420-6d6f64756c65,rev?*%
%TF.SameCoordinates,Original*%
%TF.FileFunction,Drillmap*%
%TF.FilePolarity,Positive*%
%FSLAX45Y45*%
G04 Gerber Fmt 4.5, Leading zero omitted, Abs format (unit mm)*
G04 Created by KiCad (PCBNEW 9.0.7) date 2026-09-25 08:31:45*
%MOMM*%
%LPD*%
G01*
G04 APERTURE LIST*
%ADD10C,0.050000*%
%ADD11C,0.200000*%
%ADD12C,0.100000*%
G04 APERTURE END LIST*
D10*
X9950000Y-9950000D02*
X14350000Y-9950000D01*
X14350000Y-12050000D01*
X9950000Y-12050000D01*
X9950000Y-9950000D01*
D11*
D12*
X10785000Y-10585000D02*
X10815000Y-10615000D01*
X10815000Y-10585000D02*
X10785000Y-10615000D01*
X10785000Y-11435000D02*
X10815000Y-11465000D01*
X10815000Y-11435000D02*
X10785000Y-11465000D01*
X11835000Y-10485000D02*
X11865000Y-10515000D01*
X11865000Y-10485000D02*
X11835000Y-10515000D01*
X12261920Y-10431160D02*
X12291920Y-10461160D01*
X12291920Y-10431160D02*
X12261920Y-10461160D01*
X12261920Y-10781160D02*
X12291920Y-10811160D01*
X12291920Y-10781160D02*
X12261920Y-10811160D01*
X12261920Y-11133180D02*
X12291920Y-11163180D01*
X12291920Y-11133180D02*
X12261920Y-11163180D01*
X12261920Y-11485000D02*
X12291920Y-11515000D01*
X12291920Y-11485000D02*
X12261920Y-11515000D01*
X12261920Y-11835000D02*
X12291920Y-11865000D01*
X12291920Y-11835000D02*
X12261920Y-11865000D01*
X12335000Y-10085000D02*
X12365000Y-10115000D01*
X12365000Y-10085000D02*
X12335000Y-10115000D01*
X12678612Y-10441051D02*
X12708612Y-10471051D01*
X12708612Y-10441051D02*
X12678612Y-10471051D01*
X12684440Y-10783640D02*
X12714440Y-10813640D01*
X12714440Y-10783640D02*
X12684440Y-10813640D01*
X12684440Y-11138540D02*
X12714440Y-11168540D01*
X12714440Y-11138540D02*
X12684440Y-11168540D01*
X12684440Y-11483540D02*
X12714440Y-11513540D01*
X12714440Y-11483540D02*
X12684440Y-11513540D01*
X12684440Y-11857520D02*
X12714440Y-11887520D01*
X12714440Y-11857520D02*
X12684440Y-11887520D01*
X13106960Y-10438220D02*
X13136960Y-10468220D01*
X13136960Y-10438220D02*
X13106960Y-10468220D01*
X13106960Y-10783220D02*
X13136960Y-10813220D01*
X13136960Y-10783220D02*
X13106960Y-10813220D01*
X13106960Y-11136120D02*
X13136960Y-11166120D01*
X13136960Y-11136120D02*
X13106960Y-11166120D01*
X13106960Y-11486120D02*
X13136960Y-11516120D01*
X13136960Y-11486120D02*
X13106960Y-11516120D01*
X13106960Y-11836120D02*
X13136960Y-11866120D01*
X13136960Y-11836120D02*
X13106960Y-11866120D01*
X13529480Y-10435640D02*
X13559480Y-10465640D01*
X13559480Y-10435640D02*
X13529480Y-10465640D01*
X13529480Y-10798500D02*
X13559480Y-10828500D01*
X13559480Y-10798500D02*
X13529480Y-10828500D01*
X13529480Y-11113600D02*
X13559480Y-11143600D01*
X13559480Y-11113600D02*
X13529480Y-11143600D01*
X13529480Y-11463600D02*
X13559480Y-11493600D01*
X13559480Y-11463600D02*
X13529480Y-11493600D01*
X13529480Y-11852560D02*
X13559480Y-11882560D01*
X13559480Y-11852560D02*
X13529480Y-11882560D01*
X13952000Y-10441080D02*
X13982000Y-10471080D01*
X13982000Y-10441080D02*
X13952000Y-10471080D01*
X13952000Y-10791080D02*
X13982000Y-10821080D01*
X13982000Y-10791080D02*
X13952000Y-10821080D01*
X13952000Y-11123260D02*
X13982000Y-11153260D01*
X13982000Y-11123260D02*
X13952000Y-11153260D01*
X13952000Y-11478000D02*
X13982000Y-11508000D01*
X13982000Y-11478000D02*
X13952000Y-11508000D01*
X13952000Y-11841080D02*
X13982000Y-11871080D01*
X13982000Y-11841080D02*
X13952000Y-11871080D01*
X10314300Y-10238000D02*
G75*
G02*
X10225400Y-10238000I-44450J0D01*
G01*
X10225400Y-10238000D02*
G75*
G02*
X10314300Y-10238000I44450J0D01*
G01*
X10314300Y-11762000D02*
G75*
G02*
X10225400Y-11762000I-44450J0D01*
G01*
X10225400Y-11762000D02*
G75*
G02*
X10314300Y-11762000I44450J0D01*
G01*
X10568300Y-10238000D02*
G75*
G02*
X10479400Y-10238000I-44450J0D01*
G01*
X10479400Y-10238000D02*
G75*
G02*
X10568300Y-10238000I44450J0D01*
G01*
X10568300Y-11762000D02*
G75*
G02*
X10479400Y-11762000I-44450J0D01*
G01*
X10479400Y-11762000D02*
G75*
G02*
X10568300Y-11762000I44450J0D01*
G01*
X10822300Y-10238000D02*
G75*
G02*
X10733400Y-10238000I-44450J0D01*
G01*
X10733400Y-10238000D02*
G75*
G02*
X10822300Y-10238000I44450J0D01*
G01*
X10822300Y-11762000D02*
G75*
G02*
X10733400Y-11762000I-44450J0D01*
G01*
X10733400Y-11762000D02*
G75*
G02*
X10822300Y-11762000I44450J0D01*
G01*
X11076300Y-10238000D02*
G75*
G02*
X10987400Y-10238000I-44450J0D01*
G01*
X10987400Y-10238000D02*
G75*
G02*
X11076300Y-10238000I44450J0D01*
G01*
X11076300Y-11762000D02*
G75*
G02*
X10987400Y-11762000I-44450J0D01*
G01*
X10987400Y-11762000D02*
G75*
G02*
X11076300Y-11762000I44450J0D01*
G01*
X11330300Y-10238000D02*
G75*
G02*
X11241400Y-10238000I-44450J0D01*
G01*
X11241400Y-10238000D02*
G75*
G02*
X11330300Y-10238000I44450J0D01*
G01*
X11330300Y-11762000D02*
G75*
G02*
X11241400Y-11762000I-44450J0D01*
G01*
X11241400Y-11762000D02*
G75*
G02*
X11330300Y-11762000I44450J0D01*
G01*
X11584300Y-10238000D02*
G75*
G02*
X11495400Y-10238000I-44450J0D01*
G01*
X11495400Y-10238000D02*
G75*
G02*
X11584300Y-10238000I44450J0D01*
G01*
X11584300Y-11762000D02*
G75*
G02*
X11495400Y-11762000I-44450J0D01*
G01*
X11495400Y-11762000D02*
G75*
G02*
X11584300Y-11762000I44450J0D01*
G01*
X11838300Y-10238000D02*
G75*
G02*
X11749400Y-10238000I-44450J0D01*
G01*
X11749400Y-10238000D02*
G75*
G02*
X11838300Y-10238000I44450J0D01*
G01*
X11838300Y-11762000D02*
G75*
G02*
X11749400Y-11762000I-44450J0D01*
G01*
X11749400Y-11762000D02*
G75*
G02*
X11838300Y-11762000I44450J0D01*
G01*
D11*
X10208277Y-12363984D02*
X10208277Y-12163984D01*
X10208277Y-12163984D02*
X10255896Y-12163984D01*
X10255896Y-12163984D02*
X10284467Y-12173508D01*
X10284467Y-12173508D02*
X10303515Y-12192555D01*
X10303515Y-12192555D02*
X10313039Y-12211603D01*
X10313039Y-12211603D02*
X10322563Y-12249698D01*
X10322563Y-12249698D02*
X10322563Y-12278269D01*
X10322563Y-12278269D02*
X10313039Y-12316365D01*
X10313039Y-12316365D02*
X10303515Y-12335412D01*
X10303515Y-12335412D02*
X10284467Y-12354460D01*
X10284467Y-12354460D02*
X10255896Y-12363984D01*
X10255896Y-12363984D02*
X10208277Y-12363984D01*
X10408277Y-12363984D02*
X10408277Y-12230650D01*
X10408277Y-12268746D02*
X10417801Y-12249698D01*
X10417801Y-12249698D02*
X10427324Y-12240174D01*
X10427324Y-12240174D02*
X10446372Y-12230650D01*
X10446372Y-12230650D02*
X10465420Y-12230650D01*
X10532086Y-12363984D02*
X10532086Y-12230650D01*
X10532086Y-12163984D02*
X10522563Y-12173508D01*
X10522563Y-12173508D02*
X10532086Y-12183031D01*
X10532086Y-12183031D02*
X10541610Y-12173508D01*
X10541610Y-12173508D02*
X10532086Y-12163984D01*
X10532086Y-12163984D02*
X10532086Y-12183031D01*
X10655896Y-12363984D02*
X10636848Y-12354460D01*
X10636848Y-12354460D02*
X10627324Y-12335412D01*
X10627324Y-12335412D02*
X10627324Y-12163984D01*
X10760658Y-12363984D02*
X10741610Y-12354460D01*
X10741610Y-12354460D02*
X10732086Y-12335412D01*
X10732086Y-12335412D02*
X10732086Y-12163984D01*
X10989229Y-12363984D02*
X10989229Y-12163984D01*
X10989229Y-12163984D02*
X11055896Y-12306841D01*
X11055896Y-12306841D02*
X11122563Y-12163984D01*
X11122563Y-12163984D02*
X11122563Y-12363984D01*
X11303515Y-12363984D02*
X11303515Y-12259222D01*
X11303515Y-12259222D02*
X11293991Y-12240174D01*
X11293991Y-12240174D02*
X11274943Y-12230650D01*
X11274943Y-12230650D02*
X11236848Y-12230650D01*
X11236848Y-12230650D02*
X11217801Y-12240174D01*
X11303515Y-12354460D02*
X11284467Y-12363984D01*
X11284467Y-12363984D02*
X11236848Y-12363984D01*
X11236848Y-12363984D02*
X11217801Y-12354460D01*
X11217801Y-12354460D02*
X11208277Y-12335412D01*
X11208277Y-12335412D02*
X11208277Y-12316365D01*
X11208277Y-12316365D02*
X11217801Y-12297317D01*
X11217801Y-12297317D02*
X11236848Y-12287793D01*
X11236848Y-12287793D02*
X11284467Y-12287793D01*
X11284467Y-12287793D02*
X11303515Y-12278269D01*
X11398753Y-12230650D02*
X11398753Y-12430650D01*
X11398753Y-12240174D02*
X11417801Y-12230650D01*
X11417801Y-12230650D02*
X11455896Y-12230650D01*
X11455896Y-12230650D02*
X11474943Y-12240174D01*
X11474943Y-12240174D02*
X11484467Y-12249698D01*
X11484467Y-12249698D02*
X11493991Y-12268746D01*
X11493991Y-12268746D02*
X11493991Y-12325888D01*
X11493991Y-12325888D02*
X11484467Y-12344936D01*
X11484467Y-12344936D02*
X11474943Y-12354460D01*
X11474943Y-12354460D02*
X11455896Y-12363984D01*
X11455896Y-12363984D02*
X11417801Y-12363984D01*
X11417801Y-12363984D02*
X11398753Y-12354460D01*
X11579705Y-12344936D02*
X11589229Y-12354460D01*
X11589229Y-12354460D02*
X11579705Y-12363984D01*
X11579705Y-12363984D02*
X11570182Y-12354460D01*
X11570182Y-12354460D02*
X11579705Y-12344936D01*
X11579705Y-12344936D02*
X11579705Y-12363984D01*
X11579705Y-12240174D02*
X11589229Y-12249698D01*
X11589229Y-12249698D02*
X11579705Y-12259222D01*
X11579705Y-12259222D02*
X11570182Y-12249698D01*
X11570182Y-12249698D02*
X11579705Y-12240174D01*
X11579705Y-12240174D02*
X11579705Y-12259222D01*
D12*
X9917500Y-12677500D02*
X9947500Y-12707500D01*
X9947500Y-12677500D02*
X9917500Y-12707500D01*
D11*
X10246372Y-12583984D02*
X10265420Y-12583984D01*
X10265420Y-12583984D02*
X10284467Y-12593508D01*
X10284467Y-12593508D02*
X10293991Y-12603031D01*
X10293991Y-12603031D02*
X10303515Y-12622079D01*
X10303515Y-12622079D02*
X10313039Y-12660174D01*
X10313039Y-12660174D02*
X10313039Y-12707793D01*
X10313039Y-12707793D02*
X10303515Y-12745888D01*
X10303515Y-12745888D02*
X10293991Y-12764936D01*
X10293991Y-12764936D02*
X10284467Y-12774460D01*
X10284467Y-12774460D02*
X10265420Y-12783984D01*
X10265420Y-12783984D02*
X10246372Y-12783984D01*
X10246372Y-12783984D02*
X10227324Y-12774460D01*
X10227324Y-12774460D02*
X10217801Y-12764936D01*
X10217801Y-12764936D02*
X10208277Y-12745888D01*
X10208277Y-12745888D02*
X10198753Y-12707793D01*
X10198753Y-12707793D02*
X10198753Y-12660174D01*
X10198753Y-12660174D02*
X10208277Y-12622079D01*
X10208277Y-12622079D02*
X10217801Y-12603031D01*
X10217801Y-12603031D02*
X10227324Y-12593508D01*
X10227324Y-12593508D02*
X10246372Y-12583984D01*
X10398753Y-12764936D02*
X10408277Y-12774460D01*
X10408277Y-12774460D02*
X10398753Y-12783984D01*
X10398753Y-12783984D02*
X10389229Y-12774460D01*
X10389229Y-12774460D02*
X10398753Y-12764936D01*
X10398753Y-12764936D02*
X10398753Y-12783984D01*
X10474944Y-12583984D02*
X10598753Y-12583984D01*
X10598753Y-12583984D02*
X10532086Y-12660174D01*
X10532086Y-12660174D02*
X10560658Y-12660174D01*
X10560658Y-12660174D02*
X10579705Y-12669698D01*
X10579705Y-12669698D02*
X10589229Y-12679222D01*
X10589229Y-12679222D02*
X10598753Y-12698269D01*
X10598753Y-12698269D02*
X10598753Y-12745888D01*
X10598753Y-12745888D02*
X10589229Y-12764936D01*
X10589229Y-12764936D02*
X10579705Y-12774460D01*
X10579705Y-12774460D02*
X10560658Y-12783984D01*
X10560658Y-12783984D02*
X10503515Y-12783984D01*
X10503515Y-12783984D02*
X10484467Y-12774460D01*
X10484467Y-12774460D02*
X10474944Y-12764936D01*
X10722563Y-12583984D02*
X10741610Y-12583984D01*
X10741610Y-12583984D02*
X10760658Y-12593508D01*
X10760658Y-12593508D02*
X10770182Y-12603031D01*
X10770182Y-12603031D02*
X10779705Y-12622079D01*
X10779705Y-12622079D02*
X10789229Y-12660174D01*
X10789229Y-12660174D02*
X10789229Y-12707793D01*
X10789229Y-12707793D02*
X10779705Y-12745888D01*
X10779705Y-12745888D02*
X10770182Y-12764936D01*
X10770182Y-12764936D02*
X10760658Y-12774460D01*
X10760658Y-12774460D02*
X10741610Y-12783984D01*
X10741610Y-12783984D02*
X10722563Y-12783984D01*
X10722563Y-12783984D02*
X10703515Y-12774460D01*
X10703515Y-12774460D02*
X10693991Y-12764936D01*
X10693991Y-12764936D02*
X10684467Y-12745888D01*
X10684467Y-12745888D02*
X10674944Y-12707793D01*
X10674944Y-12707793D02*
X10674944Y-12660174D01*
X10674944Y-12660174D02*
X10684467Y-12622079D01*
X10684467Y-12622079D02*
X10693991Y-12603031D01*
X10693991Y-12603031D02*
X10703515Y-12593508D01*
X10703515Y-12593508D02*
X10722563Y-12583984D01*
X10913039Y-12583984D02*
X10932086Y-12583984D01*
X10932086Y-12583984D02*
X10951134Y-12593508D01*
X10951134Y-12593508D02*
X10960658Y-12603031D01*
X10960658Y-12603031D02*
X10970182Y-12622079D01*
X10970182Y-12622079D02*
X10979705Y-12660174D01*
X10979705Y-12660174D02*
X10979705Y-12707793D01*
X10979705Y-12707793D02*
X10970182Y-12745888D01*
X10970182Y-12745888D02*
X10960658Y-12764936D01*
X10960658Y-12764936D02*
X10951134Y-12774460D01*
X10951134Y-12774460D02*
X10932086Y-12783984D01*
X10932086Y-12783984D02*
X10913039Y-12783984D01*
X10913039Y-12783984D02*
X10893991Y-12774460D01*
X10893991Y-12774460D02*
X10884467Y-12764936D01*
X10884467Y-12764936D02*
X10874944Y-12745888D01*
X10874944Y-12745888D02*
X10865420Y-12707793D01*
X10865420Y-12707793D02*
X10865420Y-12660174D01*
X10865420Y-12660174D02*
X10874944Y-12622079D01*
X10874944Y-12622079D02*
X10884467Y-12603031D01*
X10884467Y-12603031D02*
X10893991Y-12593508D01*
X10893991Y-12593508D02*
X10913039Y-12583984D01*
X11065420Y-12783984D02*
X11065420Y-12650650D01*
X11065420Y-12669698D02*
X11074944Y-12660174D01*
X11074944Y-12660174D02*
X11093991Y-12650650D01*
X11093991Y-12650650D02*
X11122563Y-12650650D01*
X11122563Y-12650650D02*
X11141610Y-12660174D01*
X11141610Y-12660174D02*
X11151134Y-12679222D01*
X11151134Y-12679222D02*
X11151134Y-12783984D01*
X11151134Y-12679222D02*
X11160658Y-12660174D01*
X11160658Y-12660174D02*
X11179705Y-12650650D01*
X11179705Y-12650650D02*
X11208277Y-12650650D01*
X11208277Y-12650650D02*
X11227324Y-12660174D01*
X11227324Y-12660174D02*
X11236848Y-12679222D01*
X11236848Y-12679222D02*
X11236848Y-12783984D01*
X11332086Y-12783984D02*
X11332086Y-12650650D01*
X11332086Y-12669698D02*
X11341610Y-12660174D01*
X11341610Y-12660174D02*
X11360658Y-12650650D01*
X11360658Y-12650650D02*
X11389229Y-12650650D01*
X11389229Y-12650650D02*
X11408277Y-12660174D01*
X11408277Y-12660174D02*
X11417801Y-12679222D01*
X11417801Y-12679222D02*
X11417801Y-12783984D01*
X11417801Y-12679222D02*
X11427324Y-12660174D01*
X11427324Y-12660174D02*
X11446372Y-12650650D01*
X11446372Y-12650650D02*
X11474943Y-12650650D01*
X11474943Y-12650650D02*
X11493991Y-12660174D01*
X11493991Y-12660174D02*
X11503515Y-12679222D01*
X11503515Y-12679222D02*
X11503515Y-12783984D01*
X11893991Y-12574460D02*
X11722563Y-12831603D01*
X12151134Y-12583984D02*
X12170182Y-12583984D01*
X12170182Y-12583984D02*
X12189229Y-12593508D01*
X12189229Y-12593508D02*
X12198753Y-12603031D01*
X12198753Y-12603031D02*
X12208277Y-12622079D01*
X12208277Y-12622079D02*
X12217801Y-12660174D01*
X12217801Y-12660174D02*
X12217801Y-12707793D01*
X12217801Y-12707793D02*
X12208277Y-12745888D01*
X12208277Y-12745888D02*
X12198753Y-12764936D01*
X12198753Y-12764936D02*
X12189229Y-12774460D01*
X12189229Y-12774460D02*
X12170182Y-12783984D01*
X12170182Y-12783984D02*
X12151134Y-12783984D01*
X12151134Y-12783984D02*
X12132086Y-12774460D01*
X12132086Y-12774460D02*
X12122563Y-12764936D01*
X12122563Y-12764936D02*
X12113039Y-12745888D01*
X12113039Y-12745888D02*
X12103515Y-12707793D01*
X12103515Y-12707793D02*
X12103515Y-12660174D01*
X12103515Y-12660174D02*
X12113039Y-12622079D01*
X12113039Y-12622079D02*
X12122563Y-12603031D01*
X12122563Y-12603031D02*
X12132086Y-12593508D01*
X12132086Y-12593508D02*
X12151134Y-12583984D01*
X12303515Y-12764936D02*
X12313039Y-12774460D01*
X12313039Y-12774460D02*
X12303515Y-12783984D01*
X12303515Y-12783984D02*
X12293991Y-12774460D01*
X12293991Y-12774460D02*
X12303515Y-12764936D01*
X12303515Y-12764936D02*
X12303515Y-12783984D01*
X12436848Y-12583984D02*
X12455896Y-12583984D01*
X12455896Y-12583984D02*
X12474944Y-12593508D01*
X12474944Y-12593508D02*
X12484467Y-12603031D01*
X12484467Y-12603031D02*
X12493991Y-12622079D01*
X12493991Y-12622079D02*
X12503515Y-12660174D01*
X12503515Y-12660174D02*
X12503515Y-12707793D01*
X12503515Y-12707793D02*
X12493991Y-12745888D01*
X12493991Y-12745888D02*
X12484467Y-12764936D01*
X12484467Y-12764936D02*
X12474944Y-12774460D01*
X12474944Y-12774460D02*
X12455896Y-12783984D01*
X12455896Y-12783984D02*
X12436848Y-12783984D01*
X12436848Y-12783984D02*
X12417801Y-12774460D01*
X12417801Y-12774460D02*
X12408277Y-12764936D01*
X12408277Y-12764936D02*
X12398753Y-12745888D01*
X12398753Y-12745888D02*
X12389229Y-12707793D01*
X12389229Y-12707793D02*
X12389229Y-12660174D01*
X12389229Y-12660174D02*
X12398753Y-12622079D01*
X12398753Y-12622079D02*
X12408277Y-12603031D01*
X12408277Y-12603031D02*
X12417801Y-12593508D01*
X12417801Y-12593508D02*
X12436848Y-12583984D01*
X12693991Y-12783984D02*
X12579706Y-12783984D01*
X12636848Y-12783984D02*
X12636848Y-12583984D01*
X12636848Y-12583984D02*
X12617801Y-12612555D01*
X12617801Y-12612555D02*
X12598753Y-12631603D01*
X12598753Y-12631603D02*
X12579706Y-12641127D01*
X12884467Y-12783984D02*
X12770182Y-12783984D01*
X12827325Y-12783984D02*
X12827325Y-12583984D01*
X12827325Y-12583984D02*
X12808277Y-12612555D01*
X12808277Y-12612555D02*
X12789229Y-12631603D01*
X12789229Y-12631603D02*
X12770182Y-12641127D01*
X12998753Y-12669698D02*
X12979706Y-12660174D01*
X12979706Y-12660174D02*
X12970182Y-12650650D01*
X12970182Y-12650650D02*
X12960658Y-12631603D01*
X12960658Y-12631603D02*
X12960658Y-12622079D01*
X12960658Y-12622079D02*
X12970182Y-12603031D01*
X12970182Y-12603031D02*
X12979706Y-12593508D01*
X12979706Y-12593508D02*
X12998753Y-12583984D01*
X12998753Y-12583984D02*
X13036848Y-12583984D01*
X13036848Y-12583984D02*
X13055896Y-12593508D01*
X13055896Y-12593508D02*
X13065420Y-12603031D01*
X13065420Y-12603031D02*
X13074944Y-12622079D01*
X13074944Y-12622079D02*
X13074944Y-12631603D01*
X13074944Y-12631603D02*
X13065420Y-12650650D01*
X13065420Y-12650650D02*
X13055896Y-12660174D01*
X13055896Y-12660174D02*
X13036848Y-12669698D01*
X13036848Y-12669698D02*
X12998753Y-12669698D01*
X12998753Y-12669698D02*
X12979706Y-12679222D01*
X12979706Y-12679222D02*
X12970182Y-12688746D01*
X12970182Y-12688746D02*
X12960658Y-12707793D01*
X12960658Y-12707793D02*
X12960658Y-12745888D01*
X12960658Y-12745888D02*
X12970182Y-12764936D01*
X12970182Y-12764936D02*
X12979706Y-12774460D01*
X12979706Y-12774460D02*
X12998753Y-12783984D01*
X12998753Y-12783984D02*
X13036848Y-12783984D01*
X13036848Y-12783984D02*
X13055896Y-12774460D01*
X13055896Y-12774460D02*
X13065420Y-12764936D01*
X13065420Y-12764936D02*
X13074944Y-12745888D01*
X13074944Y-12745888D02*
X13074944Y-12707793D01*
X13074944Y-12707793D02*
X13065420Y-12688746D01*
X13065420Y-12688746D02*
X13055896Y-12679222D01*
X13055896Y-12679222D02*
X13036848Y-12669698D01*
X13151134Y-12583984D02*
X13151134Y-12622079D01*
X13227325Y-12583984D02*
X13227325Y-12622079D01*
X13522563Y-12860174D02*
X13513039Y-12850650D01*
X13513039Y-12850650D02*
X13493991Y-12822079D01*
X13493991Y-12822079D02*
X13484468Y-12803031D01*
X13484468Y-12803031D02*
X13474944Y-12774460D01*
X13474944Y-12774460D02*
X13465420Y-12726841D01*
X13465420Y-12726841D02*
X13465420Y-12688746D01*
X13465420Y-12688746D02*
X13474944Y-12641127D01*
X13474944Y-12641127D02*
X13484468Y-12612555D01*
X13484468Y-12612555D02*
X13493991Y-12593508D01*
X13493991Y-12593508D02*
X13513039Y-12564936D01*
X13513039Y-12564936D02*
X13522563Y-12555412D01*
X13589229Y-12603031D02*
X13598753Y-12593508D01*
X13598753Y-12593508D02*
X13617801Y-12583984D01*
X13617801Y-12583984D02*
X13665420Y-12583984D01*
X13665420Y-12583984D02*
X13684468Y-12593508D01*
X13684468Y-12593508D02*
X13693991Y-12603031D01*
X13693991Y-12603031D02*
X13703515Y-12622079D01*
X13703515Y-12622079D02*
X13703515Y-12641127D01*
X13703515Y-12641127D02*
X13693991Y-12669698D01*
X13693991Y-12669698D02*
X13579706Y-12783984D01*
X13579706Y-12783984D02*
X13703515Y-12783984D01*
X13798753Y-12783984D02*
X13836848Y-12783984D01*
X13836848Y-12783984D02*
X13855896Y-12774460D01*
X13855896Y-12774460D02*
X13865420Y-12764936D01*
X13865420Y-12764936D02*
X13884468Y-12736365D01*
X13884468Y-12736365D02*
X13893991Y-12698269D01*
X13893991Y-12698269D02*
X13893991Y-12622079D01*
X13893991Y-12622079D02*
X13884468Y-12603031D01*
X13884468Y-12603031D02*
X13874944Y-12593508D01*
X13874944Y-12593508D02*
X13855896Y-12583984D01*
X13855896Y-12583984D02*
X13817801Y-12583984D01*
X13817801Y-12583984D02*
X13798753Y-12593508D01*
X13798753Y-12593508D02*
X13789229Y-12603031D01*
X13789229Y-12603031D02*
X13779706Y-12622079D01*
X13779706Y-12622079D02*
X13779706Y-12669698D01*
X13779706Y-12669698D02*
X13789229Y-12688746D01*
X13789229Y-12688746D02*
X13798753Y-12698269D01*
X13798753Y-12698269D02*
X13817801Y-12707793D01*
X13817801Y-12707793D02*
X13855896Y-12707793D01*
X13855896Y-12707793D02*
X13874944Y-12698269D01*
X13874944Y-12698269D02*
X13884468Y-12688746D01*
X13884468Y-12688746D02*
X13893991Y-12669698D01*
X14132087Y-12783984D02*
X14132087Y-12583984D01*
X14217801Y-12783984D02*
X14217801Y-12679222D01*
X14217801Y-12679222D02*
X14208277Y-12660174D01*
X14208277Y-12660174D02*
X14189230Y-12650650D01*
X14189230Y-12650650D02*
X14160658Y-12650650D01*
X14160658Y-12650650D02*
X14141610Y-12660174D01*
X14141610Y-12660174D02*
X14132087Y-12669698D01*
X14341610Y-12783984D02*
X14322563Y-12774460D01*
X14322563Y-12774460D02*
X14313039Y-12764936D01*
X14313039Y-12764936D02*
X14303515Y-12745888D01*
X14303515Y-12745888D02*
X14303515Y-12688746D01*
X14303515Y-12688746D02*
X14313039Y-12669698D01*
X14313039Y-12669698D02*
X14322563Y-12660174D01*
X14322563Y-12660174D02*
X14341610Y-12650650D01*
X14341610Y-12650650D02*
X14370182Y-12650650D01*
X14370182Y-12650650D02*
X14389230Y-12660174D01*
X14389230Y-12660174D02*
X14398753Y-12669698D01*
X14398753Y-12669698D02*
X14408277Y-12688746D01*
X14408277Y-12688746D02*
X14408277Y-12745888D01*
X14408277Y-12745888D02*
X14398753Y-12764936D01*
X14398753Y-12764936D02*
X14389230Y-12774460D01*
X14389230Y-12774460D02*
X14370182Y-12783984D01*
X14370182Y-12783984D02*
X14341610Y-12783984D01*
X14522563Y-12783984D02*
X14503515Y-12774460D01*
X14503515Y-12774460D02*
X14493991Y-12755412D01*
X14493991Y-12755412D02*
X14493991Y-12583984D01*
X14674944Y-12774460D02*
X14655896Y-12783984D01*
X14655896Y-12783984D02*
X14617801Y-12783984D01*
X14617801Y-12783984D02*
X14598753Y-12774460D01*
X14598753Y-12774460D02*
X14589230Y-12755412D01*
X14589230Y-12755412D02*
X14589230Y-12679222D01*
X14589230Y-12679222D02*
X14598753Y-12660174D01*
X14598753Y-12660174D02*
X14617801Y-12650650D01*
X14617801Y-12650650D02*
X14655896Y-12650650D01*
X14655896Y-12650650D02*
X14674944Y-12660174D01*
X14674944Y-12660174D02*
X14684468Y-12679222D01*
X14684468Y-12679222D02*
X14684468Y-12698269D01*
X14684468Y-12698269D02*
X14589230Y-12717317D01*
X14760658Y-12774460D02*
X14779706Y-12783984D01*
X14779706Y-12783984D02*
X14817801Y-12783984D01*
X14817801Y-12783984D02*
X14836849Y-12774460D01*
X14836849Y-12774460D02*
X14846372Y-12755412D01*
X14846372Y-12755412D02*
X14846372Y-12745888D01*
X14846372Y-12745888D02*
X14836849Y-12726841D01*
X14836849Y-12726841D02*
X14817801Y-12717317D01*
X14817801Y-12717317D02*
X14789230Y-12717317D01*
X14789230Y-12717317D02*
X14770182Y-12707793D01*
X14770182Y-12707793D02*
X14760658Y-12688746D01*
X14760658Y-12688746D02*
X14760658Y-12679222D01*
X14760658Y-12679222D02*
X14770182Y-12660174D01*
X14770182Y-12660174D02*
X14789230Y-12650650D01*
X14789230Y-12650650D02*
X14817801Y-12650650D01*
X14817801Y-12650650D02*
X14836849Y-12660174D01*
X14913039Y-12860174D02*
X14922563Y-12850650D01*
X14922563Y-12850650D02*
X14941611Y-12822079D01*
X14941611Y-12822079D02*
X14951134Y-12803031D01*
X14951134Y-12803031D02*
X14960658Y-12774460D01*
X14960658Y-12774460D02*
X14970182Y-12726841D01*
X14970182Y-12726841D02*
X14970182Y-12688746D01*
X14970182Y-12688746D02*
X14960658Y-12641127D01*
X14960658Y-12641127D02*
X14951134Y-12612555D01*
X14951134Y-12612555D02*
X14941611Y-12593508D01*
X14941611Y-12593508D02*
X14922563Y-12564936D01*
X14922563Y-12564936D02*
X14913039Y-12555412D01*
D12*
X9947500Y-12956500D02*
G75*
G02*
X9858600Y-12956500I-44450J0D01*
G01*
X9858600Y-12956500D02*
G75*
G02*
X9947500Y-12956500I44450J0D01*
G01*
D11*
X10246372Y-12847984D02*
X10265420Y-12847984D01*
X10265420Y-12847984D02*
X10284467Y-12857508D01*
X10284467Y-12857508D02*
X10293991Y-12867031D01*
X10293991Y-12867031D02*
X10303515Y-12886079D01*
X10303515Y-12886079D02*
X10313039Y-12924174D01*
X10313039Y-12924174D02*
X10313039Y-12971793D01*
X10313039Y-12971793D02*
X10303515Y-13009888D01*
X10303515Y-13009888D02*
X10293991Y-13028936D01*
X10293991Y-13028936D02*
X10284467Y-13038460D01*
X10284467Y-13038460D02*
X10265420Y-13047984D01*
X10265420Y-13047984D02*
X10246372Y-13047984D01*
X10246372Y-13047984D02*
X10227324Y-13038460D01*
X10227324Y-13038460D02*
X10217801Y-13028936D01*
X10217801Y-13028936D02*
X10208277Y-13009888D01*
X10208277Y-13009888D02*
X10198753Y-12971793D01*
X10198753Y-12971793D02*
X10198753Y-12924174D01*
X10198753Y-12924174D02*
X10208277Y-12886079D01*
X10208277Y-12886079D02*
X10217801Y-12867031D01*
X10217801Y-12867031D02*
X10227324Y-12857508D01*
X10227324Y-12857508D02*
X10246372Y-12847984D01*
X10398753Y-13028936D02*
X10408277Y-13038460D01*
X10408277Y-13038460D02*
X10398753Y-13047984D01*
X10398753Y-13047984D02*
X10389229Y-13038460D01*
X10389229Y-13038460D02*
X10398753Y-13028936D01*
X10398753Y-13028936D02*
X10398753Y-13047984D01*
X10522563Y-12933698D02*
X10503515Y-12924174D01*
X10503515Y-12924174D02*
X10493991Y-12914650D01*
X10493991Y-12914650D02*
X10484467Y-12895603D01*
X10484467Y-12895603D02*
X10484467Y-12886079D01*
X10484467Y-12886079D02*
X10493991Y-12867031D01*
X10493991Y-12867031D02*
X10503515Y-12857508D01*
X10503515Y-12857508D02*
X10522563Y-12847984D01*
X10522563Y-12847984D02*
X10560658Y-12847984D01*
X10560658Y-12847984D02*
X10579705Y-12857508D01*
X10579705Y-12857508D02*
X10589229Y-12867031D01*
X10589229Y-12867031D02*
X10598753Y-12886079D01*
X10598753Y-12886079D02*
X10598753Y-12895603D01*
X10598753Y-12895603D02*
X10589229Y-12914650D01*
X10589229Y-12914650D02*
X10579705Y-12924174D01*
X10579705Y-12924174D02*
X10560658Y-12933698D01*
X10560658Y-12933698D02*
X10522563Y-12933698D01*
X10522563Y-12933698D02*
X10503515Y-12943222D01*
X10503515Y-12943222D02*
X10493991Y-12952746D01*
X10493991Y-12952746D02*
X10484467Y-12971793D01*
X10484467Y-12971793D02*
X10484467Y-13009888D01*
X10484467Y-13009888D02*
X10493991Y-13028936D01*
X10493991Y-13028936D02*
X10503515Y-13038460D01*
X10503515Y-13038460D02*
X10522563Y-13047984D01*
X10522563Y-13047984D02*
X10560658Y-13047984D01*
X10560658Y-13047984D02*
X10579705Y-13038460D01*
X10579705Y-13038460D02*
X10589229Y-13028936D01*
X10589229Y-13028936D02*
X10598753Y-13009888D01*
X10598753Y-13009888D02*
X10598753Y-12971793D01*
X10598753Y-12971793D02*
X10589229Y-12952746D01*
X10589229Y-12952746D02*
X10579705Y-12943222D01*
X10579705Y-12943222D02*
X10560658Y-12933698D01*
X10713039Y-12933698D02*
X10693991Y-12924174D01*
X10693991Y-12924174D02*
X10684467Y-12914650D01*
X10684467Y-12914650D02*
X10674944Y-12895603D01*
X10674944Y-12895603D02*
X10674944Y-12886079D01*
X10674944Y-12886079D02*
X10684467Y-12867031D01*
X10684467Y-12867031D02*
X10693991Y-12857508D01*
X10693991Y-12857508D02*
X10713039Y-12847984D01*
X10713039Y-12847984D02*
X10751134Y-12847984D01*
X10751134Y-12847984D02*
X10770182Y-12857508D01*
X10770182Y-12857508D02*
X10779705Y-12867031D01*
X10779705Y-12867031D02*
X10789229Y-12886079D01*
X10789229Y-12886079D02*
X10789229Y-12895603D01*
X10789229Y-12895603D02*
X10779705Y-12914650D01*
X10779705Y-12914650D02*
X10770182Y-12924174D01*
X10770182Y-12924174D02*
X10751134Y-12933698D01*
X10751134Y-12933698D02*
X10713039Y-12933698D01*
X10713039Y-12933698D02*
X10693991Y-12943222D01*
X10693991Y-12943222D02*
X10684467Y-12952746D01*
X10684467Y-12952746D02*
X10674944Y-12971793D01*
X10674944Y-12971793D02*
X10674944Y-13009888D01*
X10674944Y-13009888D02*
X10684467Y-13028936D01*
X10684467Y-13028936D02*
X10693991Y-13038460D01*
X10693991Y-13038460D02*
X10713039Y-13047984D01*
X10713039Y-13047984D02*
X10751134Y-13047984D01*
X10751134Y-13047984D02*
X10770182Y-13038460D01*
X10770182Y-13038460D02*
X10779705Y-13028936D01*
X10779705Y-13028936D02*
X10789229Y-13009888D01*
X10789229Y-13009888D02*
X10789229Y-12971793D01*
X10789229Y-12971793D02*
X10779705Y-12952746D01*
X10779705Y-12952746D02*
X10770182Y-12943222D01*
X10770182Y-12943222D02*
X10751134Y-12933698D01*
X10884467Y-13047984D02*
X10922563Y-13047984D01*
X10922563Y-13047984D02*
X10941610Y-13038460D01*
X10941610Y-13038460D02*
X10951134Y-13028936D01*
X10951134Y-13028936D02*
X10970182Y-13000365D01*
X10970182Y-13000365D02*
X10979705Y-12962269D01*
X10979705Y-12962269D02*
X10979705Y-12886079D01*
X10979705Y-12886079D02*
X10970182Y-12867031D01*
X10970182Y-12867031D02*
X10960658Y-12857508D01*
X10960658Y-12857508D02*
X10941610Y-12847984D01*
X10941610Y-12847984D02*
X10903515Y-12847984D01*
X10903515Y-12847984D02*
X10884467Y-12857508D01*
X10884467Y-12857508D02*
X10874944Y-12867031D01*
X10874944Y-12867031D02*
X10865420Y-12886079D01*
X10865420Y-12886079D02*
X10865420Y-12933698D01*
X10865420Y-12933698D02*
X10874944Y-12952746D01*
X10874944Y-12952746D02*
X10884467Y-12962269D01*
X10884467Y-12962269D02*
X10903515Y-12971793D01*
X10903515Y-12971793D02*
X10941610Y-12971793D01*
X10941610Y-12971793D02*
X10960658Y-12962269D01*
X10960658Y-12962269D02*
X10970182Y-12952746D01*
X10970182Y-12952746D02*
X10979705Y-12933698D01*
X11065420Y-13047984D02*
X11065420Y-12914650D01*
X11065420Y-12933698D02*
X11074944Y-12924174D01*
X11074944Y-12924174D02*
X11093991Y-12914650D01*
X11093991Y-12914650D02*
X11122563Y-12914650D01*
X11122563Y-12914650D02*
X11141610Y-12924174D01*
X11141610Y-12924174D02*
X11151134Y-12943222D01*
X11151134Y-12943222D02*
X11151134Y-13047984D01*
X11151134Y-12943222D02*
X11160658Y-12924174D01*
X11160658Y-12924174D02*
X11179705Y-12914650D01*
X11179705Y-12914650D02*
X11208277Y-12914650D01*
X11208277Y-12914650D02*
X11227324Y-12924174D01*
X11227324Y-12924174D02*
X11236848Y-12943222D01*
X11236848Y-12943222D02*
X11236848Y-13047984D01*
X11332086Y-13047984D02*
X11332086Y-12914650D01*
X11332086Y-12933698D02*
X11341610Y-12924174D01*
X11341610Y-12924174D02*
X11360658Y-12914650D01*
X11360658Y-12914650D02*
X11389229Y-12914650D01*
X11389229Y-12914650D02*
X11408277Y-12924174D01*
X11408277Y-12924174D02*
X11417801Y-12943222D01*
X11417801Y-12943222D02*
X11417801Y-13047984D01*
X11417801Y-12943222D02*
X11427324Y-12924174D01*
X11427324Y-12924174D02*
X11446372Y-12914650D01*
X11446372Y-12914650D02*
X11474943Y-12914650D01*
X11474943Y-12914650D02*
X11493991Y-12924174D01*
X11493991Y-12924174D02*
X11503515Y-12943222D01*
X11503515Y-12943222D02*
X11503515Y-13047984D01*
X11893991Y-12838460D02*
X11722563Y-13095603D01*
X12151134Y-12847984D02*
X12170182Y-12847984D01*
X12170182Y-12847984D02*
X12189229Y-12857508D01*
X12189229Y-12857508D02*
X12198753Y-12867031D01*
X12198753Y-12867031D02*
X12208277Y-12886079D01*
X12208277Y-12886079D02*
X12217801Y-12924174D01*
X12217801Y-12924174D02*
X12217801Y-12971793D01*
X12217801Y-12971793D02*
X12208277Y-13009888D01*
X12208277Y-13009888D02*
X12198753Y-13028936D01*
X12198753Y-13028936D02*
X12189229Y-13038460D01*
X12189229Y-13038460D02*
X12170182Y-13047984D01*
X12170182Y-13047984D02*
X12151134Y-13047984D01*
X12151134Y-13047984D02*
X12132086Y-13038460D01*
X12132086Y-13038460D02*
X12122563Y-13028936D01*
X12122563Y-13028936D02*
X12113039Y-13009888D01*
X12113039Y-13009888D02*
X12103515Y-12971793D01*
X12103515Y-12971793D02*
X12103515Y-12924174D01*
X12103515Y-12924174D02*
X12113039Y-12886079D01*
X12113039Y-12886079D02*
X12122563Y-12867031D01*
X12122563Y-12867031D02*
X12132086Y-12857508D01*
X12132086Y-12857508D02*
X12151134Y-12847984D01*
X12303515Y-13028936D02*
X12313039Y-13038460D01*
X12313039Y-13038460D02*
X12303515Y-13047984D01*
X12303515Y-13047984D02*
X12293991Y-13038460D01*
X12293991Y-13038460D02*
X12303515Y-13028936D01*
X12303515Y-13028936D02*
X12303515Y-13047984D01*
X12436848Y-12847984D02*
X12455896Y-12847984D01*
X12455896Y-12847984D02*
X12474944Y-12857508D01*
X12474944Y-12857508D02*
X12484467Y-12867031D01*
X12484467Y-12867031D02*
X12493991Y-12886079D01*
X12493991Y-12886079D02*
X12503515Y-12924174D01*
X12503515Y-12924174D02*
X12503515Y-12971793D01*
X12503515Y-12971793D02*
X12493991Y-13009888D01*
X12493991Y-13009888D02*
X12484467Y-13028936D01*
X12484467Y-13028936D02*
X12474944Y-13038460D01*
X12474944Y-13038460D02*
X12455896Y-13047984D01*
X12455896Y-13047984D02*
X12436848Y-13047984D01*
X12436848Y-13047984D02*
X12417801Y-13038460D01*
X12417801Y-13038460D02*
X12408277Y-13028936D01*
X12408277Y-13028936D02*
X12398753Y-13009888D01*
X12398753Y-13009888D02*
X12389229Y-12971793D01*
X12389229Y-12971793D02*
X12389229Y-12924174D01*
X12389229Y-12924174D02*
X12398753Y-12886079D01*
X12398753Y-12886079D02*
X12408277Y-12867031D01*
X12408277Y-12867031D02*
X12417801Y-12857508D01*
X12417801Y-12857508D02*
X12436848Y-12847984D01*
X12570182Y-12847984D02*
X12693991Y-12847984D01*
X12693991Y-12847984D02*
X12627325Y-12924174D01*
X12627325Y-12924174D02*
X12655896Y-12924174D01*
X12655896Y-12924174D02*
X12674944Y-12933698D01*
X12674944Y-12933698D02*
X12684467Y-12943222D01*
X12684467Y-12943222D02*
X12693991Y-12962269D01*
X12693991Y-12962269D02*
X12693991Y-13009888D01*
X12693991Y-13009888D02*
X12684467Y-13028936D01*
X12684467Y-13028936D02*
X12674944Y-13038460D01*
X12674944Y-13038460D02*
X12655896Y-13047984D01*
X12655896Y-13047984D02*
X12598753Y-13047984D01*
X12598753Y-13047984D02*
X12579706Y-13038460D01*
X12579706Y-13038460D02*
X12570182Y-13028936D01*
X12874944Y-12847984D02*
X12779706Y-12847984D01*
X12779706Y-12847984D02*
X12770182Y-12943222D01*
X12770182Y-12943222D02*
X12779706Y-12933698D01*
X12779706Y-12933698D02*
X12798753Y-12924174D01*
X12798753Y-12924174D02*
X12846372Y-12924174D01*
X12846372Y-12924174D02*
X12865420Y-12933698D01*
X12865420Y-12933698D02*
X12874944Y-12943222D01*
X12874944Y-12943222D02*
X12884467Y-12962269D01*
X12884467Y-12962269D02*
X12884467Y-13009888D01*
X12884467Y-13009888D02*
X12874944Y-13028936D01*
X12874944Y-13028936D02*
X12865420Y-13038460D01*
X12865420Y-13038460D02*
X12846372Y-13047984D01*
X12846372Y-13047984D02*
X12798753Y-13047984D01*
X12798753Y-13047984D02*
X12779706Y-13038460D01*
X12779706Y-13038460D02*
X12770182Y-13028936D01*
X13008277Y-12847984D02*
X13027325Y-12847984D01*
X13027325Y-12847984D02*
X13046372Y-12857508D01*
X13046372Y-12857508D02*
X13055896Y-12867031D01*
X13055896Y-12867031D02*
X13065420Y-12886079D01*
X13065420Y-12886079D02*
X13074944Y-12924174D01*
X13074944Y-12924174D02*
X13074944Y-12971793D01*
X13074944Y-12971793D02*
X13065420Y-13009888D01*
X13065420Y-13009888D02*
X13055896Y-13028936D01*
X13055896Y-13028936D02*
X13046372Y-13038460D01*
X13046372Y-13038460D02*
X13027325Y-13047984D01*
X13027325Y-13047984D02*
X13008277Y-13047984D01*
X13008277Y-13047984D02*
X12989229Y-13038460D01*
X12989229Y-13038460D02*
X12979706Y-13028936D01*
X12979706Y-13028936D02*
X12970182Y-13009888D01*
X12970182Y-13009888D02*
X12960658Y-12971793D01*
X12960658Y-12971793D02*
X12960658Y-12924174D01*
X12960658Y-12924174D02*
X12970182Y-12886079D01*
X12970182Y-12886079D02*
X12979706Y-12867031D01*
X12979706Y-12867031D02*
X12989229Y-12857508D01*
X12989229Y-12857508D02*
X13008277Y-12847984D01*
X13151134Y-12847984D02*
X13151134Y-12886079D01*
X13227325Y-12847984D02*
X13227325Y-12886079D01*
X13522563Y-13124174D02*
X13513039Y-13114650D01*
X13513039Y-13114650D02*
X13493991Y-13086079D01*
X13493991Y-13086079D02*
X13484468Y-13067031D01*
X13484468Y-13067031D02*
X13474944Y-13038460D01*
X13474944Y-13038460D02*
X13465420Y-12990841D01*
X13465420Y-12990841D02*
X13465420Y-12952746D01*
X13465420Y-12952746D02*
X13474944Y-12905127D01*
X13474944Y-12905127D02*
X13484468Y-12876555D01*
X13484468Y-12876555D02*
X13493991Y-12857508D01*
X13493991Y-12857508D02*
X13513039Y-12828936D01*
X13513039Y-12828936D02*
X13522563Y-12819412D01*
X13703515Y-13047984D02*
X13589229Y-13047984D01*
X13646372Y-13047984D02*
X13646372Y-12847984D01*
X13646372Y-12847984D02*
X13627325Y-12876555D01*
X13627325Y-12876555D02*
X13608277Y-12895603D01*
X13608277Y-12895603D02*
X13589229Y-12905127D01*
X13874944Y-12914650D02*
X13874944Y-13047984D01*
X13827325Y-12838460D02*
X13779706Y-12981317D01*
X13779706Y-12981317D02*
X13903515Y-12981317D01*
X14132087Y-13047984D02*
X14132087Y-12847984D01*
X14217801Y-13047984D02*
X14217801Y-12943222D01*
X14217801Y-12943222D02*
X14208277Y-12924174D01*
X14208277Y-12924174D02*
X14189230Y-12914650D01*
X14189230Y-12914650D02*
X14160658Y-12914650D01*
X14160658Y-12914650D02*
X14141610Y-12924174D01*
X14141610Y-12924174D02*
X14132087Y-12933698D01*
X14341610Y-13047984D02*
X14322563Y-13038460D01*
X14322563Y-13038460D02*
X14313039Y-13028936D01*
X14313039Y-13028936D02*
X14303515Y-13009888D01*
X14303515Y-13009888D02*
X14303515Y-12952746D01*
X14303515Y-12952746D02*
X14313039Y-12933698D01*
X14313039Y-12933698D02*
X14322563Y-12924174D01*
X14322563Y-12924174D02*
X14341610Y-12914650D01*
X14341610Y-12914650D02*
X14370182Y-12914650D01*
X14370182Y-12914650D02*
X14389230Y-12924174D01*
X14389230Y-12924174D02*
X14398753Y-12933698D01*
X14398753Y-12933698D02*
X14408277Y-12952746D01*
X14408277Y-12952746D02*
X14408277Y-13009888D01*
X14408277Y-13009888D02*
X14398753Y-13028936D01*
X14398753Y-13028936D02*
X14389230Y-13038460D01*
X14389230Y-13038460D02*
X14370182Y-13047984D01*
X14370182Y-13047984D02*
X14341610Y-13047984D01*
X14522563Y-13047984D02*
X14503515Y-13038460D01*
X14503515Y-13038460D02*
X14493991Y-13019412D01*
X14493991Y-13019412D02*
X14493991Y-12847984D01*
X14674944Y-13038460D02*
X14655896Y-13047984D01*
X14655896Y-13047984D02*
X14617801Y-13047984D01*
X14617801Y-13047984D02*
X14598753Y-13038460D01*
X14598753Y-13038460D02*
X14589230Y-13019412D01*
X14589230Y-13019412D02*
X14589230Y-12943222D01*
X14589230Y-12943222D02*
X14598753Y-12924174D01*
X14598753Y-12924174D02*
X14617801Y-12914650D01*
X14617801Y-12914650D02*
X14655896Y-12914650D01*
X14655896Y-12914650D02*
X14674944Y-12924174D01*
X14674944Y-12924174D02*
X14684468Y-12943222D01*
X14684468Y-12943222D02*
X14684468Y-12962269D01*
X14684468Y-12962269D02*
X14589230Y-12981317D01*
X14760658Y-13038460D02*
X14779706Y-13047984D01*
X14779706Y-13047984D02*
X14817801Y-13047984D01*
X14817801Y-13047984D02*
X14836849Y-13038460D01*
X14836849Y-13038460D02*
X14846372Y-13019412D01*
X14846372Y-13019412D02*
X14846372Y-13009888D01*
X14846372Y-13009888D02*
X14836849Y-12990841D01*
X14836849Y-12990841D02*
X14817801Y-12981317D01*
X14817801Y-12981317D02*
X14789230Y-12981317D01*
X14789230Y-12981317D02*
X14770182Y-12971793D01*
X14770182Y-12971793D02*
X14760658Y-12952746D01*
X14760658Y-12952746D02*
X14760658Y-12943222D01*
X14760658Y-12943222D02*
X14770182Y-12924174D01*
X14770182Y-12924174D02*
X14789230Y-12914650D01*
X14789230Y-12914650D02*
X14817801Y-12914650D01*
X14817801Y-12914650D02*
X14836849Y-12924174D01*
X14913039Y-13124174D02*
X14922563Y-13114650D01*
X14922563Y-13114650D02*
X14941611Y-13086079D01*
X14941611Y-13086079D02*
X14951134Y-13067031D01*
X14951134Y-13067031D02*
X14960658Y-13038460D01*
X14960658Y-13038460D02*
X14970182Y-12990841D01*
X14970182Y-12990841D02*
X14970182Y-12952746D01*
X14970182Y-12952746D02*
X14960658Y-12905127D01*
X14960658Y-12905127D02*
X14951134Y-12876555D01*
X14951134Y-12876555D02*
X14941611Y-12857508D01*
X14941611Y-12857508D02*
X14922563Y-12828936D01*
X14922563Y-12828936D02*
X14913039Y-12819412D01*
M02*
