%TF.GenerationSoftware,KiCad,Pcbnew,9.0.7*%
%TF.CreationDate,2026-09-25T08:31:41+02:00*%
%TF.ProjectId,xiao led module,7869616f-206c-4656-9420-6d6f64756c65,rev?*%
%TF.SameCoordinates,Original*%
%TF.FileFunction,Copper,L1,Top*%
%TF.FilePolarity,Positive*%
%FSLAX46Y46*%
G04 Gerber Fmt 4.6, Leading zero omitted, Abs format (unit mm)*
G04 Created by KiCad (PCBNEW 9.0.7) date 2026-09-25 08:31:41*
%MOMM*%
%LPD*%
G01*
G04 APERTURE LIST*
%TA.AperFunction,SMDPad,CuDef*%
%ADD10R,0.700000X0.700000*%
%TD*%
%TA.AperFunction,SMDPad,CuDef*%
%ADD11R,4.600000X1.000000*%
%TD*%
%TA.AperFunction,SMDPad,CuDef*%
%ADD12R,3.400000X1.600000*%
%TD*%
%TA.AperFunction,ComponentPad*%
%ADD13C,1.524000*%
%TD*%
%TA.AperFunction,ViaPad*%
%ADD14C,0.600000*%
%TD*%
%TA.AperFunction,Conductor*%
%ADD15C,0.200000*%
%TD*%
%TA.AperFunction,Conductor*%
%ADD16C,0.600000*%
%TD*%
G04 APERTURE END LIST*
D10*
%TO.P,D19,1,DOUT*%
%TO.N,Net-(D19-DOUT)*%
X137274800Y-113780800D03*
%TO.P,D19,2,VSS*%
%TO.N,GND*%
X137274800Y-112680800D03*
%TO.P,D19,3,DIN*%
%TO.N,Net-(D18-DOUT)*%
X135444800Y-112680800D03*
%TO.P,D19,4,VDD*%
%TO.N,+5V*%
X135444800Y-113780800D03*
%TD*%
%TO.P,D8,1,DOUT*%
%TO.N,Net-(D8-DOUT)*%
X128824400Y-110330800D03*
%TO.P,D8,2,VSS*%
%TO.N,GND*%
X128824400Y-109230800D03*
%TO.P,D8,3,DIN*%
%TO.N,Net-(D7-DOUT)*%
X126994400Y-109230800D03*
%TO.P,D8,4,VDD*%
%TO.N,+5V*%
X126994400Y-110330800D03*
%TD*%
%TO.P,D23,1,DOUT*%
%TO.N,Net-(D23-DOUT)*%
X141500000Y-110330800D03*
%TO.P,D23,2,VSS*%
%TO.N,GND*%
X141500000Y-109230800D03*
%TO.P,D23,3,DIN*%
%TO.N,Net-(D22-DOUT)*%
X139670000Y-109230800D03*
%TO.P,D23,4,VDD*%
%TO.N,+5V*%
X139670000Y-110330800D03*
%TD*%
%TO.P,D3,1,DOUT*%
%TO.N,Net-(D3-DOUT)*%
X124599200Y-110330800D03*
%TO.P,D3,2,VSS*%
%TO.N,GND*%
X124599200Y-109230800D03*
%TO.P,D3,3,DIN*%
%TO.N,Net-(D2-DOUT)*%
X122769200Y-109230800D03*
%TO.P,D3,4,VDD*%
%TO.N,+5V*%
X122769200Y-110330800D03*
%TD*%
%TO.P,D6,1,DOUT*%
%TO.N,Net-(D6-DOUT)*%
X128824400Y-103430800D03*
%TO.P,D6,2,VSS*%
%TO.N,GND*%
X128824400Y-102330800D03*
%TO.P,D6,3,DIN*%
%TO.N,Net-(D5-DOUT)*%
X126994400Y-102330800D03*
%TO.P,D6,4,VDD*%
%TO.N,+5V*%
X126994400Y-103430800D03*
%TD*%
%TO.P,D25,1,DOUT*%
%TO.N,unconnected-(D25-DOUT-Pad1)*%
X141500000Y-117230800D03*
%TO.P,D25,2,VSS*%
%TO.N,GND*%
X141500000Y-116130800D03*
%TO.P,D25,3,DIN*%
%TO.N,Net-(D24-DOUT)*%
X139670000Y-116130800D03*
%TO.P,D25,4,VDD*%
%TO.N,+5V*%
X139670000Y-117230800D03*
%TD*%
%TO.P,D12,1,DOUT*%
%TO.N,Net-(D12-DOUT)*%
X133049600Y-106880800D03*
%TO.P,D12,2,VSS*%
%TO.N,GND*%
X133049600Y-105780800D03*
%TO.P,D12,3,DIN*%
%TO.N,Net-(D11-DOUT)*%
X131219600Y-105780800D03*
%TO.P,D12,4,VDD*%
%TO.N,+5V*%
X131219600Y-106880800D03*
%TD*%
%TO.P,D18,1,DOUT*%
%TO.N,Net-(D18-DOUT)*%
X137274800Y-110330800D03*
%TO.P,D18,2,VSS*%
%TO.N,GND*%
X137274800Y-109230800D03*
%TO.P,D18,3,DIN*%
%TO.N,Net-(D17-DOUT)*%
X135444800Y-109230800D03*
%TO.P,D18,4,VDD*%
%TO.N,+5V*%
X135444800Y-110330800D03*
%TD*%
%TO.P,D14,1,DOUT*%
%TO.N,Net-(D14-DOUT)*%
X133049600Y-113780800D03*
%TO.P,D14,2,VSS*%
%TO.N,GND*%
X133049600Y-112680800D03*
%TO.P,D14,3,DIN*%
%TO.N,Net-(D13-DOUT)*%
X131219600Y-112680800D03*
%TO.P,D14,4,VDD*%
%TO.N,+5V*%
X131219600Y-113780800D03*
%TD*%
%TO.P,D21,1,DOUT*%
%TO.N,Net-(D21-DOUT)*%
X141500000Y-103430800D03*
%TO.P,D21,2,VSS*%
%TO.N,GND*%
X141500000Y-102330800D03*
%TO.P,D21,3,DIN*%
%TO.N,Net-(D20-DOUT)*%
X139670000Y-102330800D03*
%TO.P,D21,4,VDD*%
%TO.N,+5V*%
X139670000Y-103430800D03*
%TD*%
%TO.P,D9,1,DOUT*%
%TO.N,Net-(D10-DIN)*%
X128824400Y-113780800D03*
%TO.P,D9,2,VSS*%
%TO.N,GND*%
X128824400Y-112680800D03*
%TO.P,D9,3,DIN*%
%TO.N,Net-(D8-DOUT)*%
X126994400Y-112680800D03*
%TO.P,D9,4,VDD*%
%TO.N,+5V*%
X126994400Y-113780800D03*
%TD*%
%TO.P,D22,1,DOUT*%
%TO.N,Net-(D22-DOUT)*%
X141500000Y-106880800D03*
%TO.P,D22,2,VSS*%
%TO.N,GND*%
X141500000Y-105780800D03*
%TO.P,D22,3,DIN*%
%TO.N,Net-(D21-DOUT)*%
X139670000Y-105780800D03*
%TO.P,D22,4,VDD*%
%TO.N,+5V*%
X139670000Y-106880800D03*
%TD*%
%TO.P,D17,1,DOUT*%
%TO.N,Net-(D17-DOUT)*%
X137274800Y-106880800D03*
%TO.P,D17,2,VSS*%
%TO.N,GND*%
X137274800Y-105780800D03*
%TO.P,D17,3,DIN*%
%TO.N,Net-(D16-DOUT)*%
X135444800Y-105780800D03*
%TO.P,D17,4,VDD*%
%TO.N,+5V*%
X135444800Y-106880800D03*
%TD*%
%TO.P,D4,1,DOUT*%
%TO.N,Net-(D4-DOUT)*%
X124599200Y-113780800D03*
%TO.P,D4,2,VSS*%
%TO.N,GND*%
X124599200Y-112680800D03*
%TO.P,D4,3,DIN*%
%TO.N,Net-(D3-DOUT)*%
X122769200Y-112680800D03*
%TO.P,D4,4,VDD*%
%TO.N,+5V*%
X122769200Y-113780800D03*
%TD*%
%TO.P,D24,1,DOUT*%
%TO.N,Net-(D24-DOUT)*%
X141500000Y-113780800D03*
%TO.P,D24,2,VSS*%
%TO.N,GND*%
X141500000Y-112680800D03*
%TO.P,D24,3,DIN*%
%TO.N,Net-(D23-DOUT)*%
X139670000Y-112680800D03*
%TO.P,D24,4,VDD*%
%TO.N,+5V*%
X139670000Y-113780800D03*
%TD*%
D11*
%TO.P,J2,1,1*%
%TO.N,+5V*%
X116270000Y-112990000D03*
%TO.P,J2,2,2*%
%TO.N,/ESP_RX*%
X116270000Y-110990000D03*
%TO.P,J2,3,3*%
%TO.N,/ESP_TX*%
X116270000Y-108990000D03*
%TO.P,J2,4,4*%
%TO.N,GND*%
X116270000Y-106990000D03*
D12*
%TO.P,J2,NC1*%
X111070000Y-115390000D03*
%TO.P,J2,NC2*%
X111070000Y-104590000D03*
%TD*%
D10*
%TO.P,D10,1,DOUT*%
%TO.N,Net-(D10-DOUT)*%
X128824400Y-117230800D03*
%TO.P,D10,2,VSS*%
%TO.N,GND*%
X128824400Y-116130800D03*
%TO.P,D10,3,DIN*%
%TO.N,Net-(D10-DIN)*%
X126994400Y-116130800D03*
%TO.P,D10,4,VDD*%
%TO.N,+5V*%
X126994400Y-117230800D03*
%TD*%
%TO.P,D2,1,DOUT*%
%TO.N,Net-(D2-DOUT)*%
X124599200Y-106880800D03*
%TO.P,D2,2,VSS*%
%TO.N,GND*%
X124599200Y-105780800D03*
%TO.P,D2,3,DIN*%
%TO.N,Net-(D1-DOUT)*%
X122769200Y-105780800D03*
%TO.P,D2,4,VDD*%
%TO.N,+5V*%
X122769200Y-106880800D03*
%TD*%
%TO.P,D11,1,DOUT*%
%TO.N,Net-(D11-DOUT)*%
X133049600Y-103430800D03*
%TO.P,D11,2,VSS*%
%TO.N,GND*%
X133049600Y-102330800D03*
%TO.P,D11,3,DIN*%
%TO.N,Net-(D10-DOUT)*%
X131219600Y-102330800D03*
%TO.P,D11,4,VDD*%
%TO.N,+5V*%
X131219600Y-103430800D03*
%TD*%
%TO.P,D20,1,DOUT*%
%TO.N,Net-(D20-DOUT)*%
X137274800Y-117230800D03*
%TO.P,D20,2,VSS*%
%TO.N,GND*%
X137274800Y-116130800D03*
%TO.P,D20,3,DIN*%
%TO.N,Net-(D19-DOUT)*%
X135444800Y-116130800D03*
%TO.P,D20,4,VDD*%
%TO.N,+5V*%
X135444800Y-117230800D03*
%TD*%
%TO.P,D1,1,DOUT*%
%TO.N,Net-(D1-DOUT)*%
X124599200Y-103430800D03*
%TO.P,D1,2,VSS*%
%TO.N,GND*%
X124599200Y-102330800D03*
%TO.P,D1,3,DIN*%
%TO.N,/LEDA*%
X122769200Y-102330800D03*
%TO.P,D1,4,VDD*%
%TO.N,+5V*%
X122769200Y-103430800D03*
%TD*%
%TO.P,D13,1,DOUT*%
%TO.N,Net-(D13-DOUT)*%
X133049600Y-110330800D03*
%TO.P,D13,2,VSS*%
%TO.N,GND*%
X133049600Y-109230800D03*
%TO.P,D13,3,DIN*%
%TO.N,Net-(D12-DOUT)*%
X131219600Y-109230800D03*
%TO.P,D13,4,VDD*%
%TO.N,+5V*%
X131219600Y-110330800D03*
%TD*%
%TO.P,D7,1,DOUT*%
%TO.N,Net-(D7-DOUT)*%
X128824400Y-106880800D03*
%TO.P,D7,2,VSS*%
%TO.N,GND*%
X128824400Y-105780800D03*
%TO.P,D7,3,DIN*%
%TO.N,Net-(D6-DOUT)*%
X126994400Y-105780800D03*
%TO.P,D7,4,VDD*%
%TO.N,+5V*%
X126994400Y-106880800D03*
%TD*%
%TO.P,D5,1,DOUT*%
%TO.N,Net-(D5-DOUT)*%
X124599200Y-117230800D03*
%TO.P,D5,2,VSS*%
%TO.N,GND*%
X124599200Y-116130800D03*
%TO.P,D5,3,DIN*%
%TO.N,Net-(D4-DOUT)*%
X122769200Y-116130800D03*
%TO.P,D5,4,VDD*%
%TO.N,+5V*%
X122769200Y-117230800D03*
%TD*%
%TO.P,D16,1,DOUT*%
%TO.N,Net-(D16-DOUT)*%
X137274800Y-103430800D03*
%TO.P,D16,2,VSS*%
%TO.N,GND*%
X137274800Y-102330800D03*
%TO.P,D16,3,DIN*%
%TO.N,Net-(D15-DOUT)*%
X135444800Y-102330800D03*
%TO.P,D16,4,VDD*%
%TO.N,+5V*%
X135444800Y-103430800D03*
%TD*%
%TO.P,D15,1,DOUT*%
%TO.N,Net-(D15-DOUT)*%
X133049600Y-117230800D03*
%TO.P,D15,2,VSS*%
%TO.N,GND*%
X133049600Y-116130800D03*
%TO.P,D15,3,DIN*%
%TO.N,Net-(D14-DOUT)*%
X131219600Y-116130800D03*
%TO.P,D15,4,VDD*%
%TO.N,+5V*%
X131219600Y-117230800D03*
%TD*%
D13*
%TO.P,U1,1,GPIO2_A0_D0*%
%TO.N,unconnected-(U1-GPIO2_A0_D0-Pad1)_1*%
X102698500Y-102380000D03*
%TO.P,U1,2,GPIO3_A1_D1*%
%TO.N,unconnected-(U1-GPIO3_A1_D1-Pad2)*%
X105238500Y-102380000D03*
%TO.P,U1,3,GPIO4_A2_D2*%
%TO.N,/LEDA*%
X107778500Y-102380000D03*
%TO.P,U1,4,GPIO5_A3_D3*%
%TO.N,/LEDB*%
X110318500Y-102380000D03*
%TO.P,U1,5,GPIO6_D4_SDA*%
%TO.N,unconnected-(U1-GPIO6_D4_SDA-Pad5)_1*%
X112858500Y-102380000D03*
%TO.P,U1,6,GPIO7_D5_SCL*%
%TO.N,unconnected-(U1-GPIO7_D5_SCL-Pad6)*%
X115398500Y-102380000D03*
%TO.P,U1,7,GPIO21_D6_TX*%
%TO.N,/ESP_TX*%
X117938500Y-102380000D03*
%TO.P,U1,8,GPIO20_D7_RX*%
%TO.N,/ESP_RX*%
X117938500Y-117620000D03*
%TO.P,U1,9,GPIO8_D8_SCK*%
%TO.N,unconnected-(U1-GPIO8_D8_SCK-Pad9)*%
X115398500Y-117620000D03*
%TO.P,U1,10,GPIO9_D9_MISO*%
%TO.N,unconnected-(U1-GPIO9_D9_MISO-Pad10)*%
X112858500Y-117620000D03*
%TO.P,U1,11,GPIO10_D10_MOSI*%
%TO.N,unconnected-(U1-GPIO10_D10_MOSI-Pad11)_1*%
X110318500Y-117620000D03*
%TO.P,U1,12,3V3*%
%TO.N,+3V3*%
X107778500Y-117620000D03*
%TO.P,U1,13,GND*%
%TO.N,GND*%
X105238500Y-117620000D03*
%TO.P,U1,14,VBUS*%
%TO.N,+5V*%
X102698500Y-117620000D03*
%TD*%
D14*
%TO.N,+5V*%
X122769200Y-104461600D03*
X139670000Y-114930000D03*
X126994400Y-107986400D03*
X126994400Y-118725200D03*
X139670000Y-111382600D03*
X135444800Y-118675600D03*
X131219600Y-104532200D03*
X126994400Y-111535400D03*
X122769200Y-111481800D03*
X122769200Y-118500000D03*
X131219600Y-115011200D03*
X139670000Y-108060800D03*
X126936120Y-104560511D03*
X122769200Y-115000000D03*
X131219600Y-118511200D03*
X139670000Y-104560800D03*
X135444800Y-114786000D03*
X126994400Y-114985400D03*
X135444800Y-104506400D03*
X131219600Y-111511200D03*
X135444800Y-111286000D03*
X139670000Y-118560800D03*
X135444800Y-108135000D03*
X131219600Y-107982200D03*
X122769200Y-107961600D03*
%TO.N,GND*%
X118500000Y-105000000D03*
X108000000Y-114500000D03*
X123500000Y-101000000D03*
X108000000Y-106000000D03*
%TD*%
D15*
%TO.N,+5V*%
X122769200Y-103430800D02*
X122769200Y-104461600D01*
X126994400Y-106880800D02*
X126994400Y-107986400D01*
X131219600Y-103430800D02*
X131219600Y-104511200D01*
X135444800Y-103430800D02*
X135444800Y-104675600D01*
X139670000Y-110330800D02*
X139670000Y-111560800D01*
X131219600Y-117230800D02*
X131219600Y-118511200D01*
X131219600Y-113780800D02*
X131219600Y-115011200D01*
D16*
X116270000Y-112990000D02*
X107328500Y-112990000D01*
D15*
X131219600Y-106880800D02*
X131219600Y-108011200D01*
X135444800Y-106880800D02*
X135444800Y-108135000D01*
X122769200Y-113780800D02*
X122769200Y-115000000D01*
X139670000Y-103430800D02*
X139670000Y-104560800D01*
X126994400Y-103430800D02*
X126994400Y-104725200D01*
X122769200Y-117230800D02*
X122769200Y-118500000D01*
D16*
X107328500Y-112990000D02*
X102698500Y-117620000D01*
D15*
X126994400Y-113780800D02*
X126994400Y-114985400D01*
X126994400Y-117230800D02*
X126994400Y-118725200D01*
X135444800Y-110330800D02*
X135444800Y-111286000D01*
X139670000Y-106880800D02*
X139670000Y-108060800D01*
X126994400Y-110330800D02*
X126994400Y-111535400D01*
X135444800Y-113780800D02*
X135444800Y-114786000D01*
X139670000Y-117230800D02*
X139670000Y-118560800D01*
X139670000Y-113780800D02*
X139670000Y-115060800D01*
X122769200Y-110330800D02*
X122769200Y-111500000D01*
X131219600Y-110330800D02*
X131219600Y-111511200D01*
X135444800Y-117230800D02*
X135444800Y-118675600D01*
X122769200Y-106880800D02*
X122769200Y-107961600D01*
%TO.N,GND*%
X133700600Y-105129800D02*
X133049600Y-105780800D01*
X137330800Y-102330800D02*
X137925800Y-102925800D01*
X128824400Y-102330800D02*
X129026400Y-102330800D01*
X133700600Y-112781800D02*
X133700600Y-115479800D01*
X125250200Y-102431800D02*
X125149200Y-102330800D01*
X137925800Y-106229800D02*
X137925800Y-108579800D01*
X133700600Y-102431800D02*
X133700600Y-105129800D01*
X141500000Y-116130800D02*
X142151000Y-115479800D01*
X125149200Y-112680800D02*
X124599200Y-112680800D01*
X133700600Y-108579800D02*
X133049600Y-109230800D01*
X124599200Y-102330800D02*
X124599200Y-102099200D01*
X125149200Y-109230800D02*
X124599200Y-109230800D01*
X111070000Y-104590000D02*
X113870000Y-104590000D01*
X137925800Y-112781800D02*
X137925800Y-115479800D01*
X137476800Y-105780800D02*
X137925800Y-106229800D01*
X128824400Y-112680800D02*
X129374400Y-112680800D01*
X125250200Y-101679800D02*
X124599200Y-102330800D01*
X129374400Y-109230800D02*
X129500000Y-109356400D01*
X132398600Y-101679800D02*
X129475400Y-101679800D01*
X142151000Y-102779800D02*
X142151000Y-105129800D01*
X137274800Y-102330800D02*
X136623800Y-101679800D01*
X129500000Y-109356400D02*
X129500000Y-112005200D01*
X129475400Y-108579800D02*
X128824400Y-109230800D01*
X141500000Y-102330800D02*
X141702000Y-102330800D01*
X137925800Y-105129800D02*
X137274800Y-105780800D01*
X142151000Y-113129800D02*
X141702000Y-112680800D01*
X141500000Y-112680800D02*
X142151000Y-112029800D01*
X133049600Y-105780800D02*
X133599600Y-105780800D01*
X137274800Y-105780800D02*
X137476800Y-105780800D01*
X124599200Y-116130800D02*
X125250200Y-115479800D01*
X106429250Y-116429250D02*
X108000000Y-114858500D01*
X133700600Y-115479800D02*
X133049600Y-116130800D01*
X142151000Y-108579800D02*
X141500000Y-109230800D01*
X108000000Y-114858500D02*
X108000000Y-114500000D01*
X133599600Y-102330800D02*
X133700600Y-102431800D01*
X125149200Y-105780800D02*
X124599200Y-105780800D01*
X129475400Y-106229800D02*
X129475400Y-108579800D01*
X142151000Y-109331800D02*
X142050000Y-109230800D01*
X106429250Y-116429250D02*
X105238500Y-117620000D01*
X129475400Y-102779800D02*
X129475400Y-105129800D01*
X142151000Y-105129800D02*
X141500000Y-105780800D01*
X137925800Y-109331800D02*
X137925800Y-112029800D01*
X137925800Y-115479800D02*
X137274800Y-116130800D01*
X133700600Y-105881800D02*
X133700600Y-108579800D01*
X133700600Y-101679800D02*
X133049600Y-102330800D01*
X133700600Y-109331800D02*
X133700600Y-112029800D01*
X142050000Y-109230800D02*
X141500000Y-109230800D01*
X109000000Y-104500000D02*
X111070000Y-104590000D01*
X125250200Y-108579800D02*
X125250200Y-105881800D01*
X142151000Y-112029800D02*
X142151000Y-109331800D01*
X133700600Y-112029800D02*
X133049600Y-112680800D01*
X137274800Y-112680800D02*
X137824800Y-112680800D01*
X137824800Y-112680800D02*
X137925800Y-112781800D01*
X125250200Y-115479800D02*
X125250200Y-112781800D01*
X133049600Y-112680800D02*
X133599600Y-112680800D01*
X137925800Y-112029800D02*
X137274800Y-112680800D01*
X128824400Y-105780800D02*
X129026400Y-105780800D01*
X125149200Y-102330800D02*
X124599200Y-102330800D01*
X124599200Y-112680800D02*
X125250200Y-112029800D01*
X125250200Y-105129800D02*
X125250200Y-102431800D01*
X142050000Y-105780800D02*
X142151000Y-105881800D01*
X113870000Y-104590000D02*
X116270000Y-106990000D01*
X133049600Y-102330800D02*
X133599600Y-102330800D01*
X124599200Y-105780800D02*
X125250200Y-105129800D01*
X125250200Y-109331800D02*
X125149200Y-109230800D01*
X133049600Y-109230800D02*
X133599600Y-109230800D01*
X124599200Y-109230800D02*
X125250200Y-108579800D01*
X129475400Y-101679800D02*
X128824400Y-102330800D01*
X129026400Y-105780800D02*
X129475400Y-106229800D01*
X141702000Y-112680800D02*
X141500000Y-112680800D01*
X142151000Y-105881800D02*
X142151000Y-108579800D01*
X129026400Y-102330800D02*
X129475400Y-102779800D01*
X133049600Y-102330800D02*
X132398600Y-101679800D01*
X124599200Y-102099200D02*
X123500000Y-101000000D01*
X116510000Y-106990000D02*
X118500000Y-105000000D01*
X137925800Y-108579800D02*
X137274800Y-109230800D01*
X136623800Y-101679800D02*
X133700600Y-101679800D01*
X125250200Y-112781800D02*
X125149200Y-112680800D01*
X111070000Y-115390000D02*
X107468500Y-115390000D01*
X141500000Y-105780800D02*
X142050000Y-105780800D01*
X125250200Y-112029800D02*
X125250200Y-109331800D01*
X133599600Y-105780800D02*
X133700600Y-105881800D01*
X129374400Y-112680800D02*
X129475400Y-112781800D01*
X137824800Y-109230800D02*
X137925800Y-109331800D01*
X129475400Y-105129800D02*
X128824400Y-105780800D01*
X129500000Y-112005200D02*
X128824400Y-112680800D01*
X129475400Y-112781800D02*
X129475400Y-115479800D01*
X137274800Y-102330800D02*
X137330800Y-102330800D01*
X137925800Y-102925800D02*
X137925800Y-105129800D01*
X140849000Y-101679800D02*
X137925800Y-101679800D01*
X125250200Y-105881800D02*
X125149200Y-105780800D01*
X133599600Y-109230800D02*
X133700600Y-109331800D01*
X142151000Y-115479800D02*
X142151000Y-113129800D01*
X141702000Y-102330800D02*
X142151000Y-102779800D01*
X108000000Y-106000000D02*
X109000000Y-104500000D01*
X129475400Y-115479800D02*
X128824400Y-116130800D01*
X128824400Y-109230800D02*
X129374400Y-109230800D01*
X128173400Y-101679800D02*
X125250200Y-101679800D01*
X107468500Y-115390000D02*
X106429250Y-116429250D01*
X133599600Y-112680800D02*
X133700600Y-112781800D01*
X137925800Y-101679800D02*
X137274800Y-102330800D01*
X128824400Y-102330800D02*
X128173400Y-101679800D01*
X137274800Y-109230800D02*
X137824800Y-109230800D01*
X141500000Y-102330800D02*
X140849000Y-101679800D01*
X116270000Y-106990000D02*
X116510000Y-106990000D01*
%TO.N,/ESP_RX*%
X119500000Y-111500000D02*
X119500000Y-116058500D01*
X119500000Y-116058500D02*
X117938500Y-117620000D01*
X118990000Y-110990000D02*
X119500000Y-111500000D01*
X116270000Y-110990000D02*
X118990000Y-110990000D01*
%TO.N,/ESP_TX*%
X119500000Y-108500000D02*
X119500000Y-103941500D01*
X119500000Y-103941500D02*
X117938500Y-102380000D01*
X116280000Y-109000000D02*
X119000000Y-109000000D01*
X116270000Y-108990000D02*
X116280000Y-109000000D01*
X119000000Y-109000000D02*
X119500000Y-108500000D01*
%TO.N,Net-(D1-DOUT)*%
X124599200Y-103950800D02*
X122769200Y-105780800D01*
X124599200Y-103430800D02*
X124599200Y-103950800D01*
%TO.N,Net-(D2-DOUT)*%
X124599200Y-106880800D02*
X124599200Y-107400800D01*
X124599200Y-107400800D02*
X122769200Y-109230800D01*
%TO.N,Net-(D3-DOUT)*%
X124599200Y-110850800D02*
X122769200Y-112680800D01*
X124599200Y-110330800D02*
X124599200Y-110850800D01*
%TO.N,Net-(D10-DIN)*%
X127100000Y-116130800D02*
X128824400Y-114406400D01*
X126994400Y-116130800D02*
X127100000Y-116130800D01*
X128824400Y-114406400D02*
X128824400Y-113780800D01*
%TO.N,/LEDA*%
X121500000Y-101000000D02*
X121500000Y-101061600D01*
X121500000Y-101061600D02*
X122769200Y-102330800D01*
X107778500Y-102380000D02*
X109158500Y-101000000D01*
X109158500Y-101000000D02*
X121500000Y-101000000D01*
%TO.N,Net-(D5-DOUT)*%
X126400000Y-102330800D02*
X126994400Y-102330800D01*
X126000000Y-116380000D02*
X126000000Y-102730800D01*
X124599200Y-117230800D02*
X125149200Y-117230800D01*
X125149200Y-117230800D02*
X126000000Y-116380000D01*
X126000000Y-102730800D02*
X126400000Y-102330800D01*
%TO.N,Net-(D7-DOUT)*%
X128824400Y-106880800D02*
X128824400Y-107400800D01*
X128824400Y-107400800D02*
X126994400Y-109230800D01*
%TO.N,Net-(D8-DOUT)*%
X128824400Y-110330800D02*
X128824400Y-110850800D01*
X128824400Y-110850800D02*
X126994400Y-112680800D01*
%TO.N,Net-(D10-DOUT)*%
X130000000Y-116605200D02*
X130000000Y-103230800D01*
X130900000Y-102330800D02*
X131219600Y-102330800D01*
X128824400Y-117230800D02*
X129374400Y-117230800D01*
X129374400Y-117230800D02*
X130000000Y-116605200D01*
X130000000Y-103230800D02*
X130900000Y-102330800D01*
%TO.N,Net-(D4-DOUT)*%
X124599200Y-114300800D02*
X122769200Y-116130800D01*
X124599200Y-113780800D02*
X124599200Y-114300800D01*
%TO.N,Net-(D6-DOUT)*%
X128824400Y-103950800D02*
X126994400Y-105780800D01*
X128824400Y-103430800D02*
X128824400Y-103950800D01*
%TO.N,Net-(D11-DOUT)*%
X133049600Y-103430800D02*
X133049600Y-103950800D01*
X133049600Y-103950800D02*
X131219600Y-105780800D01*
%TO.N,Net-(D12-DOUT)*%
X133049600Y-107400800D02*
X133049600Y-106880800D01*
X131219600Y-109230800D02*
X133049600Y-107400800D01*
%TO.N,Net-(D13-DOUT)*%
X133049600Y-110850800D02*
X131219600Y-112680800D01*
X133049600Y-110330800D02*
X133049600Y-110850800D01*
%TO.N,Net-(D14-DOUT)*%
X133049600Y-114300800D02*
X133049600Y-113780800D01*
X131219600Y-116130800D02*
X133049600Y-114300800D01*
%TO.N,Net-(D15-DOUT)*%
X134894800Y-102330800D02*
X135444800Y-102330800D01*
X134500000Y-116330400D02*
X134500000Y-102725600D01*
X133599600Y-117230800D02*
X134500000Y-116330400D01*
X134500000Y-102725600D02*
X134894800Y-102330800D01*
X133049600Y-117230800D02*
X133599600Y-117230800D01*
%TO.N,Net-(D16-DOUT)*%
X137274800Y-103430800D02*
X137274800Y-103950800D01*
X137274800Y-103950800D02*
X135444800Y-105780800D01*
%TO.N,Net-(D17-DOUT)*%
X137274800Y-107400800D02*
X135444800Y-109230800D01*
X137274800Y-106880800D02*
X137274800Y-107400800D01*
%TO.N,Net-(D18-DOUT)*%
X137274800Y-110850800D02*
X135444800Y-112680800D01*
X137274800Y-110330800D02*
X137274800Y-110850800D01*
%TO.N,Net-(D19-DOUT)*%
X137274800Y-113780800D02*
X137274800Y-114300800D01*
X137274800Y-114300800D02*
X135444800Y-116130800D01*
%TO.N,Net-(D20-DOUT)*%
X137824800Y-117230800D02*
X138500000Y-116555600D01*
X138500000Y-102730800D02*
X138900000Y-102330800D01*
X138900000Y-102330800D02*
X139670000Y-102330800D01*
X137274800Y-117230800D02*
X137824800Y-117230800D01*
X138500000Y-116555600D02*
X138500000Y-102730800D01*
%TO.N,Net-(D21-DOUT)*%
X141500000Y-103950800D02*
X139670000Y-105780800D01*
X141500000Y-103430800D02*
X141500000Y-103950800D01*
%TO.N,Net-(D22-DOUT)*%
X141500000Y-107400800D02*
X139670000Y-109230800D01*
X141500000Y-106880800D02*
X141500000Y-107400800D01*
%TO.N,Net-(D23-DOUT)*%
X141500000Y-110330800D02*
X141500000Y-110850800D01*
X141500000Y-110850800D02*
X139670000Y-112680800D01*
%TO.N,Net-(D24-DOUT)*%
X141500000Y-114300800D02*
X139670000Y-116130800D01*
X141500000Y-113780800D02*
X141500000Y-114300800D01*
%TD*%
%TA.AperFunction,Conductor*%
%TO.N,GND*%
G36*
X113574719Y-113810185D02*
G01*
X113606948Y-113840191D01*
X113612454Y-113847546D01*
X113612457Y-113847548D01*
X113727664Y-113933793D01*
X113727671Y-113933797D01*
X113862517Y-113984091D01*
X113862516Y-113984091D01*
X113869444Y-113984835D01*
X113922127Y-113990500D01*
X118617872Y-113990499D01*
X118677483Y-113984091D01*
X118732167Y-113963694D01*
X118801858Y-113958711D01*
X118863181Y-113992196D01*
X118896666Y-114053519D01*
X118899500Y-114079877D01*
X118899500Y-115758402D01*
X118879815Y-115825441D01*
X118863181Y-115846083D01*
X118353026Y-116356237D01*
X118291703Y-116389722D01*
X118238978Y-116389158D01*
X118238948Y-116389349D01*
X118237656Y-116389144D01*
X118236403Y-116389131D01*
X118234136Y-116388586D01*
X118057528Y-116360615D01*
X118037861Y-116357500D01*
X117839139Y-116357500D01*
X117773714Y-116367862D01*
X117642862Y-116388587D01*
X117453870Y-116449993D01*
X117453867Y-116449994D01*
X117276805Y-116540213D01*
X117116033Y-116657021D01*
X116975521Y-116797533D01*
X116858713Y-116958305D01*
X116778985Y-117114780D01*
X116731010Y-117165576D01*
X116663189Y-117182371D01*
X116597054Y-117159833D01*
X116558015Y-117114780D01*
X116538679Y-117076832D01*
X116478287Y-116958306D01*
X116361481Y-116797536D01*
X116220964Y-116657019D01*
X116060194Y-116540213D01*
X116057853Y-116539020D01*
X115883132Y-116449994D01*
X115883129Y-116449993D01*
X115694137Y-116388587D01*
X115595998Y-116373043D01*
X115497861Y-116357500D01*
X115299139Y-116357500D01*
X115233714Y-116367862D01*
X115102862Y-116388587D01*
X114913870Y-116449993D01*
X114913867Y-116449994D01*
X114736805Y-116540213D01*
X114576033Y-116657021D01*
X114435521Y-116797533D01*
X114318713Y-116958305D01*
X114238985Y-117114780D01*
X114191010Y-117165576D01*
X114123189Y-117182371D01*
X114057054Y-117159833D01*
X114018015Y-117114780D01*
X113998679Y-117076832D01*
X113938287Y-116958306D01*
X113821481Y-116797536D01*
X113680964Y-116657019D01*
X113520194Y-116540213D01*
X113517853Y-116539020D01*
X113343130Y-116449993D01*
X113338639Y-116448134D01*
X113339175Y-116446837D01*
X113286718Y-116410961D01*
X113259525Y-116346600D01*
X113262043Y-116303955D01*
X113263598Y-116297373D01*
X113269999Y-116237844D01*
X113270000Y-116237827D01*
X113270000Y-115640000D01*
X108870000Y-115640000D01*
X108870000Y-116237844D01*
X108876401Y-116297372D01*
X108876403Y-116297379D01*
X108926645Y-116432086D01*
X108926649Y-116432093D01*
X109012809Y-116547187D01*
X109012812Y-116547190D01*
X109127906Y-116633350D01*
X109127913Y-116633354D01*
X109247930Y-116678117D01*
X109303863Y-116719988D01*
X109328281Y-116785452D01*
X109313430Y-116853725D01*
X109304916Y-116867183D01*
X109238714Y-116958303D01*
X109158985Y-117114780D01*
X109111010Y-117165576D01*
X109043189Y-117182371D01*
X108977054Y-117159833D01*
X108938015Y-117114780D01*
X108918679Y-117076832D01*
X108858287Y-116958306D01*
X108741481Y-116797536D01*
X108600964Y-116657019D01*
X108440194Y-116540213D01*
X108437853Y-116539020D01*
X108263132Y-116449994D01*
X108263129Y-116449993D01*
X108074137Y-116388587D01*
X107975998Y-116373043D01*
X107877861Y-116357500D01*
X107679139Y-116357500D01*
X107613714Y-116367862D01*
X107482862Y-116388587D01*
X107293870Y-116449993D01*
X107293867Y-116449994D01*
X107116805Y-116540213D01*
X106956033Y-116657021D01*
X106815521Y-116797533D01*
X106698713Y-116958305D01*
X106618704Y-117115331D01*
X106570729Y-117166127D01*
X106502908Y-117182922D01*
X106436773Y-117160384D01*
X106397734Y-117115331D01*
X106317858Y-116958567D01*
X106290768Y-116921283D01*
X105676147Y-117535904D01*
X105652708Y-117448429D01*
X105594189Y-117347070D01*
X105511430Y-117264311D01*
X105410071Y-117205792D01*
X105322593Y-117182352D01*
X105937215Y-116567730D01*
X105899932Y-116540641D01*
X105722937Y-116450457D01*
X105534021Y-116389075D01*
X105366474Y-116362538D01*
X105303339Y-116332609D01*
X105266408Y-116273297D01*
X105267406Y-116203435D01*
X105298187Y-116152389D01*
X106908422Y-114542155D01*
X108870000Y-114542155D01*
X108870000Y-115140000D01*
X110820000Y-115140000D01*
X111320000Y-115140000D01*
X113270000Y-115140000D01*
X113270000Y-114542172D01*
X113269999Y-114542155D01*
X113263598Y-114482627D01*
X113263596Y-114482620D01*
X113213354Y-114347913D01*
X113213350Y-114347906D01*
X113127190Y-114232812D01*
X113127187Y-114232809D01*
X113012093Y-114146649D01*
X113012086Y-114146645D01*
X112877379Y-114096403D01*
X112877372Y-114096401D01*
X112817844Y-114090000D01*
X111320000Y-114090000D01*
X111320000Y-115140000D01*
X110820000Y-115140000D01*
X110820000Y-114090000D01*
X109322155Y-114090000D01*
X109262627Y-114096401D01*
X109262620Y-114096403D01*
X109127913Y-114146645D01*
X109127906Y-114146649D01*
X109012812Y-114232809D01*
X109012809Y-114232812D01*
X108926649Y-114347906D01*
X108926645Y-114347913D01*
X108876403Y-114482620D01*
X108876401Y-114482627D01*
X108870000Y-114542155D01*
X106908422Y-114542155D01*
X107623759Y-113826819D01*
X107685082Y-113793334D01*
X107711440Y-113790500D01*
X113507680Y-113790500D01*
X113574719Y-113810185D01*
G37*
%TD.AperFunction*%
%TA.AperFunction,Conductor*%
G36*
X133834926Y-114520669D02*
G01*
X133884332Y-114570074D01*
X133899500Y-114629502D01*
X133899500Y-115282722D01*
X133879815Y-115349761D01*
X133827011Y-115395516D01*
X133757853Y-115405460D01*
X133701189Y-115381988D01*
X133641693Y-115337449D01*
X133641686Y-115337445D01*
X133506979Y-115287203D01*
X133506972Y-115287201D01*
X133447444Y-115280800D01*
X133218196Y-115280800D01*
X133151157Y-115261115D01*
X133105402Y-115208311D01*
X133095458Y-115139153D01*
X133124483Y-115075597D01*
X133130515Y-115069119D01*
X133418313Y-114781321D01*
X133418316Y-114781320D01*
X133530120Y-114669516D01*
X133553437Y-114629127D01*
X133562043Y-114619528D01*
X133581226Y-114607651D01*
X133597552Y-114592084D01*
X133611031Y-114586120D01*
X133641931Y-114574596D01*
X133647972Y-114570074D01*
X133701189Y-114530236D01*
X133766653Y-114505818D01*
X133834926Y-114520669D01*
G37*
%TD.AperFunction*%
%TA.AperFunction,Conductor*%
G36*
X125334922Y-114557797D02*
G01*
X125384330Y-114607200D01*
X125399500Y-114666632D01*
X125399500Y-115245591D01*
X125379815Y-115312630D01*
X125327011Y-115358385D01*
X125257853Y-115368329D01*
X125201190Y-115344858D01*
X125191293Y-115337449D01*
X125191286Y-115337445D01*
X125056579Y-115287203D01*
X125056572Y-115287201D01*
X124997044Y-115280800D01*
X124767796Y-115280800D01*
X124700757Y-115261115D01*
X124655002Y-115208311D01*
X124645058Y-115139153D01*
X124674083Y-115075597D01*
X124680115Y-115069119D01*
X124967913Y-114781321D01*
X124967916Y-114781320D01*
X125079720Y-114669516D01*
X125103037Y-114629127D01*
X125111643Y-114619528D01*
X125130826Y-114607651D01*
X125147152Y-114592084D01*
X125160631Y-114586120D01*
X125191531Y-114574596D01*
X125201187Y-114567366D01*
X125266649Y-114542948D01*
X125334922Y-114557797D01*
G37*
%TD.AperFunction*%
%TA.AperFunction,Conductor*%
G36*
X137791467Y-114706558D02*
G01*
X137818834Y-114708516D01*
X137818835Y-114708516D01*
X137818837Y-114708517D01*
X137855998Y-114736337D01*
X137874767Y-114750388D01*
X137874769Y-114750390D01*
X137882953Y-114772335D01*
X137899184Y-114815852D01*
X137899500Y-114824698D01*
X137899500Y-115171016D01*
X137879815Y-115238055D01*
X137827011Y-115283810D01*
X137757853Y-115293754D01*
X137732257Y-115287221D01*
X137732172Y-115287201D01*
X137672644Y-115280800D01*
X137443396Y-115280800D01*
X137376357Y-115261115D01*
X137330602Y-115208311D01*
X137320658Y-115139153D01*
X137349683Y-115075597D01*
X137355715Y-115069119D01*
X137643513Y-114781321D01*
X137643516Y-114781320D01*
X137687823Y-114737012D01*
X137740015Y-114708516D01*
X137749142Y-114703532D01*
X137749143Y-114703532D01*
X137749145Y-114703531D01*
X137791467Y-114706558D01*
G37*
%TD.AperFunction*%
%TA.AperFunction,Conductor*%
G36*
X133834926Y-111070669D02*
G01*
X133884332Y-111120074D01*
X133899500Y-111179502D01*
X133899500Y-111832722D01*
X133879815Y-111899761D01*
X133827011Y-111945516D01*
X133757853Y-111955460D01*
X133701189Y-111931988D01*
X133641693Y-111887449D01*
X133641686Y-111887445D01*
X133506979Y-111837203D01*
X133506972Y-111837201D01*
X133447444Y-111830800D01*
X133218196Y-111830800D01*
X133151157Y-111811115D01*
X133105402Y-111758311D01*
X133095458Y-111689153D01*
X133124483Y-111625597D01*
X133130515Y-111619119D01*
X133188992Y-111560642D01*
X133418313Y-111331321D01*
X133418316Y-111331320D01*
X133530120Y-111219516D01*
X133553437Y-111179127D01*
X133562043Y-111169528D01*
X133581226Y-111157651D01*
X133597552Y-111142084D01*
X133611031Y-111136120D01*
X133641931Y-111124596D01*
X133647972Y-111120074D01*
X133701189Y-111080236D01*
X133766653Y-111055818D01*
X133834926Y-111070669D01*
G37*
%TD.AperFunction*%
%TA.AperFunction,Conductor*%
G36*
X125334922Y-111107797D02*
G01*
X125384330Y-111157200D01*
X125399500Y-111216632D01*
X125399500Y-111795591D01*
X125379815Y-111862630D01*
X125327011Y-111908385D01*
X125257853Y-111918329D01*
X125201190Y-111894858D01*
X125191293Y-111887449D01*
X125191286Y-111887445D01*
X125056579Y-111837203D01*
X125056572Y-111837201D01*
X124997044Y-111830800D01*
X124767796Y-111830800D01*
X124700757Y-111811115D01*
X124655002Y-111758311D01*
X124645058Y-111689153D01*
X124674083Y-111625597D01*
X124680115Y-111619119D01*
X124738592Y-111560642D01*
X124967913Y-111331321D01*
X124967916Y-111331320D01*
X125079720Y-111219516D01*
X125103037Y-111179127D01*
X125111643Y-111169528D01*
X125130826Y-111157651D01*
X125147152Y-111142084D01*
X125160631Y-111136120D01*
X125191531Y-111124596D01*
X125201187Y-111117366D01*
X125266649Y-111092948D01*
X125334922Y-111107797D01*
G37*
%TD.AperFunction*%
%TA.AperFunction,Conductor*%
G36*
X137791467Y-111256558D02*
G01*
X137818834Y-111258516D01*
X137818835Y-111258516D01*
X137818837Y-111258517D01*
X137841817Y-111275721D01*
X137874767Y-111300388D01*
X137874769Y-111300390D01*
X137887671Y-111334985D01*
X137899184Y-111365852D01*
X137899500Y-111374698D01*
X137899500Y-111721016D01*
X137879815Y-111788055D01*
X137827011Y-111833810D01*
X137757853Y-111843754D01*
X137732257Y-111837221D01*
X137732172Y-111837201D01*
X137672644Y-111830800D01*
X137443396Y-111830800D01*
X137376357Y-111811115D01*
X137330602Y-111758311D01*
X137320658Y-111689153D01*
X137349683Y-111625597D01*
X137355715Y-111619119D01*
X137436964Y-111537870D01*
X137643513Y-111331321D01*
X137643516Y-111331320D01*
X137687823Y-111287012D01*
X137740015Y-111258516D01*
X137749142Y-111253532D01*
X137749143Y-111253532D01*
X137749145Y-111253531D01*
X137791467Y-111256558D01*
G37*
%TD.AperFunction*%
%TA.AperFunction,Conductor*%
G36*
X133834926Y-107620669D02*
G01*
X133884332Y-107670074D01*
X133899500Y-107729502D01*
X133899500Y-108382722D01*
X133879815Y-108449761D01*
X133827011Y-108495516D01*
X133757853Y-108505460D01*
X133701189Y-108481988D01*
X133641693Y-108437449D01*
X133641686Y-108437445D01*
X133506979Y-108387203D01*
X133506972Y-108387201D01*
X133447444Y-108380800D01*
X133218196Y-108380800D01*
X133151157Y-108361115D01*
X133105402Y-108308311D01*
X133095458Y-108239153D01*
X133124483Y-108175597D01*
X133130515Y-108169119D01*
X133188176Y-108111458D01*
X133418313Y-107881321D01*
X133418316Y-107881320D01*
X133530120Y-107769516D01*
X133553437Y-107729127D01*
X133562043Y-107719528D01*
X133581226Y-107707651D01*
X133597552Y-107692084D01*
X133611031Y-107686120D01*
X133641931Y-107674596D01*
X133647972Y-107670074D01*
X133701189Y-107630236D01*
X133766653Y-107605818D01*
X133834926Y-107620669D01*
G37*
%TD.AperFunction*%
%TA.AperFunction,Conductor*%
G36*
X125334922Y-107657797D02*
G01*
X125384330Y-107707200D01*
X125399500Y-107766632D01*
X125399500Y-108345591D01*
X125379815Y-108412630D01*
X125327011Y-108458385D01*
X125257853Y-108468329D01*
X125201190Y-108444858D01*
X125191293Y-108437449D01*
X125191286Y-108437445D01*
X125056579Y-108387203D01*
X125056572Y-108387201D01*
X124997044Y-108380800D01*
X124767796Y-108380800D01*
X124700757Y-108361115D01*
X124655002Y-108308311D01*
X124645058Y-108239153D01*
X124674083Y-108175597D01*
X124680115Y-108169119D01*
X124737776Y-108111458D01*
X124967913Y-107881321D01*
X124967916Y-107881320D01*
X125079720Y-107769516D01*
X125103037Y-107729127D01*
X125111643Y-107719528D01*
X125130826Y-107707651D01*
X125147152Y-107692084D01*
X125160631Y-107686120D01*
X125191531Y-107674596D01*
X125201187Y-107667366D01*
X125266649Y-107642948D01*
X125334922Y-107657797D01*
G37*
%TD.AperFunction*%
%TA.AperFunction,Conductor*%
G36*
X137791467Y-107806558D02*
G01*
X137818834Y-107808516D01*
X137818835Y-107808516D01*
X137818837Y-107808517D01*
X137856902Y-107837014D01*
X137874767Y-107850388D01*
X137874769Y-107850390D01*
X137887671Y-107884985D01*
X137899184Y-107915852D01*
X137899500Y-107924698D01*
X137899500Y-108271016D01*
X137879815Y-108338055D01*
X137827011Y-108383810D01*
X137757853Y-108393754D01*
X137732257Y-108387221D01*
X137732172Y-108387201D01*
X137672644Y-108380800D01*
X137443396Y-108380800D01*
X137376357Y-108361115D01*
X137330602Y-108308311D01*
X137320658Y-108239153D01*
X137349683Y-108175597D01*
X137355715Y-108169119D01*
X137484392Y-108040442D01*
X137643513Y-107881321D01*
X137643516Y-107881320D01*
X137687823Y-107837012D01*
X137740015Y-107808516D01*
X137749142Y-107803532D01*
X137749143Y-107803532D01*
X137749145Y-107803531D01*
X137791467Y-107806558D01*
G37*
%TD.AperFunction*%
%TA.AperFunction,Conductor*%
G36*
X129284269Y-107855644D02*
G01*
X129318834Y-107858116D01*
X129318849Y-107858127D01*
X129318869Y-107858129D01*
X129347280Y-107879411D01*
X129374767Y-107899988D01*
X129374773Y-107900005D01*
X129374790Y-107900018D01*
X129387326Y-107933661D01*
X129399184Y-107965452D01*
X129399185Y-107965485D01*
X129399187Y-107965490D01*
X129399185Y-107965496D01*
X129399500Y-107974298D01*
X129399500Y-108261812D01*
X129379815Y-108328851D01*
X129327011Y-108374606D01*
X129262246Y-108385102D01*
X129222230Y-108380800D01*
X128992996Y-108380800D01*
X128925957Y-108361115D01*
X128880202Y-108308311D01*
X128870258Y-108239153D01*
X128899283Y-108175597D01*
X128905315Y-108169119D01*
X129033992Y-108040442D01*
X129184567Y-107889866D01*
X129187846Y-107886590D01*
X129216463Y-107870975D01*
X129215128Y-107868304D01*
X129215134Y-107868301D01*
X129216469Y-107870971D01*
X129218579Y-107869820D01*
X129249142Y-107853132D01*
X129249161Y-107853133D01*
X129249179Y-107853124D01*
X129284269Y-107855644D01*
G37*
%TD.AperFunction*%
%TA.AperFunction,Conductor*%
G36*
X133834926Y-104170669D02*
G01*
X133884332Y-104220074D01*
X133899500Y-104279502D01*
X133899500Y-104932722D01*
X133879815Y-104999761D01*
X133827011Y-105045516D01*
X133757853Y-105055460D01*
X133701189Y-105031988D01*
X133641693Y-104987449D01*
X133641686Y-104987445D01*
X133506979Y-104937203D01*
X133506972Y-104937201D01*
X133447444Y-104930800D01*
X133218196Y-104930800D01*
X133151157Y-104911115D01*
X133105402Y-104858311D01*
X133095458Y-104789153D01*
X133124483Y-104725597D01*
X133130515Y-104719119D01*
X133154545Y-104695089D01*
X133418313Y-104431321D01*
X133418316Y-104431320D01*
X133530120Y-104319516D01*
X133553437Y-104279127D01*
X133562043Y-104269528D01*
X133581226Y-104257651D01*
X133597552Y-104242084D01*
X133611031Y-104236120D01*
X133641931Y-104224596D01*
X133647972Y-104220074D01*
X133701189Y-104180236D01*
X133766653Y-104155818D01*
X133834926Y-104170669D01*
G37*
%TD.AperFunction*%
%TA.AperFunction,Conductor*%
G36*
X125334922Y-104207797D02*
G01*
X125384330Y-104257200D01*
X125399500Y-104316632D01*
X125399500Y-104895591D01*
X125379815Y-104962630D01*
X125327011Y-105008385D01*
X125257853Y-105018329D01*
X125201190Y-104994858D01*
X125191293Y-104987449D01*
X125191286Y-104987445D01*
X125056579Y-104937203D01*
X125056572Y-104937201D01*
X124997044Y-104930800D01*
X124767796Y-104930800D01*
X124700757Y-104911115D01*
X124655002Y-104858311D01*
X124645058Y-104789153D01*
X124674083Y-104725597D01*
X124680115Y-104719119D01*
X124704145Y-104695089D01*
X124967913Y-104431321D01*
X124967916Y-104431320D01*
X125079720Y-104319516D01*
X125103037Y-104279127D01*
X125111643Y-104269528D01*
X125130826Y-104257651D01*
X125147152Y-104242084D01*
X125160631Y-104236120D01*
X125191531Y-104224596D01*
X125201187Y-104217366D01*
X125266649Y-104192948D01*
X125334922Y-104207797D01*
G37*
%TD.AperFunction*%
%TA.AperFunction,Conductor*%
G36*
X137791467Y-104356558D02*
G01*
X137818834Y-104358516D01*
X137818835Y-104358516D01*
X137818837Y-104358517D01*
X137856902Y-104387014D01*
X137874767Y-104400388D01*
X137874769Y-104400390D01*
X137887671Y-104434985D01*
X137899184Y-104465852D01*
X137899500Y-104474698D01*
X137899500Y-104821016D01*
X137879815Y-104888055D01*
X137827011Y-104933810D01*
X137757853Y-104943754D01*
X137732257Y-104937221D01*
X137732172Y-104937201D01*
X137672644Y-104930800D01*
X137443396Y-104930800D01*
X137376357Y-104911115D01*
X137330602Y-104858311D01*
X137320658Y-104789153D01*
X137349683Y-104725597D01*
X137355715Y-104719119D01*
X137379745Y-104695089D01*
X137643513Y-104431321D01*
X137643516Y-104431320D01*
X137687823Y-104387012D01*
X137740015Y-104358516D01*
X137749142Y-104353532D01*
X137749143Y-104353532D01*
X137749145Y-104353531D01*
X137791467Y-104356558D01*
G37*
%TD.AperFunction*%
%TA.AperFunction,Conductor*%
G36*
X129284269Y-104405644D02*
G01*
X129318834Y-104408116D01*
X129318849Y-104408127D01*
X129318869Y-104408129D01*
X129347280Y-104429411D01*
X129374767Y-104449988D01*
X129374773Y-104450005D01*
X129374790Y-104450018D01*
X129387326Y-104483661D01*
X129399184Y-104515452D01*
X129399185Y-104515485D01*
X129399187Y-104515490D01*
X129399185Y-104515496D01*
X129399500Y-104524298D01*
X129399500Y-104811812D01*
X129379815Y-104878851D01*
X129327011Y-104924606D01*
X129262246Y-104935102D01*
X129222230Y-104930800D01*
X128992996Y-104930800D01*
X128925957Y-104911115D01*
X128880202Y-104858311D01*
X128870258Y-104789153D01*
X128899283Y-104725597D01*
X128905315Y-104719119D01*
X128929345Y-104695089D01*
X129184567Y-104439866D01*
X129187846Y-104436590D01*
X129216463Y-104420975D01*
X129215128Y-104418304D01*
X129215134Y-104418301D01*
X129216469Y-104420971D01*
X129218579Y-104419820D01*
X129249142Y-104403132D01*
X129249161Y-104403133D01*
X129249179Y-104403124D01*
X129284269Y-104405644D01*
G37*
%TD.AperFunction*%
%TA.AperFunction,Conductor*%
G36*
X142942539Y-100020185D02*
G01*
X142988294Y-100072989D01*
X142999500Y-100124500D01*
X142999500Y-119875500D01*
X142979815Y-119942539D01*
X142927011Y-119988294D01*
X142875500Y-119999500D01*
X100124500Y-119999500D01*
X100057461Y-119979815D01*
X100011706Y-119927011D01*
X100000500Y-119875500D01*
X100000500Y-106442155D01*
X113470000Y-106442155D01*
X113470000Y-106740000D01*
X116020000Y-106740000D01*
X116020000Y-105990000D01*
X113922155Y-105990000D01*
X113862627Y-105996401D01*
X113862620Y-105996403D01*
X113727913Y-106046645D01*
X113727906Y-106046649D01*
X113612812Y-106132809D01*
X113612809Y-106132812D01*
X113526649Y-106247906D01*
X113526645Y-106247913D01*
X113476403Y-106382620D01*
X113476401Y-106382627D01*
X113470000Y-106442155D01*
X100000500Y-106442155D01*
X100000500Y-105437844D01*
X108870000Y-105437844D01*
X108876401Y-105497372D01*
X108876403Y-105497379D01*
X108926645Y-105632086D01*
X108926649Y-105632093D01*
X109012809Y-105747187D01*
X109012812Y-105747190D01*
X109127906Y-105833350D01*
X109127913Y-105833354D01*
X109262620Y-105883596D01*
X109262627Y-105883598D01*
X109322155Y-105889999D01*
X109322172Y-105890000D01*
X110820000Y-105890000D01*
X111320000Y-105890000D01*
X112817828Y-105890000D01*
X112817844Y-105889999D01*
X112877372Y-105883598D01*
X112877379Y-105883596D01*
X113012086Y-105833354D01*
X113012093Y-105833350D01*
X113127187Y-105747190D01*
X113127190Y-105747187D01*
X113213350Y-105632093D01*
X113213354Y-105632086D01*
X113263596Y-105497379D01*
X113263598Y-105497372D01*
X113269999Y-105437844D01*
X113270000Y-105437827D01*
X113270000Y-104840000D01*
X111320000Y-104840000D01*
X111320000Y-105890000D01*
X110820000Y-105890000D01*
X110820000Y-104840000D01*
X108870000Y-104840000D01*
X108870000Y-105437844D01*
X100000500Y-105437844D01*
X100000500Y-102280639D01*
X101436000Y-102280639D01*
X101436000Y-102479360D01*
X101467087Y-102675637D01*
X101528493Y-102864629D01*
X101528494Y-102864632D01*
X101583873Y-102973317D01*
X101618713Y-103041694D01*
X101735519Y-103202464D01*
X101876036Y-103342981D01*
X102036806Y-103459787D01*
X102123649Y-103504035D01*
X102213867Y-103550005D01*
X102213870Y-103550006D01*
X102308366Y-103580709D01*
X102402864Y-103611413D01*
X102599139Y-103642500D01*
X102599140Y-103642500D01*
X102797860Y-103642500D01*
X102797861Y-103642500D01*
X102994136Y-103611413D01*
X103183132Y-103550005D01*
X103360194Y-103459787D01*
X103520964Y-103342981D01*
X103661481Y-103202464D01*
X103778287Y-103041694D01*
X103858015Y-102885218D01*
X103905990Y-102834423D01*
X103973811Y-102817628D01*
X104039946Y-102840165D01*
X104078984Y-102885218D01*
X104158713Y-103041694D01*
X104275519Y-103202464D01*
X104416036Y-103342981D01*
X104576806Y-103459787D01*
X104663649Y-103504035D01*
X104753867Y-103550005D01*
X104753870Y-103550006D01*
X104848366Y-103580709D01*
X104942864Y-103611413D01*
X105139139Y-103642500D01*
X105139140Y-103642500D01*
X105337860Y-103642500D01*
X105337861Y-103642500D01*
X105534136Y-103611413D01*
X105723132Y-103550005D01*
X105900194Y-103459787D01*
X106060964Y-103342981D01*
X106201481Y-103202464D01*
X106318287Y-103041694D01*
X106398015Y-102885218D01*
X106445990Y-102834423D01*
X106513811Y-102817628D01*
X106579946Y-102840165D01*
X106618984Y-102885218D01*
X106698713Y-103041694D01*
X106815519Y-103202464D01*
X106956036Y-103342981D01*
X107116806Y-103459787D01*
X107203649Y-103504035D01*
X107293867Y-103550005D01*
X107293870Y-103550006D01*
X107388366Y-103580709D01*
X107482864Y-103611413D01*
X107679139Y-103642500D01*
X107679140Y-103642500D01*
X107877860Y-103642500D01*
X107877861Y-103642500D01*
X108074136Y-103611413D01*
X108263132Y-103550005D01*
X108440194Y-103459787D01*
X108600964Y-103342981D01*
X108741481Y-103202464D01*
X108858287Y-103041694D01*
X108938015Y-102885218D01*
X108985990Y-102834423D01*
X109053811Y-102817628D01*
X109119946Y-102840165D01*
X109158984Y-102885218D01*
X109203873Y-102973316D01*
X109238713Y-103041694D01*
X109293483Y-103117078D01*
X109316963Y-103182885D01*
X109301138Y-103250939D01*
X109251032Y-103299634D01*
X109236498Y-103306146D01*
X109127913Y-103346645D01*
X109127906Y-103346649D01*
X109012812Y-103432809D01*
X109012809Y-103432812D01*
X108926649Y-103547906D01*
X108926645Y-103547913D01*
X108876403Y-103682620D01*
X108876401Y-103682627D01*
X108870000Y-103742155D01*
X108870000Y-104340000D01*
X113270000Y-104340000D01*
X113270000Y-103742172D01*
X113269999Y-103742158D01*
X113263261Y-103679494D01*
X113275665Y-103610734D01*
X113323275Y-103559596D01*
X113339106Y-103551672D01*
X113343116Y-103550009D01*
X113343132Y-103550005D01*
X113520194Y-103459787D01*
X113680964Y-103342981D01*
X113821481Y-103202464D01*
X113938287Y-103041694D01*
X114018015Y-102885218D01*
X114065990Y-102834423D01*
X114133811Y-102817628D01*
X114199946Y-102840165D01*
X114238984Y-102885218D01*
X114318713Y-103041694D01*
X114435519Y-103202464D01*
X114576036Y-103342981D01*
X114736806Y-103459787D01*
X114823649Y-103504035D01*
X114913867Y-103550005D01*
X114913870Y-103550006D01*
X115008366Y-103580709D01*
X115102864Y-103611413D01*
X115299139Y-103642500D01*
X115299140Y-103642500D01*
X115497860Y-103642500D01*
X115497861Y-103642500D01*
X115694136Y-103611413D01*
X115883132Y-103550005D01*
X116060194Y-103459787D01*
X116220964Y-103342981D01*
X116361481Y-103202464D01*
X116478287Y-103041694D01*
X116558015Y-102885218D01*
X116605990Y-102834423D01*
X116673811Y-102817628D01*
X116739946Y-102840165D01*
X116778984Y-102885218D01*
X116858713Y-103041694D01*
X116975519Y-103202464D01*
X117116036Y-103342981D01*
X117276806Y-103459787D01*
X117363649Y-103504035D01*
X117453867Y-103550005D01*
X117453870Y-103550006D01*
X117548366Y-103580709D01*
X117642864Y-103611413D01*
X117839139Y-103642500D01*
X117839140Y-103642500D01*
X118037860Y-103642500D01*
X118037861Y-103642500D01*
X118234136Y-103611413D01*
X118234146Y-103611409D01*
X118236391Y-103610871D01*
X118237278Y-103610915D01*
X118238948Y-103610651D01*
X118239003Y-103611001D01*
X118306174Y-103614357D01*
X118353027Y-103643762D01*
X118863181Y-104153916D01*
X118896666Y-104215239D01*
X118899500Y-104241597D01*
X118899500Y-105900655D01*
X118879815Y-105967694D01*
X118827011Y-106013449D01*
X118757853Y-106023393D01*
X118732168Y-106016837D01*
X118677383Y-105996403D01*
X118677372Y-105996401D01*
X118617844Y-105990000D01*
X116520000Y-105990000D01*
X116520000Y-106866000D01*
X116500315Y-106933039D01*
X116447511Y-106978794D01*
X116396000Y-106990000D01*
X116270000Y-106990000D01*
X116270000Y-107116000D01*
X116250315Y-107183039D01*
X116197511Y-107228794D01*
X116146000Y-107240000D01*
X113470000Y-107240000D01*
X113470000Y-107537844D01*
X113476401Y-107597372D01*
X113476403Y-107597379D01*
X113526645Y-107732086D01*
X113526649Y-107732093D01*
X113612809Y-107847186D01*
X113670561Y-107890420D01*
X113712432Y-107946354D01*
X113717416Y-108016046D01*
X113683931Y-108077369D01*
X113670563Y-108088952D01*
X113612454Y-108132453D01*
X113612452Y-108132455D01*
X113526206Y-108247664D01*
X113526202Y-108247671D01*
X113475908Y-108382517D01*
X113469501Y-108442116D01*
X113469500Y-108442135D01*
X113469500Y-109537870D01*
X113469501Y-109537876D01*
X113475908Y-109597483D01*
X113526202Y-109732328D01*
X113526206Y-109732335D01*
X113612452Y-109847544D01*
X113612453Y-109847544D01*
X113612454Y-109847546D01*
X113641615Y-109869376D01*
X113670145Y-109890734D01*
X113712015Y-109946668D01*
X113716999Y-110016360D01*
X113683513Y-110077683D01*
X113670145Y-110089266D01*
X113612452Y-110132455D01*
X113526206Y-110247664D01*
X113526202Y-110247671D01*
X113475908Y-110382517D01*
X113469501Y-110442116D01*
X113469500Y-110442127D01*
X113469500Y-111537870D01*
X113469501Y-111537876D01*
X113475908Y-111597483D01*
X113526202Y-111732328D01*
X113526206Y-111732335D01*
X113612452Y-111847544D01*
X113612453Y-111847544D01*
X113612454Y-111847546D01*
X113630398Y-111860979D01*
X113670145Y-111890734D01*
X113683621Y-111908737D01*
X113700533Y-111923563D01*
X113704155Y-111936168D01*
X113712015Y-111946668D01*
X113713619Y-111969099D01*
X113719831Y-111990715D01*
X113716063Y-112003277D01*
X113716999Y-112016360D01*
X113706219Y-112036100D01*
X113699760Y-112057639D01*
X113687041Y-112071222D01*
X113683513Y-112077683D01*
X113676494Y-112084179D01*
X113673391Y-112086835D01*
X113612454Y-112132454D01*
X113598741Y-112150771D01*
X113588341Y-112159679D01*
X113568463Y-112168618D01*
X113551015Y-112181681D01*
X113531652Y-112185174D01*
X113524619Y-112188338D01*
X113518880Y-112187479D01*
X113507680Y-112189500D01*
X107249655Y-112189500D01*
X107095010Y-112220261D01*
X107094998Y-112220264D01*
X106949327Y-112280602D01*
X106949314Y-112280609D01*
X106818211Y-112368210D01*
X106818207Y-112368213D01*
X102865240Y-116321181D01*
X102803917Y-116354666D01*
X102777559Y-116357500D01*
X102599139Y-116357500D01*
X102533714Y-116367862D01*
X102402862Y-116388587D01*
X102213870Y-116449993D01*
X102213867Y-116449994D01*
X102036805Y-116540213D01*
X101876033Y-116657021D01*
X101735521Y-116797533D01*
X101618713Y-116958305D01*
X101528494Y-117135367D01*
X101528493Y-117135370D01*
X101467087Y-117324362D01*
X101447437Y-117448429D01*
X101436000Y-117520639D01*
X101436000Y-117719361D01*
X101440582Y-117748291D01*
X101467087Y-117915637D01*
X101528493Y-118104629D01*
X101528494Y-118104632D01*
X101584685Y-118214911D01*
X101618713Y-118281694D01*
X101735519Y-118442464D01*
X101876036Y-118582981D01*
X102036806Y-118699787D01*
X102102973Y-118733501D01*
X102213867Y-118790005D01*
X102213870Y-118790006D01*
X102257082Y-118804046D01*
X102402864Y-118851413D01*
X102599139Y-118882500D01*
X102599140Y-118882500D01*
X102797860Y-118882500D01*
X102797861Y-118882500D01*
X102994136Y-118851413D01*
X103183132Y-118790005D01*
X103360194Y-118699787D01*
X103520964Y-118582981D01*
X103661481Y-118442464D01*
X103778287Y-118281694D01*
X103858296Y-118124667D01*
X103906269Y-118073872D01*
X103974090Y-118057077D01*
X104040225Y-118079614D01*
X104079265Y-118124668D01*
X104159141Y-118281432D01*
X104186230Y-118318715D01*
X104800852Y-117704093D01*
X104824292Y-117791571D01*
X104882811Y-117892930D01*
X104965570Y-117975689D01*
X105066929Y-118034208D01*
X105154405Y-118057647D01*
X104539783Y-118672268D01*
X104539783Y-118672269D01*
X104577067Y-118699358D01*
X104754062Y-118789542D01*
X104942977Y-118850924D01*
X105139179Y-118882000D01*
X105337821Y-118882000D01*
X105534020Y-118850924D01*
X105534023Y-118850924D01*
X105722937Y-118789542D01*
X105899925Y-118699362D01*
X105937216Y-118672268D01*
X105322595Y-118057647D01*
X105410071Y-118034208D01*
X105511430Y-117975689D01*
X105594189Y-117892930D01*
X105652708Y-117791571D01*
X105676147Y-117704094D01*
X106290768Y-118318715D01*
X106317864Y-118281422D01*
X106397734Y-118124669D01*
X106445708Y-118073872D01*
X106513529Y-118057077D01*
X106579664Y-118079614D01*
X106618703Y-118124667D01*
X106698713Y-118281694D01*
X106815519Y-118442464D01*
X106956036Y-118582981D01*
X107116806Y-118699787D01*
X107182973Y-118733501D01*
X107293867Y-118790005D01*
X107293870Y-118790006D01*
X107337082Y-118804046D01*
X107482864Y-118851413D01*
X107679139Y-118882500D01*
X107679140Y-118882500D01*
X107877860Y-118882500D01*
X107877861Y-118882500D01*
X108074136Y-118851413D01*
X108263132Y-118790005D01*
X108440194Y-118699787D01*
X108600964Y-118582981D01*
X108741481Y-118442464D01*
X108858287Y-118281694D01*
X108938015Y-118125218D01*
X108985990Y-118074423D01*
X109053811Y-118057628D01*
X109119946Y-118080165D01*
X109158984Y-118125218D01*
X109238713Y-118281694D01*
X109355519Y-118442464D01*
X109496036Y-118582981D01*
X109656806Y-118699787D01*
X109722973Y-118733501D01*
X109833867Y-118790005D01*
X109833870Y-118790006D01*
X109877082Y-118804046D01*
X110022864Y-118851413D01*
X110219139Y-118882500D01*
X110219140Y-118882500D01*
X110417860Y-118882500D01*
X110417861Y-118882500D01*
X110614136Y-118851413D01*
X110803132Y-118790005D01*
X110980194Y-118699787D01*
X111140964Y-118582981D01*
X111281481Y-118442464D01*
X111398287Y-118281694D01*
X111478015Y-118125218D01*
X111525990Y-118074423D01*
X111593811Y-118057628D01*
X111659946Y-118080165D01*
X111698984Y-118125218D01*
X111778713Y-118281694D01*
X111895519Y-118442464D01*
X112036036Y-118582981D01*
X112196806Y-118699787D01*
X112262973Y-118733501D01*
X112373867Y-118790005D01*
X112373870Y-118790006D01*
X112417082Y-118804046D01*
X112562864Y-118851413D01*
X112759139Y-118882500D01*
X112759140Y-118882500D01*
X112957860Y-118882500D01*
X112957861Y-118882500D01*
X113154136Y-118851413D01*
X113343132Y-118790005D01*
X113520194Y-118699787D01*
X113680964Y-118582981D01*
X113821481Y-118442464D01*
X113938287Y-118281694D01*
X114018015Y-118125218D01*
X114065990Y-118074423D01*
X114133811Y-118057628D01*
X114199946Y-118080165D01*
X114238984Y-118125218D01*
X114318713Y-118281694D01*
X114435519Y-118442464D01*
X114576036Y-118582981D01*
X114736806Y-118699787D01*
X114802973Y-118733501D01*
X114913867Y-118790005D01*
X114913870Y-118790006D01*
X114957082Y-118804046D01*
X115102864Y-118851413D01*
X115299139Y-118882500D01*
X115299140Y-118882500D01*
X115497860Y-118882500D01*
X115497861Y-118882500D01*
X115694136Y-118851413D01*
X115883132Y-118790005D01*
X116060194Y-118699787D01*
X116220964Y-118582981D01*
X116361481Y-118442464D01*
X116478287Y-118281694D01*
X116558015Y-118125218D01*
X116605990Y-118074423D01*
X116673811Y-118057628D01*
X116739946Y-118080165D01*
X116778984Y-118125218D01*
X116858713Y-118281694D01*
X116975519Y-118442464D01*
X117116036Y-118582981D01*
X117276806Y-118699787D01*
X117342973Y-118733501D01*
X117453867Y-118790005D01*
X117453870Y-118790006D01*
X117497082Y-118804046D01*
X117642864Y-118851413D01*
X117839139Y-118882500D01*
X117839140Y-118882500D01*
X118037860Y-118882500D01*
X118037861Y-118882500D01*
X118234136Y-118851413D01*
X118423132Y-118790005D01*
X118600194Y-118699787D01*
X118760964Y-118582981D01*
X118901481Y-118442464D01*
X119018287Y-118281694D01*
X119108505Y-118104632D01*
X119169913Y-117915636D01*
X119201000Y-117719361D01*
X119201000Y-117520639D01*
X119169913Y-117324364D01*
X119169909Y-117324352D01*
X119169369Y-117322099D01*
X119169413Y-117321209D01*
X119169151Y-117319552D01*
X119169499Y-117319496D01*
X119172860Y-117252316D01*
X119202260Y-117205473D01*
X119858506Y-116549228D01*
X119858511Y-116549224D01*
X119868714Y-116539020D01*
X119868716Y-116539020D01*
X119980520Y-116427216D01*
X120059577Y-116290284D01*
X120100500Y-116137557D01*
X120100500Y-111589059D01*
X120100501Y-111589046D01*
X120100501Y-111420945D01*
X120100501Y-111420943D01*
X120059577Y-111268215D01*
X120009396Y-111181300D01*
X119980520Y-111131284D01*
X119868716Y-111019480D01*
X119868715Y-111019479D01*
X119864385Y-111015149D01*
X119864374Y-111015139D01*
X119477590Y-110628355D01*
X119477588Y-110628352D01*
X119358717Y-110509481D01*
X119358709Y-110509475D01*
X119252513Y-110448163D01*
X119252508Y-110448161D01*
X119242058Y-110442128D01*
X119221785Y-110430423D01*
X119124123Y-110404254D01*
X119120149Y-110402895D01*
X119094912Y-110385063D01*
X119068521Y-110368977D01*
X119065779Y-110364479D01*
X119063086Y-110362576D01*
X119060058Y-110355092D01*
X119044093Y-110328899D01*
X119013798Y-110247673D01*
X119013793Y-110247664D01*
X118927547Y-110132456D01*
X118927548Y-110132456D01*
X118927546Y-110132454D01*
X118869854Y-110089265D01*
X118827984Y-110033333D01*
X118823000Y-109963641D01*
X118856485Y-109902318D01*
X118869854Y-109890734D01*
X118927546Y-109847546D01*
X119013796Y-109732331D01*
X119038839Y-109665185D01*
X119059040Y-109638199D01*
X119080689Y-109609268D01*
X119080701Y-109609261D01*
X119080707Y-109609255D01*
X119111663Y-109592347D01*
X119117200Y-109590280D01*
X119231785Y-109559577D01*
X119281904Y-109530639D01*
X119368716Y-109480520D01*
X119480520Y-109368716D01*
X119480521Y-109368714D01*
X119980520Y-108868716D01*
X120059577Y-108731784D01*
X120100501Y-108579057D01*
X120100501Y-108420942D01*
X120100501Y-108413347D01*
X120100500Y-108413329D01*
X120100500Y-103862445D01*
X120100500Y-103862443D01*
X120059577Y-103709716D01*
X120043933Y-103682620D01*
X119980524Y-103572790D01*
X119980521Y-103572786D01*
X119980520Y-103572784D01*
X119868716Y-103460980D01*
X119868715Y-103460979D01*
X119864385Y-103456649D01*
X119864374Y-103456639D01*
X119202262Y-102794527D01*
X119168777Y-102733204D01*
X119169343Y-102680478D01*
X119169151Y-102680448D01*
X119169357Y-102679143D01*
X119169371Y-102677891D01*
X119169909Y-102675646D01*
X119169913Y-102675636D01*
X119201000Y-102479361D01*
X119201000Y-102280639D01*
X119169913Y-102084364D01*
X119108505Y-101895368D01*
X119108505Y-101895367D01*
X119050127Y-101780795D01*
X119037231Y-101712126D01*
X119063507Y-101647385D01*
X119120614Y-101607128D01*
X119160612Y-101600500D01*
X121138303Y-101600500D01*
X121205342Y-101620185D01*
X121225984Y-101636819D01*
X121882381Y-102293216D01*
X121915866Y-102354539D01*
X121918700Y-102380897D01*
X121918700Y-102728669D01*
X121918701Y-102728676D01*
X121925108Y-102788282D01*
X121936054Y-102817628D01*
X121943185Y-102836749D01*
X121943453Y-102837466D01*
X121948437Y-102907158D01*
X121943453Y-102924131D01*
X121925109Y-102973314D01*
X121925108Y-102973316D01*
X121919299Y-103027355D01*
X121918701Y-103032923D01*
X121918700Y-103032935D01*
X121918700Y-103828670D01*
X121918701Y-103828676D01*
X121925108Y-103888283D01*
X121975402Y-104023128D01*
X121975406Y-104023135D01*
X122003234Y-104060308D01*
X122027652Y-104125772D01*
X122018530Y-104182069D01*
X121999463Y-104228102D01*
X121999460Y-104228111D01*
X121968700Y-104382753D01*
X121968700Y-104540446D01*
X121999461Y-104695089D01*
X121999464Y-104695101D01*
X122059802Y-104840772D01*
X122059812Y-104840790D01*
X122098667Y-104898941D01*
X122119545Y-104965618D01*
X122101060Y-105032998D01*
X122069880Y-105067095D01*
X122061658Y-105073250D01*
X122061651Y-105073257D01*
X121975406Y-105188464D01*
X121975402Y-105188471D01*
X121925108Y-105323317D01*
X121918701Y-105382916D01*
X121918700Y-105382935D01*
X121918700Y-106178670D01*
X121918701Y-106178676D01*
X121925108Y-106238282D01*
X121938204Y-106273393D01*
X121943185Y-106286749D01*
X121943453Y-106287466D01*
X121948437Y-106357158D01*
X121943453Y-106374131D01*
X121925109Y-106423314D01*
X121925108Y-106423316D01*
X121919299Y-106477355D01*
X121918701Y-106482923D01*
X121918700Y-106482935D01*
X121918700Y-107278670D01*
X121918701Y-107278676D01*
X121925108Y-107338283D01*
X121975402Y-107473128D01*
X121975403Y-107473129D01*
X121975404Y-107473131D01*
X122016568Y-107528119D01*
X122040985Y-107593583D01*
X122031862Y-107649881D01*
X122007935Y-107707651D01*
X121999462Y-107728106D01*
X121999460Y-107728111D01*
X121968700Y-107882753D01*
X121968700Y-108040446D01*
X121999461Y-108195089D01*
X121999464Y-108195101D01*
X122059802Y-108340772D01*
X122059807Y-108340781D01*
X122077097Y-108366656D01*
X122097976Y-108433333D01*
X122079493Y-108500714D01*
X122061684Y-108523223D01*
X122061655Y-108523251D01*
X121975406Y-108638464D01*
X121975402Y-108638471D01*
X121925108Y-108773317D01*
X121918701Y-108832916D01*
X121918700Y-108832935D01*
X121918700Y-109628670D01*
X121918701Y-109628676D01*
X121925108Y-109688282D01*
X121938204Y-109723393D01*
X121943185Y-109736749D01*
X121943453Y-109737466D01*
X121948437Y-109807158D01*
X121943453Y-109824131D01*
X121925109Y-109873314D01*
X121925108Y-109873316D01*
X121919299Y-109927355D01*
X121918701Y-109932923D01*
X121918700Y-109932935D01*
X121918700Y-110728670D01*
X121918701Y-110728676D01*
X121925108Y-110788283D01*
X121975402Y-110923128D01*
X121975406Y-110923135D01*
X122035287Y-111003125D01*
X122059705Y-111068589D01*
X122050582Y-111124888D01*
X121999464Y-111248298D01*
X121999461Y-111248310D01*
X121968700Y-111402953D01*
X121968700Y-111560646D01*
X121999461Y-111715289D01*
X121999464Y-111715301D01*
X122062137Y-111866607D01*
X122060273Y-111867378D01*
X122072632Y-111926733D01*
X122048299Y-111991094D01*
X121975404Y-112088469D01*
X121975402Y-112088471D01*
X121925108Y-112223317D01*
X121918701Y-112282916D01*
X121918700Y-112282935D01*
X121918700Y-113078670D01*
X121918701Y-113078676D01*
X121925108Y-113138282D01*
X121938204Y-113173393D01*
X121943185Y-113186749D01*
X121943453Y-113187466D01*
X121948437Y-113257158D01*
X121943453Y-113274131D01*
X121925109Y-113323314D01*
X121925108Y-113323316D01*
X121919299Y-113377355D01*
X121918701Y-113382923D01*
X121918700Y-113382935D01*
X121918700Y-114178670D01*
X121918701Y-114178676D01*
X121925108Y-114238283D01*
X121975402Y-114373128D01*
X121975404Y-114373131D01*
X122054863Y-114479275D01*
X122079280Y-114544740D01*
X122064428Y-114613013D01*
X122060594Y-114619347D01*
X122059802Y-114620828D01*
X121999464Y-114766498D01*
X121999461Y-114766510D01*
X121968700Y-114921153D01*
X121968700Y-115078846D01*
X121999461Y-115233489D01*
X121999464Y-115233501D01*
X122045195Y-115343906D01*
X122052664Y-115413375D01*
X122029901Y-115465668D01*
X121975406Y-115538464D01*
X121975402Y-115538471D01*
X121925108Y-115673317D01*
X121918701Y-115732916D01*
X121918700Y-115732935D01*
X121918700Y-116528670D01*
X121918701Y-116528676D01*
X121925108Y-116588282D01*
X121938204Y-116623393D01*
X121943185Y-116636749D01*
X121943453Y-116637466D01*
X121948437Y-116707158D01*
X121943453Y-116724131D01*
X121925109Y-116773314D01*
X121925108Y-116773316D01*
X121918701Y-116832916D01*
X121918701Y-116832923D01*
X121918700Y-116832935D01*
X121918700Y-117628670D01*
X121918701Y-117628676D01*
X121925108Y-117688283D01*
X121975402Y-117823128D01*
X121975406Y-117823135D01*
X122061652Y-117938344D01*
X122061677Y-117938369D01*
X122061693Y-117938399D01*
X122066968Y-117945445D01*
X122065954Y-117946203D01*
X122095162Y-117999692D01*
X122090178Y-118069384D01*
X122077099Y-118094940D01*
X122059808Y-118120817D01*
X122059802Y-118120828D01*
X121999464Y-118266498D01*
X121999461Y-118266510D01*
X121968700Y-118421153D01*
X121968700Y-118578846D01*
X121999461Y-118733489D01*
X121999464Y-118733501D01*
X122059802Y-118879172D01*
X122059809Y-118879185D01*
X122147410Y-119010288D01*
X122147413Y-119010292D01*
X122258907Y-119121786D01*
X122258911Y-119121789D01*
X122390014Y-119209390D01*
X122390027Y-119209397D01*
X122535698Y-119269735D01*
X122535703Y-119269737D01*
X122674703Y-119297386D01*
X122690353Y-119300499D01*
X122690356Y-119300500D01*
X122690358Y-119300500D01*
X122848044Y-119300500D01*
X122848045Y-119300499D01*
X123002697Y-119269737D01*
X123148379Y-119209394D01*
X123279489Y-119121789D01*
X123390989Y-119010289D01*
X123478594Y-118879179D01*
X123538937Y-118733497D01*
X123569700Y-118578842D01*
X123569700Y-118421158D01*
X123569700Y-118421155D01*
X123569699Y-118421153D01*
X123551030Y-118327298D01*
X123538937Y-118266503D01*
X123508749Y-118193622D01*
X123478596Y-118120825D01*
X123478595Y-118120824D01*
X123478594Y-118120821D01*
X123461300Y-118094939D01*
X123440423Y-118028264D01*
X123458907Y-117960884D01*
X123462449Y-117955471D01*
X123471677Y-117942140D01*
X123476746Y-117938346D01*
X123562996Y-117823131D01*
X123573430Y-117795155D01*
X123582246Y-117782421D01*
X123597858Y-117769804D01*
X123609888Y-117753734D01*
X123624478Y-117748291D01*
X123636589Y-117738505D01*
X123656543Y-117736331D01*
X123675353Y-117729316D01*
X123690569Y-117732625D01*
X123706048Y-117730940D01*
X123724009Y-117739899D01*
X123743626Y-117744167D01*
X123754638Y-117755179D01*
X123768570Y-117762129D01*
X123778835Y-117779375D01*
X123793032Y-117793572D01*
X123800382Y-117809668D01*
X123805401Y-117823126D01*
X123805406Y-117823135D01*
X123891652Y-117938344D01*
X123891655Y-117938347D01*
X124006864Y-118024593D01*
X124006871Y-118024597D01*
X124141717Y-118074891D01*
X124141716Y-118074891D01*
X124148644Y-118075635D01*
X124201327Y-118081300D01*
X124997072Y-118081299D01*
X125056683Y-118074891D01*
X125191531Y-118024596D01*
X125306746Y-117938346D01*
X125392996Y-117823131D01*
X125396282Y-117814318D01*
X125438150Y-117758385D01*
X125450457Y-117750266D01*
X125465706Y-117741463D01*
X125517916Y-117711320D01*
X125629720Y-117599516D01*
X125629720Y-117599514D01*
X125639924Y-117589311D01*
X125639928Y-117589306D01*
X125932221Y-117297012D01*
X125993542Y-117263529D01*
X126063234Y-117268513D01*
X126119167Y-117310385D01*
X126143584Y-117375849D01*
X126143900Y-117384694D01*
X126143900Y-117628669D01*
X126143901Y-117628676D01*
X126150308Y-117688283D01*
X126200602Y-117823128D01*
X126200603Y-117823129D01*
X126200604Y-117823131D01*
X126269854Y-117915637D01*
X126286852Y-117938343D01*
X126286855Y-117938347D01*
X126299888Y-117948103D01*
X126336738Y-117975689D01*
X126344210Y-117981282D01*
X126346946Y-117984937D01*
X126351103Y-117986836D01*
X126367693Y-118012651D01*
X126386082Y-118037215D01*
X126387097Y-118042845D01*
X126388877Y-118045614D01*
X126393900Y-118080549D01*
X126393900Y-118145434D01*
X126374215Y-118212473D01*
X126373002Y-118214325D01*
X126285009Y-118346014D01*
X126285002Y-118346027D01*
X126224664Y-118491698D01*
X126224661Y-118491710D01*
X126193900Y-118646353D01*
X126193900Y-118804046D01*
X126224661Y-118958689D01*
X126224664Y-118958701D01*
X126285002Y-119104372D01*
X126285009Y-119104385D01*
X126372610Y-119235488D01*
X126372613Y-119235492D01*
X126484107Y-119346986D01*
X126484111Y-119346989D01*
X126615214Y-119434590D01*
X126615227Y-119434597D01*
X126715426Y-119476100D01*
X126760903Y-119494937D01*
X126915553Y-119525699D01*
X126915556Y-119525700D01*
X126915558Y-119525700D01*
X127073244Y-119525700D01*
X127073245Y-119525699D01*
X127227897Y-119494937D01*
X127340566Y-119448267D01*
X127373572Y-119434597D01*
X127373572Y-119434596D01*
X127373579Y-119434594D01*
X127504689Y-119346989D01*
X127616189Y-119235489D01*
X127703794Y-119104379D01*
X127764137Y-118958697D01*
X127794900Y-118804042D01*
X127794900Y-118646358D01*
X127794900Y-118646355D01*
X127794899Y-118646353D01*
X127781471Y-118578846D01*
X127764137Y-118491703D01*
X127760099Y-118481955D01*
X127703797Y-118346027D01*
X127703790Y-118346014D01*
X127615798Y-118214325D01*
X127610147Y-118196278D01*
X127599923Y-118180369D01*
X127595471Y-118149407D01*
X127594920Y-118147647D01*
X127594900Y-118145434D01*
X127594900Y-118080549D01*
X127614585Y-118013510D01*
X127644590Y-117981282D01*
X127701946Y-117938346D01*
X127788196Y-117823131D01*
X127791482Y-117814321D01*
X127793218Y-117809668D01*
X127835088Y-117753734D01*
X127900553Y-117729316D01*
X127968826Y-117744167D01*
X128018232Y-117793572D01*
X128025582Y-117809668D01*
X128030601Y-117823126D01*
X128030606Y-117823135D01*
X128116852Y-117938344D01*
X128116855Y-117938347D01*
X128232064Y-118024593D01*
X128232071Y-118024597D01*
X128366917Y-118074891D01*
X128366916Y-118074891D01*
X128373844Y-118075635D01*
X128426527Y-118081300D01*
X129222272Y-118081299D01*
X129281883Y-118074891D01*
X129416731Y-118024596D01*
X129531946Y-117938346D01*
X129618196Y-117823131D01*
X129621482Y-117814318D01*
X129663350Y-117758385D01*
X129675657Y-117750266D01*
X129690906Y-117741463D01*
X129743116Y-117711320D01*
X129854920Y-117599516D01*
X129854920Y-117599514D01*
X129865124Y-117589311D01*
X129865128Y-117589306D01*
X130157421Y-117297012D01*
X130218742Y-117263529D01*
X130288434Y-117268513D01*
X130344367Y-117310385D01*
X130368784Y-117375849D01*
X130369100Y-117384694D01*
X130369100Y-117628669D01*
X130369101Y-117628676D01*
X130375508Y-117688283D01*
X130425802Y-117823128D01*
X130425806Y-117823135D01*
X130512054Y-117938346D01*
X130516566Y-117942859D01*
X130550048Y-118004184D01*
X130545061Y-118073875D01*
X130531985Y-118099424D01*
X130510210Y-118132014D01*
X130510202Y-118132028D01*
X130449864Y-118277698D01*
X130449861Y-118277710D01*
X130419100Y-118432353D01*
X130419100Y-118590046D01*
X130449861Y-118744689D01*
X130449864Y-118744701D01*
X130510202Y-118890372D01*
X130510209Y-118890385D01*
X130597810Y-119021488D01*
X130597813Y-119021492D01*
X130709307Y-119132986D01*
X130709311Y-119132989D01*
X130840414Y-119220590D01*
X130840427Y-119220597D01*
X130959066Y-119269738D01*
X130986103Y-119280937D01*
X131140753Y-119311699D01*
X131140756Y-119311700D01*
X131140758Y-119311700D01*
X131298444Y-119311700D01*
X131298445Y-119311699D01*
X131453097Y-119280937D01*
X131598779Y-119220594D01*
X131729889Y-119132989D01*
X131841389Y-119021489D01*
X131928994Y-118890379D01*
X131989337Y-118744697D01*
X132020100Y-118590042D01*
X132020100Y-118432358D01*
X132020100Y-118432355D01*
X132020099Y-118432353D01*
X132017871Y-118421153D01*
X131989337Y-118277703D01*
X131954510Y-118193622D01*
X131928997Y-118132027D01*
X131928992Y-118132018D01*
X131924449Y-118125219D01*
X131907215Y-118099427D01*
X131886337Y-118032752D01*
X131904820Y-117965371D01*
X131908734Y-117959424D01*
X131919463Y-117944097D01*
X131927146Y-117938346D01*
X132013396Y-117823131D01*
X132023945Y-117794846D01*
X132033017Y-117781888D01*
X132048448Y-117769550D01*
X132060288Y-117753734D01*
X132075177Y-117748180D01*
X132087589Y-117738257D01*
X132107241Y-117736220D01*
X132125753Y-117729316D01*
X132141281Y-117732693D01*
X132157087Y-117731056D01*
X132174718Y-117739967D01*
X132194026Y-117744167D01*
X132205264Y-117755404D01*
X132219445Y-117762572D01*
X132229459Y-117779600D01*
X132243432Y-117793572D01*
X132250782Y-117809668D01*
X132255801Y-117823126D01*
X132255806Y-117823135D01*
X132342052Y-117938344D01*
X132342055Y-117938347D01*
X132457264Y-118024593D01*
X132457271Y-118024597D01*
X132592117Y-118074891D01*
X132592116Y-118074891D01*
X132599044Y-118075635D01*
X132651727Y-118081300D01*
X133447472Y-118081299D01*
X133507083Y-118074891D01*
X133641931Y-118024596D01*
X133757146Y-117938346D01*
X133843396Y-117823131D01*
X133846682Y-117814318D01*
X133888550Y-117758385D01*
X133900857Y-117750266D01*
X133916106Y-117741463D01*
X133968316Y-117711320D01*
X134080120Y-117599516D01*
X134080120Y-117599514D01*
X134090324Y-117589311D01*
X134090328Y-117589306D01*
X134382621Y-117297012D01*
X134443942Y-117263529D01*
X134513634Y-117268513D01*
X134569567Y-117310385D01*
X134593984Y-117375849D01*
X134594300Y-117384694D01*
X134594300Y-117628669D01*
X134594301Y-117628676D01*
X134600708Y-117688283D01*
X134651002Y-117823128D01*
X134651003Y-117823129D01*
X134651004Y-117823131D01*
X134720254Y-117915637D01*
X134737252Y-117938343D01*
X134737255Y-117938347D01*
X134750288Y-117948103D01*
X134787138Y-117975689D01*
X134794610Y-117981282D01*
X134797346Y-117984937D01*
X134801503Y-117986836D01*
X134818093Y-118012651D01*
X134836482Y-118037215D01*
X134837497Y-118042845D01*
X134839277Y-118045614D01*
X134844300Y-118080549D01*
X134844300Y-118095834D01*
X134824615Y-118162873D01*
X134823402Y-118164725D01*
X134735409Y-118296414D01*
X134735402Y-118296427D01*
X134675064Y-118442098D01*
X134675061Y-118442110D01*
X134644300Y-118596753D01*
X134644300Y-118754446D01*
X134675061Y-118909089D01*
X134675064Y-118909101D01*
X134735402Y-119054772D01*
X134735409Y-119054785D01*
X134823010Y-119185888D01*
X134823013Y-119185892D01*
X134934507Y-119297386D01*
X134934511Y-119297389D01*
X135065614Y-119384990D01*
X135065627Y-119384997D01*
X135185357Y-119434590D01*
X135211303Y-119445337D01*
X135365953Y-119476099D01*
X135365956Y-119476100D01*
X135365958Y-119476100D01*
X135523644Y-119476100D01*
X135523645Y-119476099D01*
X135678297Y-119445337D01*
X135823979Y-119384994D01*
X135955089Y-119297389D01*
X136066589Y-119185889D01*
X136154194Y-119054779D01*
X136214537Y-118909097D01*
X136245300Y-118754442D01*
X136245300Y-118596758D01*
X136245300Y-118596755D01*
X136245299Y-118596753D01*
X136241736Y-118578842D01*
X136214537Y-118442103D01*
X136210499Y-118432355D01*
X136154197Y-118296427D01*
X136154190Y-118296414D01*
X136066198Y-118164725D01*
X136060547Y-118146678D01*
X136050323Y-118130769D01*
X136045871Y-118099807D01*
X136045320Y-118098047D01*
X136045300Y-118095834D01*
X136045300Y-118080549D01*
X136064985Y-118013510D01*
X136094990Y-117981282D01*
X136152346Y-117938346D01*
X136238596Y-117823131D01*
X136241882Y-117814321D01*
X136243618Y-117809668D01*
X136285488Y-117753734D01*
X136350953Y-117729316D01*
X136419226Y-117744167D01*
X136468632Y-117793572D01*
X136475982Y-117809668D01*
X136481001Y-117823126D01*
X136481006Y-117823135D01*
X136567252Y-117938344D01*
X136567255Y-117938347D01*
X136682464Y-118024593D01*
X136682471Y-118024597D01*
X136817317Y-118074891D01*
X136817316Y-118074891D01*
X136824244Y-118075635D01*
X136876927Y-118081300D01*
X137672672Y-118081299D01*
X137732283Y-118074891D01*
X137867131Y-118024596D01*
X137982346Y-117938346D01*
X138068596Y-117823131D01*
X138071882Y-117814318D01*
X138113750Y-117758385D01*
X138126057Y-117750266D01*
X138141306Y-117741463D01*
X138193516Y-117711320D01*
X138305320Y-117599516D01*
X138305320Y-117599514D01*
X138315524Y-117589311D01*
X138315528Y-117589306D01*
X138607821Y-117297012D01*
X138669142Y-117263529D01*
X138738834Y-117268513D01*
X138794767Y-117310385D01*
X138819184Y-117375849D01*
X138819500Y-117384694D01*
X138819500Y-117628669D01*
X138819501Y-117628676D01*
X138825908Y-117688283D01*
X138876202Y-117823128D01*
X138876203Y-117823129D01*
X138876204Y-117823131D01*
X138945454Y-117915637D01*
X138962452Y-117938343D01*
X138962454Y-117938346D01*
X138975488Y-117948103D01*
X139017358Y-118004037D01*
X139022342Y-118073729D01*
X139004278Y-118116260D01*
X138960609Y-118181614D01*
X138960602Y-118181627D01*
X138900264Y-118327298D01*
X138900261Y-118327310D01*
X138869500Y-118481953D01*
X138869500Y-118639646D01*
X138900261Y-118794289D01*
X138900264Y-118794301D01*
X138960602Y-118939972D01*
X138960609Y-118939985D01*
X139048210Y-119071088D01*
X139048213Y-119071092D01*
X139159707Y-119182586D01*
X139159711Y-119182589D01*
X139290814Y-119270190D01*
X139290827Y-119270197D01*
X139391026Y-119311700D01*
X139436503Y-119330537D01*
X139591153Y-119361299D01*
X139591156Y-119361300D01*
X139591158Y-119361300D01*
X139748844Y-119361300D01*
X139748845Y-119361299D01*
X139903497Y-119330537D01*
X140016166Y-119283867D01*
X140049172Y-119270197D01*
X140049172Y-119270196D01*
X140049179Y-119270194D01*
X140180289Y-119182589D01*
X140291789Y-119071089D01*
X140379394Y-118939979D01*
X140439737Y-118794297D01*
X140470500Y-118639642D01*
X140470500Y-118481958D01*
X140470500Y-118481955D01*
X140470499Y-118481953D01*
X140439738Y-118327310D01*
X140439737Y-118327303D01*
X140426948Y-118296427D01*
X140379397Y-118181627D01*
X140379393Y-118181620D01*
X140356693Y-118147647D01*
X140335720Y-118116258D01*
X140314843Y-118049583D01*
X140333327Y-117982203D01*
X140339721Y-117972838D01*
X140350350Y-117958704D01*
X140377546Y-117938346D01*
X140463796Y-117823131D01*
X140475097Y-117792830D01*
X140485898Y-117778469D01*
X140500086Y-117767896D01*
X140510688Y-117753734D01*
X140527517Y-117747456D01*
X140541924Y-117736722D01*
X140559576Y-117735499D01*
X140576153Y-117729316D01*
X140593707Y-117733134D01*
X140611627Y-117731893D01*
X140627135Y-117740405D01*
X140644426Y-117744167D01*
X140657129Y-117756870D01*
X140672876Y-117765514D01*
X140681320Y-117781060D01*
X140693832Y-117793572D01*
X140701182Y-117809668D01*
X140706201Y-117823126D01*
X140706206Y-117823135D01*
X140792452Y-117938344D01*
X140792455Y-117938347D01*
X140907664Y-118024593D01*
X140907671Y-118024597D01*
X141042517Y-118074891D01*
X141042516Y-118074891D01*
X141049444Y-118075635D01*
X141102127Y-118081300D01*
X141897872Y-118081299D01*
X141957483Y-118074891D01*
X142092331Y-118024596D01*
X142207546Y-117938346D01*
X142293796Y-117823131D01*
X142344091Y-117688283D01*
X142350500Y-117628673D01*
X142350499Y-116832928D01*
X142344091Y-116773317D01*
X142340052Y-116762489D01*
X142325480Y-116723418D01*
X142320495Y-116653727D01*
X142325480Y-116636749D01*
X142343597Y-116588175D01*
X142343598Y-116588172D01*
X142349999Y-116528644D01*
X142350000Y-116528627D01*
X142350000Y-116380800D01*
X141909167Y-116380800D01*
X141901188Y-116380372D01*
X141901183Y-116380478D01*
X141897879Y-116380300D01*
X141897873Y-116380300D01*
X141897866Y-116380300D01*
X141624000Y-116380300D01*
X141556961Y-116360615D01*
X141511206Y-116307811D01*
X141500000Y-116256300D01*
X141500000Y-116004800D01*
X141519685Y-115937761D01*
X141572489Y-115892006D01*
X141624000Y-115880800D01*
X142350000Y-115880800D01*
X142350000Y-115732972D01*
X142349999Y-115732955D01*
X142343598Y-115673427D01*
X142343596Y-115673420D01*
X142293354Y-115538713D01*
X142293350Y-115538706D01*
X142207190Y-115423612D01*
X142207187Y-115423609D01*
X142092093Y-115337449D01*
X142092086Y-115337445D01*
X141957379Y-115287203D01*
X141957372Y-115287201D01*
X141897844Y-115280800D01*
X141668596Y-115280800D01*
X141601557Y-115261115D01*
X141555802Y-115208311D01*
X141545858Y-115139153D01*
X141574883Y-115075597D01*
X141580915Y-115069119D01*
X141868713Y-114781321D01*
X141868716Y-114781320D01*
X141980520Y-114669516D01*
X142003837Y-114629127D01*
X142012443Y-114619528D01*
X142031626Y-114607651D01*
X142047952Y-114592084D01*
X142061431Y-114586120D01*
X142092331Y-114574596D01*
X142101987Y-114567368D01*
X142135644Y-114542172D01*
X142207546Y-114488346D01*
X142293796Y-114373131D01*
X142344091Y-114238283D01*
X142350500Y-114178673D01*
X142350499Y-113382928D01*
X142344091Y-113323317D01*
X142325480Y-113273418D01*
X142320495Y-113203727D01*
X142325480Y-113186749D01*
X142343597Y-113138175D01*
X142343598Y-113138172D01*
X142349999Y-113078644D01*
X142350000Y-113078627D01*
X142350000Y-112930800D01*
X141909167Y-112930800D01*
X141901188Y-112930372D01*
X141901183Y-112930478D01*
X141897879Y-112930300D01*
X141897873Y-112930300D01*
X141897866Y-112930300D01*
X141624000Y-112930300D01*
X141556961Y-112910615D01*
X141511206Y-112857811D01*
X141500000Y-112806300D01*
X141500000Y-112554800D01*
X141519685Y-112487761D01*
X141572489Y-112442006D01*
X141624000Y-112430800D01*
X142350000Y-112430800D01*
X142350000Y-112282972D01*
X142349999Y-112282955D01*
X142343598Y-112223427D01*
X142343596Y-112223420D01*
X142293354Y-112088713D01*
X142293350Y-112088706D01*
X142207190Y-111973612D01*
X142207187Y-111973609D01*
X142092093Y-111887449D01*
X142092086Y-111887445D01*
X141957379Y-111837203D01*
X141957372Y-111837201D01*
X141897844Y-111830800D01*
X141668596Y-111830800D01*
X141601557Y-111811115D01*
X141555802Y-111758311D01*
X141545858Y-111689153D01*
X141574883Y-111625597D01*
X141580915Y-111619119D01*
X141639392Y-111560642D01*
X141868713Y-111331321D01*
X141868716Y-111331320D01*
X141980520Y-111219516D01*
X142003837Y-111179127D01*
X142012443Y-111169528D01*
X142031626Y-111157651D01*
X142047952Y-111142084D01*
X142061431Y-111136120D01*
X142092331Y-111124596D01*
X142101987Y-111117368D01*
X142164368Y-111070669D01*
X142207546Y-111038346D01*
X142293796Y-110923131D01*
X142344091Y-110788283D01*
X142350500Y-110728673D01*
X142350499Y-109932928D01*
X142344091Y-109873317D01*
X142325480Y-109823418D01*
X142320495Y-109753727D01*
X142325480Y-109736749D01*
X142343597Y-109688175D01*
X142343598Y-109688172D01*
X142349999Y-109628644D01*
X142350000Y-109628627D01*
X142350000Y-109480800D01*
X141909167Y-109480800D01*
X141901188Y-109480372D01*
X141901183Y-109480478D01*
X141897879Y-109480300D01*
X141897873Y-109480300D01*
X141897866Y-109480300D01*
X141624000Y-109480300D01*
X141556961Y-109460615D01*
X141511206Y-109407811D01*
X141500000Y-109356300D01*
X141500000Y-109104800D01*
X141519685Y-109037761D01*
X141572489Y-108992006D01*
X141624000Y-108980800D01*
X142350000Y-108980800D01*
X142350000Y-108832972D01*
X142349999Y-108832955D01*
X142343598Y-108773427D01*
X142343596Y-108773420D01*
X142293354Y-108638713D01*
X142293350Y-108638706D01*
X142207190Y-108523612D01*
X142207187Y-108523609D01*
X142092093Y-108437449D01*
X142092086Y-108437445D01*
X141957379Y-108387203D01*
X141957372Y-108387201D01*
X141897844Y-108380800D01*
X141668596Y-108380800D01*
X141601557Y-108361115D01*
X141555802Y-108308311D01*
X141545858Y-108239153D01*
X141574883Y-108175597D01*
X141580915Y-108169119D01*
X141638576Y-108111458D01*
X141868713Y-107881321D01*
X141868716Y-107881320D01*
X141980520Y-107769516D01*
X142003837Y-107729127D01*
X142012443Y-107719528D01*
X142031626Y-107707651D01*
X142047952Y-107692084D01*
X142061431Y-107686120D01*
X142092331Y-107674596D01*
X142101987Y-107667368D01*
X142164368Y-107620669D01*
X142207546Y-107588346D01*
X142293796Y-107473131D01*
X142344091Y-107338283D01*
X142350500Y-107278673D01*
X142350499Y-106482928D01*
X142344091Y-106423317D01*
X142325480Y-106373418D01*
X142320495Y-106303727D01*
X142325480Y-106286749D01*
X142343597Y-106238175D01*
X142343598Y-106238172D01*
X142349999Y-106178644D01*
X142350000Y-106178627D01*
X142350000Y-106030800D01*
X141909167Y-106030800D01*
X141901188Y-106030372D01*
X141901183Y-106030478D01*
X141897879Y-106030300D01*
X141897873Y-106030300D01*
X141897866Y-106030300D01*
X141624000Y-106030300D01*
X141556961Y-106010615D01*
X141511206Y-105957811D01*
X141500000Y-105906300D01*
X141500000Y-105654800D01*
X141519685Y-105587761D01*
X141572489Y-105542006D01*
X141624000Y-105530800D01*
X142350000Y-105530800D01*
X142350000Y-105382972D01*
X142349999Y-105382955D01*
X142343598Y-105323427D01*
X142343596Y-105323420D01*
X142293354Y-105188713D01*
X142293350Y-105188706D01*
X142207190Y-105073612D01*
X142207187Y-105073609D01*
X142092093Y-104987449D01*
X142092086Y-104987445D01*
X141957379Y-104937203D01*
X141957372Y-104937201D01*
X141897844Y-104930800D01*
X141668596Y-104930800D01*
X141601557Y-104911115D01*
X141555802Y-104858311D01*
X141545858Y-104789153D01*
X141574883Y-104725597D01*
X141580915Y-104719119D01*
X141604945Y-104695089D01*
X141868713Y-104431321D01*
X141868716Y-104431320D01*
X141980520Y-104319516D01*
X142003837Y-104279127D01*
X142012443Y-104269528D01*
X142031626Y-104257651D01*
X142047952Y-104242084D01*
X142061431Y-104236120D01*
X142092331Y-104224596D01*
X142101987Y-104217368D01*
X142186747Y-104153916D01*
X142207546Y-104138346D01*
X142293796Y-104023131D01*
X142344091Y-103888283D01*
X142350500Y-103828673D01*
X142350499Y-103032928D01*
X142344091Y-102973317D01*
X142325480Y-102923418D01*
X142320495Y-102853727D01*
X142325480Y-102836749D01*
X142343597Y-102788175D01*
X142343598Y-102788172D01*
X142349999Y-102728644D01*
X142350000Y-102728627D01*
X142350000Y-102580800D01*
X141909167Y-102580800D01*
X141901188Y-102580372D01*
X141901183Y-102580478D01*
X141897879Y-102580300D01*
X141897873Y-102580300D01*
X141897866Y-102580300D01*
X141624000Y-102580300D01*
X141556961Y-102560615D01*
X141511206Y-102507811D01*
X141500000Y-102456300D01*
X141500000Y-102330800D01*
X141374000Y-102330800D01*
X141306961Y-102311115D01*
X141261206Y-102258311D01*
X141250000Y-102206800D01*
X141250000Y-102080800D01*
X141750000Y-102080800D01*
X142350000Y-102080800D01*
X142350000Y-101932972D01*
X142349999Y-101932955D01*
X142343598Y-101873427D01*
X142343596Y-101873420D01*
X142293354Y-101738713D01*
X142293350Y-101738706D01*
X142207190Y-101623612D01*
X142207187Y-101623609D01*
X142092093Y-101537449D01*
X142092086Y-101537445D01*
X141957379Y-101487203D01*
X141957372Y-101487201D01*
X141897844Y-101480800D01*
X141750000Y-101480800D01*
X141750000Y-102080800D01*
X141250000Y-102080800D01*
X141250000Y-101480800D01*
X141102155Y-101480800D01*
X141042627Y-101487201D01*
X141042620Y-101487203D01*
X140907913Y-101537445D01*
X140907906Y-101537449D01*
X140792812Y-101623609D01*
X140792809Y-101623612D01*
X140706649Y-101738706D01*
X140706646Y-101738712D01*
X140701447Y-101752651D01*
X140659574Y-101808583D01*
X140594109Y-101832998D01*
X140525836Y-101818145D01*
X140476432Y-101768738D01*
X140469083Y-101752645D01*
X140467085Y-101747289D01*
X140463796Y-101738469D01*
X140463795Y-101738468D01*
X140463793Y-101738464D01*
X140377547Y-101623255D01*
X140377544Y-101623252D01*
X140262335Y-101537006D01*
X140262328Y-101537002D01*
X140127482Y-101486708D01*
X140127483Y-101486708D01*
X140067883Y-101480301D01*
X140067881Y-101480300D01*
X140067873Y-101480300D01*
X140067864Y-101480300D01*
X139272129Y-101480300D01*
X139272123Y-101480301D01*
X139212516Y-101486708D01*
X139077671Y-101537002D01*
X139077664Y-101537006D01*
X138962457Y-101623251D01*
X138962451Y-101623257D01*
X138919515Y-101680612D01*
X138863581Y-101722482D01*
X138828934Y-101728732D01*
X138829001Y-101729239D01*
X138820939Y-101730300D01*
X138790454Y-101738468D01*
X138790455Y-101738469D01*
X138668214Y-101771223D01*
X138668209Y-101771226D01*
X138531290Y-101850275D01*
X138531282Y-101850281D01*
X138336481Y-102045083D01*
X138275158Y-102078568D01*
X138205466Y-102073584D01*
X138149533Y-102031712D01*
X138125116Y-101966248D01*
X138124800Y-101957402D01*
X138124800Y-101932972D01*
X138124799Y-101932955D01*
X138118398Y-101873427D01*
X138118396Y-101873420D01*
X138068154Y-101738713D01*
X138068150Y-101738706D01*
X137981990Y-101623612D01*
X137981987Y-101623609D01*
X137866893Y-101537449D01*
X137866886Y-101537445D01*
X137732179Y-101487203D01*
X137732172Y-101487201D01*
X137672644Y-101480800D01*
X137524800Y-101480800D01*
X137524800Y-102206800D01*
X137505115Y-102273839D01*
X137452311Y-102319594D01*
X137400800Y-102330800D01*
X137148800Y-102330800D01*
X137081761Y-102311115D01*
X137036006Y-102258311D01*
X137024800Y-102206800D01*
X137024800Y-101480800D01*
X136876955Y-101480800D01*
X136817427Y-101487201D01*
X136817420Y-101487203D01*
X136682713Y-101537445D01*
X136682706Y-101537449D01*
X136567612Y-101623609D01*
X136567609Y-101623612D01*
X136481449Y-101738706D01*
X136481446Y-101738712D01*
X136476247Y-101752651D01*
X136434374Y-101808583D01*
X136368909Y-101832998D01*
X136300636Y-101818145D01*
X136251232Y-101768738D01*
X136243883Y-101752645D01*
X136241885Y-101747289D01*
X136238596Y-101738469D01*
X136238595Y-101738468D01*
X136238593Y-101738464D01*
X136152347Y-101623255D01*
X136152344Y-101623252D01*
X136037135Y-101537006D01*
X136037128Y-101537002D01*
X135902282Y-101486708D01*
X135902283Y-101486708D01*
X135842683Y-101480301D01*
X135842681Y-101480300D01*
X135842673Y-101480300D01*
X135842664Y-101480300D01*
X135046929Y-101480300D01*
X135046923Y-101480301D01*
X134987316Y-101486708D01*
X134852471Y-101537002D01*
X134852464Y-101537006D01*
X134737256Y-101623252D01*
X134737255Y-101623253D01*
X134737254Y-101623254D01*
X134651008Y-101738464D01*
X134651002Y-101738472D01*
X134651000Y-101738475D01*
X134647713Y-101747289D01*
X134605839Y-101803220D01*
X134593536Y-101811335D01*
X134526087Y-101850278D01*
X134526081Y-101850282D01*
X134124217Y-102252145D01*
X134124218Y-102252146D01*
X134111282Y-102265081D01*
X134049963Y-102298567D01*
X133980271Y-102293585D01*
X133924336Y-102251716D01*
X133899916Y-102186253D01*
X133899600Y-102177402D01*
X133899600Y-101932972D01*
X133899599Y-101932955D01*
X133893198Y-101873427D01*
X133893196Y-101873420D01*
X133842954Y-101738713D01*
X133842950Y-101738706D01*
X133756790Y-101623612D01*
X133756787Y-101623609D01*
X133641693Y-101537449D01*
X133641686Y-101537445D01*
X133506979Y-101487203D01*
X133506972Y-101487201D01*
X133447444Y-101480800D01*
X133299600Y-101480800D01*
X133299600Y-102206800D01*
X133279915Y-102273839D01*
X133227111Y-102319594D01*
X133175600Y-102330800D01*
X132923600Y-102330800D01*
X132856561Y-102311115D01*
X132810806Y-102258311D01*
X132799600Y-102206800D01*
X132799600Y-101480800D01*
X132651755Y-101480800D01*
X132592227Y-101487201D01*
X132592220Y-101487203D01*
X132457513Y-101537445D01*
X132457506Y-101537449D01*
X132342412Y-101623609D01*
X132342409Y-101623612D01*
X132256249Y-101738706D01*
X132256246Y-101738712D01*
X132251047Y-101752651D01*
X132209174Y-101808583D01*
X132143709Y-101832998D01*
X132075436Y-101818145D01*
X132026032Y-101768738D01*
X132018683Y-101752645D01*
X132016685Y-101747289D01*
X132013396Y-101738469D01*
X132013395Y-101738468D01*
X132013393Y-101738464D01*
X131927147Y-101623255D01*
X131927144Y-101623252D01*
X131811935Y-101537006D01*
X131811928Y-101537002D01*
X131677082Y-101486708D01*
X131677083Y-101486708D01*
X131617483Y-101480301D01*
X131617481Y-101480300D01*
X131617473Y-101480300D01*
X131617464Y-101480300D01*
X130821729Y-101480300D01*
X130821723Y-101480301D01*
X130762116Y-101486708D01*
X130627271Y-101537002D01*
X130627264Y-101537006D01*
X130512055Y-101623252D01*
X130512052Y-101623255D01*
X130425806Y-101738464D01*
X130425804Y-101738469D01*
X130375508Y-101873317D01*
X130369101Y-101932916D01*
X130369100Y-101932935D01*
X130369100Y-101961102D01*
X130349415Y-102028141D01*
X130332781Y-102048783D01*
X129825263Y-102556301D01*
X129763940Y-102589786D01*
X129694248Y-102584802D01*
X129688021Y-102580800D01*
X129233567Y-102580800D01*
X129225588Y-102580372D01*
X129225583Y-102580478D01*
X129222279Y-102580300D01*
X129222273Y-102580300D01*
X129222266Y-102580300D01*
X128948400Y-102580300D01*
X128881361Y-102560615D01*
X128835606Y-102507811D01*
X128824400Y-102456300D01*
X128824400Y-102330800D01*
X128698400Y-102330800D01*
X128631361Y-102311115D01*
X128585606Y-102258311D01*
X128574400Y-102206800D01*
X128574400Y-102080800D01*
X129074400Y-102080800D01*
X129674400Y-102080800D01*
X129674400Y-101932972D01*
X129674399Y-101932955D01*
X129667998Y-101873427D01*
X129667996Y-101873420D01*
X129617754Y-101738713D01*
X129617750Y-101738706D01*
X129531590Y-101623612D01*
X129531587Y-101623609D01*
X129416493Y-101537449D01*
X129416486Y-101537445D01*
X129281779Y-101487203D01*
X129281772Y-101487201D01*
X129222244Y-101480800D01*
X129074400Y-101480800D01*
X129074400Y-102080800D01*
X128574400Y-102080800D01*
X128574400Y-101480800D01*
X128426555Y-101480800D01*
X128367027Y-101487201D01*
X128367020Y-101487203D01*
X128232313Y-101537445D01*
X128232306Y-101537449D01*
X128117212Y-101623609D01*
X128117209Y-101623612D01*
X128031049Y-101738706D01*
X128031046Y-101738712D01*
X128025847Y-101752651D01*
X127983974Y-101808583D01*
X127918509Y-101832998D01*
X127850236Y-101818145D01*
X127800832Y-101768738D01*
X127793483Y-101752645D01*
X127791485Y-101747289D01*
X127788196Y-101738469D01*
X127788195Y-101738468D01*
X127788193Y-101738464D01*
X127701947Y-101623255D01*
X127701944Y-101623252D01*
X127586735Y-101537006D01*
X127586728Y-101537002D01*
X127451882Y-101486708D01*
X127451883Y-101486708D01*
X127392283Y-101480301D01*
X127392281Y-101480300D01*
X127392273Y-101480300D01*
X127392264Y-101480300D01*
X126596529Y-101480300D01*
X126596523Y-101480301D01*
X126536916Y-101486708D01*
X126402071Y-101537002D01*
X126402064Y-101537006D01*
X126286855Y-101623252D01*
X126197313Y-101742864D01*
X126160047Y-101775939D01*
X126031287Y-101850277D01*
X126031282Y-101850281D01*
X125660881Y-102220683D01*
X125599558Y-102254168D01*
X125529866Y-102249184D01*
X125473933Y-102207312D01*
X125449516Y-102141848D01*
X125449200Y-102133002D01*
X125449200Y-101932972D01*
X125449199Y-101932955D01*
X125442798Y-101873427D01*
X125442796Y-101873420D01*
X125392554Y-101738713D01*
X125392550Y-101738706D01*
X125306390Y-101623612D01*
X125306387Y-101623609D01*
X125191293Y-101537449D01*
X125191286Y-101537445D01*
X125056579Y-101487203D01*
X125056572Y-101487201D01*
X124997044Y-101480800D01*
X124849200Y-101480800D01*
X124849200Y-102206800D01*
X124829515Y-102273839D01*
X124776711Y-102319594D01*
X124725200Y-102330800D01*
X124473200Y-102330800D01*
X124406161Y-102311115D01*
X124360406Y-102258311D01*
X124349200Y-102206800D01*
X124349200Y-101480800D01*
X124201355Y-101480800D01*
X124141827Y-101487201D01*
X124141820Y-101487203D01*
X124007113Y-101537445D01*
X124007106Y-101537449D01*
X123892012Y-101623609D01*
X123892009Y-101623612D01*
X123805849Y-101738706D01*
X123805846Y-101738712D01*
X123800647Y-101752651D01*
X123758774Y-101808583D01*
X123693309Y-101832998D01*
X123625036Y-101818145D01*
X123575632Y-101768738D01*
X123568283Y-101752645D01*
X123566285Y-101747289D01*
X123562996Y-101738469D01*
X123562995Y-101738468D01*
X123562993Y-101738464D01*
X123476747Y-101623255D01*
X123476744Y-101623252D01*
X123361535Y-101537006D01*
X123361528Y-101537002D01*
X123226682Y-101486708D01*
X123226683Y-101486708D01*
X123167083Y-101480301D01*
X123167081Y-101480300D01*
X123167073Y-101480300D01*
X123167065Y-101480300D01*
X122819297Y-101480300D01*
X122752258Y-101460615D01*
X122731616Y-101443981D01*
X122076211Y-100788576D01*
X122056505Y-100762894D01*
X121980524Y-100631290D01*
X121980518Y-100631282D01*
X121868717Y-100519481D01*
X121868709Y-100519475D01*
X121731790Y-100440426D01*
X121731786Y-100440424D01*
X121731784Y-100440423D01*
X121579057Y-100399500D01*
X121579056Y-100399500D01*
X109245170Y-100399500D01*
X109245154Y-100399499D01*
X109237558Y-100399499D01*
X109079443Y-100399499D01*
X109003079Y-100419961D01*
X108926714Y-100440423D01*
X108926709Y-100440426D01*
X108789790Y-100519475D01*
X108789782Y-100519481D01*
X108193026Y-101116237D01*
X108131703Y-101149722D01*
X108078978Y-101149158D01*
X108078948Y-101149349D01*
X108077656Y-101149144D01*
X108076403Y-101149131D01*
X108074136Y-101148586D01*
X107904696Y-101121750D01*
X107877861Y-101117500D01*
X107679139Y-101117500D01*
X107613714Y-101127862D01*
X107482862Y-101148587D01*
X107293870Y-101209993D01*
X107293867Y-101209994D01*
X107116805Y-101300213D01*
X106956033Y-101417021D01*
X106815521Y-101557533D01*
X106698713Y-101718305D01*
X106618985Y-101874780D01*
X106571010Y-101925576D01*
X106503189Y-101942371D01*
X106437054Y-101919833D01*
X106398015Y-101874780D01*
X106361553Y-101803220D01*
X106318287Y-101718306D01*
X106201481Y-101557536D01*
X106060964Y-101417019D01*
X105900194Y-101300213D01*
X105723132Y-101209994D01*
X105723129Y-101209993D01*
X105534137Y-101148587D01*
X105435998Y-101133043D01*
X105337861Y-101117500D01*
X105139139Y-101117500D01*
X105073714Y-101127862D01*
X104942862Y-101148587D01*
X104753870Y-101209993D01*
X104753867Y-101209994D01*
X104576805Y-101300213D01*
X104416033Y-101417021D01*
X104275521Y-101557533D01*
X104158713Y-101718305D01*
X104078985Y-101874780D01*
X104031010Y-101925576D01*
X103963189Y-101942371D01*
X103897054Y-101919833D01*
X103858015Y-101874780D01*
X103821553Y-101803220D01*
X103778287Y-101718306D01*
X103661481Y-101557536D01*
X103520964Y-101417019D01*
X103360194Y-101300213D01*
X103183132Y-101209994D01*
X103183129Y-101209993D01*
X102994137Y-101148587D01*
X102895998Y-101133043D01*
X102797861Y-101117500D01*
X102599139Y-101117500D01*
X102533714Y-101127862D01*
X102402862Y-101148587D01*
X102213870Y-101209993D01*
X102213867Y-101209994D01*
X102036805Y-101300213D01*
X101876033Y-101417021D01*
X101735521Y-101557533D01*
X101618713Y-101718305D01*
X101528494Y-101895367D01*
X101528493Y-101895370D01*
X101467087Y-102084362D01*
X101436000Y-102280639D01*
X100000500Y-102280639D01*
X100000500Y-100124500D01*
X100020185Y-100057461D01*
X100072989Y-100011706D01*
X100124500Y-100000500D01*
X142875500Y-100000500D01*
X142942539Y-100020185D01*
G37*
%TD.AperFunction*%
%TD*%
M02*
