M48
; DRILL file {KiCad 9.0.7} date 2026-09-25T08:31:45+0200
; FORMAT={-:-/ absolute / metric / decimal}
; #@! TF.CreationDate,2026-09-25T08:31:45+02:00
; #@! TF.GenerationSoftware,Kicad,Pcbnew,9.0.7
; #@! TF.FileFunction,MixedPlating,1,2
FMAT,2
METRIC
; #@! TA.AperFunction,Plated,PTH,ViaDrill
T1C0.300
; #@! TA.AperFunction,Plated,PTH,ComponentDrill
T2C0.889
%
G90
G05
T1
X108.0Y-106.0
X108.0Y-114.5
X118.5Y-105.0
X122.769Y-104.462
X122.769Y-107.962
X122.769Y-111.482
X122.769Y-115.0
X122.769Y-118.5
X123.5Y-101.0
X126.936Y-104.561
X126.994Y-107.986
X126.994Y-111.535
X126.994Y-114.985
X126.994Y-118.725
X131.22Y-104.532
X131.22Y-107.982
X131.22Y-111.511
X131.22Y-115.011
X131.22Y-118.511
X135.445Y-104.506
X135.445Y-108.135
X135.445Y-111.286
X135.445Y-114.786
X135.445Y-118.676
X139.67Y-104.561
X139.67Y-108.061
X139.67Y-111.383
X139.67Y-114.93
X139.67Y-118.561
T2
X102.698Y-102.38
X102.698Y-117.62
X105.239Y-102.38
X105.239Y-117.62
X107.778Y-102.38
X107.778Y-117.62
X110.319Y-102.38
X110.319Y-117.62
X112.858Y-102.38
X112.858Y-117.62
X115.398Y-102.38
X115.398Y-117.62
X117.938Y-102.38
X117.938Y-117.62
M30
