%TF.GenerationSoftware,KiCad,Pcbnew,9.0.7*%
%TF.CreationDate,2026-09-25T08:31:41+02:00*%
%TF.ProjectId,xiao led module,7869616f-206c-4656-9420-6d6f64756c65,rev?*%
%TF.SameCoordinates,Original*%
%TF.FileFunction,Paste,Bot*%
%TF.FilePolarity,Positive*%
%FSLAX46Y46*%
G04 Gerber Fmt 4.6, Leading zero omitted, Abs format (unit mm)*
G04 Created by KiCad (PCBNEW 9.0.7) date 2026-09-25 08:31:41*
%MOMM*%
%LPD*%
G01*
G04 APERTURE LIST*
%ADD10R,0.700000X0.700000*%
G04 APERTURE END LIST*
D10*
%TO.C,D50*%
X141500000Y-102330800D03*
X141500000Y-103430800D03*
X139670000Y-103430800D03*
X139670000Y-102330800D03*
%TD*%
%TO.C,D49*%
X141500000Y-105780800D03*
X141500000Y-106880800D03*
X139670000Y-106880800D03*
X139670000Y-105780800D03*
%TD*%
%TO.C,D42*%
X137274800Y-112680800D03*
X137274800Y-113780800D03*
X135444800Y-113780800D03*
X135444800Y-112680800D03*
%TD*%
%TO.C,D47*%
X141500000Y-112680800D03*
X141500000Y-113780800D03*
X139670000Y-113780800D03*
X139670000Y-112680800D03*
%TD*%
%TO.C,D39*%
X133049600Y-105780800D03*
X133049600Y-106880800D03*
X131219600Y-106880800D03*
X131219600Y-105780800D03*
%TD*%
%TO.C,D46*%
X141500000Y-116130800D03*
X141500000Y-117230800D03*
X139670000Y-117230800D03*
X139670000Y-116130800D03*
%TD*%
%TO.C,D48*%
X141500000Y-109230800D03*
X141500000Y-110330800D03*
X139670000Y-110330800D03*
X139670000Y-109230800D03*
%TD*%
%TO.C,D35*%
X128824400Y-102330800D03*
X128824400Y-103430800D03*
X126994400Y-103430800D03*
X126994400Y-102330800D03*
%TD*%
%TO.C,D44*%
X137274800Y-105780800D03*
X137274800Y-106880800D03*
X135444800Y-106880800D03*
X135444800Y-105780800D03*
%TD*%
%TO.C,D40*%
X133049600Y-102330800D03*
X133049600Y-103430800D03*
X131219600Y-103430800D03*
X131219600Y-102330800D03*
%TD*%
%TO.C,D28*%
X124599200Y-109230800D03*
X124599200Y-110330800D03*
X122769200Y-110330800D03*
X122769200Y-109230800D03*
%TD*%
%TO.C,D32*%
X128824400Y-112680800D03*
X128824400Y-113780800D03*
X126994400Y-113780800D03*
X126994400Y-112680800D03*
%TD*%
%TO.C,D31*%
X128824400Y-116130800D03*
X128824400Y-117230800D03*
X126994400Y-117230800D03*
X126994400Y-116130800D03*
%TD*%
%TO.C,D37*%
X133049600Y-112680800D03*
X133049600Y-113780800D03*
X131219600Y-113780800D03*
X131219600Y-112680800D03*
%TD*%
%TO.C,D26*%
X124599200Y-116130800D03*
X124599200Y-117230800D03*
X122769200Y-117230800D03*
X122769200Y-116130800D03*
%TD*%
%TO.C,D38*%
X133049600Y-109230800D03*
X133049600Y-110330800D03*
X131219600Y-110330800D03*
X131219600Y-109230800D03*
%TD*%
%TO.C,D27*%
X124599200Y-112680800D03*
X124599200Y-113780800D03*
X122769200Y-113780800D03*
X122769200Y-112680800D03*
%TD*%
%TO.C,D45*%
X137274800Y-102330800D03*
X137274800Y-103430800D03*
X135444800Y-103430800D03*
X135444800Y-102330800D03*
%TD*%
%TO.C,D30*%
X124599200Y-102330800D03*
X124599200Y-103430800D03*
X122769200Y-103430800D03*
X122769200Y-102330800D03*
%TD*%
%TO.C,D43*%
X137274800Y-109230800D03*
X137274800Y-110330800D03*
X135444800Y-110330800D03*
X135444800Y-109230800D03*
%TD*%
%TO.C,D36*%
X133049600Y-116130800D03*
X133049600Y-117230800D03*
X131219600Y-117230800D03*
X131219600Y-116130800D03*
%TD*%
%TO.C,D33*%
X128824400Y-109230800D03*
X128824400Y-110330800D03*
X126994400Y-110330800D03*
X126994400Y-109230800D03*
%TD*%
%TO.C,D29*%
X124599200Y-105780800D03*
X124599200Y-106880800D03*
X122769200Y-106880800D03*
X122769200Y-105780800D03*
%TD*%
%TO.C,D34*%
X128824400Y-105780800D03*
X128824400Y-106880800D03*
X126994400Y-106880800D03*
X126994400Y-105780800D03*
%TD*%
%TO.C,D41*%
X137274800Y-116130800D03*
X137274800Y-117230800D03*
X135444800Y-117230800D03*
X135444800Y-116130800D03*
%TD*%
M02*
