%TF.GenerationSoftware,KiCad,Pcbnew,9.0.7*%
%TF.CreationDate,2026-09-25T08:31:41+02:00*%
%TF.ProjectId,xiao led module,7869616f-206c-4656-9420-6d6f64756c65,rev?*%
%TF.SameCoordinates,Original*%
%TF.FileFunction,Legend,Bot*%
%TF.FilePolarity,Positive*%
%FSLAX46Y46*%
G04 Gerber Fmt 4.6, Leading zero omitted, Abs format (unit mm)*
G04 Created by KiCad (PCBNEW 9.0.7) date 2026-09-25 08:31:41*
%MOMM*%
%LPD*%
G01*
G04 APERTURE LIST*
%ADD10C,0.101600*%
%ADD11C,0.127000*%
%ADD12C,0.200000*%
%ADD13C,0.100000*%
%ADD14C,0.504000*%
G04 APERTURE END LIST*
D10*
X111077309Y-99378479D02*
X111077309Y-99892526D01*
X111077309Y-99892526D02*
X111047071Y-99953002D01*
X111047071Y-99953002D02*
X111016833Y-99983241D01*
X111016833Y-99983241D02*
X110956357Y-100013479D01*
X110956357Y-100013479D02*
X110835404Y-100013479D01*
X110835404Y-100013479D02*
X110774928Y-99983241D01*
X110774928Y-99983241D02*
X110744690Y-99953002D01*
X110744690Y-99953002D02*
X110714452Y-99892526D01*
X110714452Y-99892526D02*
X110714452Y-99378479D01*
X110079452Y-100013479D02*
X110442309Y-100013479D01*
X110260881Y-100013479D02*
X110260881Y-99378479D01*
X110260881Y-99378479D02*
X110321357Y-99469193D01*
X110321357Y-99469193D02*
X110381833Y-99529669D01*
X110381833Y-99529669D02*
X110442309Y-99559907D01*
D11*
%TO.C,D50*%
X139485000Y-102780800D02*
X139485000Y-102980800D01*
X139485000Y-103980800D02*
X141685000Y-103980800D01*
X141685000Y-101780800D02*
X139485000Y-101780800D01*
X141685000Y-102780800D02*
X141685000Y-102980800D01*
D12*
X142285200Y-102853800D02*
G75*
G02*
X142085200Y-102853800I-100000J0D01*
G01*
X142085200Y-102853800D02*
G75*
G02*
X142285200Y-102853800I100000J0D01*
G01*
D11*
%TO.C,D49*%
X139485000Y-106230800D02*
X139485000Y-106430800D01*
X139485000Y-107430800D02*
X141685000Y-107430800D01*
X141685000Y-105230800D02*
X139485000Y-105230800D01*
X141685000Y-106230800D02*
X141685000Y-106430800D01*
D12*
X142285200Y-106303800D02*
G75*
G02*
X142085200Y-106303800I-100000J0D01*
G01*
X142085200Y-106303800D02*
G75*
G02*
X142285200Y-106303800I100000J0D01*
G01*
D11*
%TO.C,D42*%
X135259800Y-113130800D02*
X135259800Y-113330800D01*
X135259800Y-114330800D02*
X137459800Y-114330800D01*
X137459800Y-112130800D02*
X135259800Y-112130800D01*
X137459800Y-113130800D02*
X137459800Y-113330800D01*
D12*
X138060000Y-113203800D02*
G75*
G02*
X137860000Y-113203800I-100000J0D01*
G01*
X137860000Y-113203800D02*
G75*
G02*
X138060000Y-113203800I100000J0D01*
G01*
D11*
%TO.C,D47*%
X139485000Y-113130800D02*
X139485000Y-113330800D01*
X139485000Y-114330800D02*
X141685000Y-114330800D01*
X141685000Y-112130800D02*
X139485000Y-112130800D01*
X141685000Y-113130800D02*
X141685000Y-113330800D01*
D12*
X142285200Y-113203800D02*
G75*
G02*
X142085200Y-113203800I-100000J0D01*
G01*
X142085200Y-113203800D02*
G75*
G02*
X142285200Y-113203800I100000J0D01*
G01*
D11*
%TO.C,D39*%
X131034600Y-106230800D02*
X131034600Y-106430800D01*
X131034600Y-107430800D02*
X133234600Y-107430800D01*
X133234600Y-105230800D02*
X131034600Y-105230800D01*
X133234600Y-106230800D02*
X133234600Y-106430800D01*
D12*
X133834800Y-106303800D02*
G75*
G02*
X133634800Y-106303800I-100000J0D01*
G01*
X133634800Y-106303800D02*
G75*
G02*
X133834800Y-106303800I100000J0D01*
G01*
D11*
%TO.C,D46*%
X139485000Y-116580800D02*
X139485000Y-116780800D01*
X139485000Y-117780800D02*
X141685000Y-117780800D01*
X141685000Y-115580800D02*
X139485000Y-115580800D01*
X141685000Y-116580800D02*
X141685000Y-116780800D01*
D12*
X142285200Y-116653800D02*
G75*
G02*
X142085200Y-116653800I-100000J0D01*
G01*
X142085200Y-116653800D02*
G75*
G02*
X142285200Y-116653800I100000J0D01*
G01*
D11*
%TO.C,D48*%
X139485000Y-109680800D02*
X139485000Y-109880800D01*
X139485000Y-110880800D02*
X141685000Y-110880800D01*
X141685000Y-108680800D02*
X139485000Y-108680800D01*
X141685000Y-109680800D02*
X141685000Y-109880800D01*
D12*
X142285200Y-109753800D02*
G75*
G02*
X142085200Y-109753800I-100000J0D01*
G01*
X142085200Y-109753800D02*
G75*
G02*
X142285200Y-109753800I100000J0D01*
G01*
D11*
%TO.C,D35*%
X126809400Y-102780800D02*
X126809400Y-102980800D01*
X126809400Y-103980800D02*
X129009400Y-103980800D01*
X129009400Y-101780800D02*
X126809400Y-101780800D01*
X129009400Y-102780800D02*
X129009400Y-102980800D01*
D12*
X129609600Y-102853800D02*
G75*
G02*
X129409600Y-102853800I-100000J0D01*
G01*
X129409600Y-102853800D02*
G75*
G02*
X129609600Y-102853800I100000J0D01*
G01*
D11*
%TO.C,D44*%
X135259800Y-106230800D02*
X135259800Y-106430800D01*
X135259800Y-107430800D02*
X137459800Y-107430800D01*
X137459800Y-105230800D02*
X135259800Y-105230800D01*
X137459800Y-106230800D02*
X137459800Y-106430800D01*
D12*
X138060000Y-106303800D02*
G75*
G02*
X137860000Y-106303800I-100000J0D01*
G01*
X137860000Y-106303800D02*
G75*
G02*
X138060000Y-106303800I100000J0D01*
G01*
D11*
%TO.C,D40*%
X131034600Y-102780800D02*
X131034600Y-102980800D01*
X131034600Y-103980800D02*
X133234600Y-103980800D01*
X133234600Y-101780800D02*
X131034600Y-101780800D01*
X133234600Y-102780800D02*
X133234600Y-102980800D01*
D12*
X133834800Y-102853800D02*
G75*
G02*
X133634800Y-102853800I-100000J0D01*
G01*
X133634800Y-102853800D02*
G75*
G02*
X133834800Y-102853800I100000J0D01*
G01*
D11*
%TO.C,D28*%
X122584200Y-109680800D02*
X122584200Y-109880800D01*
X122584200Y-110880800D02*
X124784200Y-110880800D01*
X124784200Y-108680800D02*
X122584200Y-108680800D01*
X124784200Y-109680800D02*
X124784200Y-109880800D01*
D12*
X125384400Y-109753800D02*
G75*
G02*
X125184400Y-109753800I-100000J0D01*
G01*
X125184400Y-109753800D02*
G75*
G02*
X125384400Y-109753800I100000J0D01*
G01*
D11*
%TO.C,D32*%
X126809400Y-113130800D02*
X126809400Y-113330800D01*
X126809400Y-114330800D02*
X129009400Y-114330800D01*
X129009400Y-112130800D02*
X126809400Y-112130800D01*
X129009400Y-113130800D02*
X129009400Y-113330800D01*
D12*
X129609600Y-113203800D02*
G75*
G02*
X129409600Y-113203800I-100000J0D01*
G01*
X129409600Y-113203800D02*
G75*
G02*
X129609600Y-113203800I100000J0D01*
G01*
D11*
%TO.C,D31*%
X126809400Y-116580800D02*
X126809400Y-116780800D01*
X126809400Y-117780800D02*
X129009400Y-117780800D01*
X129009400Y-115580800D02*
X126809400Y-115580800D01*
X129009400Y-116580800D02*
X129009400Y-116780800D01*
D12*
X129609600Y-116653800D02*
G75*
G02*
X129409600Y-116653800I-100000J0D01*
G01*
X129409600Y-116653800D02*
G75*
G02*
X129609600Y-116653800I100000J0D01*
G01*
D11*
%TO.C,D37*%
X131034600Y-113130800D02*
X131034600Y-113330800D01*
X131034600Y-114330800D02*
X133234600Y-114330800D01*
X133234600Y-112130800D02*
X131034600Y-112130800D01*
X133234600Y-113130800D02*
X133234600Y-113330800D01*
D12*
X133834800Y-113203800D02*
G75*
G02*
X133634800Y-113203800I-100000J0D01*
G01*
X133634800Y-113203800D02*
G75*
G02*
X133834800Y-113203800I100000J0D01*
G01*
D11*
%TO.C,D26*%
X122584200Y-116580800D02*
X122584200Y-116780800D01*
X122584200Y-117780800D02*
X124784200Y-117780800D01*
X124784200Y-115580800D02*
X122584200Y-115580800D01*
X124784200Y-116580800D02*
X124784200Y-116780800D01*
D12*
X125384400Y-116653800D02*
G75*
G02*
X125184400Y-116653800I-100000J0D01*
G01*
X125184400Y-116653800D02*
G75*
G02*
X125384400Y-116653800I100000J0D01*
G01*
D11*
%TO.C,D38*%
X131034600Y-109680800D02*
X131034600Y-109880800D01*
X131034600Y-110880800D02*
X133234600Y-110880800D01*
X133234600Y-108680800D02*
X131034600Y-108680800D01*
X133234600Y-109680800D02*
X133234600Y-109880800D01*
D12*
X133834800Y-109753800D02*
G75*
G02*
X133634800Y-109753800I-100000J0D01*
G01*
X133634800Y-109753800D02*
G75*
G02*
X133834800Y-109753800I100000J0D01*
G01*
D11*
%TO.C,U1*%
X98267500Y-106008728D02*
X98267500Y-114004000D01*
X98767500Y-114504000D02*
X99777500Y-114504000D01*
X99777500Y-105505000D02*
X98767228Y-105508728D01*
D13*
X99777500Y-116985000D02*
X99777500Y-103015000D01*
D11*
X99777500Y-116985000D02*
X99777500Y-103015000D01*
X118827500Y-101110000D02*
X101682500Y-101110000D01*
X118827500Y-118890000D02*
X101682500Y-118890000D01*
X120732500Y-103015000D02*
X120732500Y-116985000D01*
X98267500Y-106008728D02*
G75*
G02*
X98767228Y-105508700I500000J28D01*
G01*
X98767500Y-114504000D02*
G75*
G02*
X98267500Y-114004000I0J500000D01*
G01*
X99777500Y-103015000D02*
G75*
G02*
X101682500Y-101110000I1905000J0D01*
G01*
X101682500Y-118890000D02*
G75*
G02*
X99777500Y-116985000I0J1905000D01*
G01*
X118827500Y-101110000D02*
G75*
G02*
X120732500Y-103015000I-1J-1905001D01*
G01*
X120732500Y-116985000D02*
G75*
G02*
X118827500Y-118890000I-1905001J1D01*
G01*
D14*
X100320500Y-101000000D02*
G75*
G02*
X99816500Y-101000000I-252000J0D01*
G01*
X99816500Y-101000000D02*
G75*
G02*
X100320500Y-101000000I252000J0D01*
G01*
X101200500Y-102143000D02*
G75*
G02*
X100696500Y-102143000I-252000J0D01*
G01*
X100696500Y-102143000D02*
G75*
G02*
X101200500Y-102143000I252000J0D01*
G01*
D11*
%TO.C,D27*%
X122584200Y-113130800D02*
X122584200Y-113330800D01*
X122584200Y-114330800D02*
X124784200Y-114330800D01*
X124784200Y-112130800D02*
X122584200Y-112130800D01*
X124784200Y-113130800D02*
X124784200Y-113330800D01*
D12*
X125384400Y-113203800D02*
G75*
G02*
X125184400Y-113203800I-100000J0D01*
G01*
X125184400Y-113203800D02*
G75*
G02*
X125384400Y-113203800I100000J0D01*
G01*
D11*
%TO.C,D45*%
X135259800Y-102780800D02*
X135259800Y-102980800D01*
X135259800Y-103980800D02*
X137459800Y-103980800D01*
X137459800Y-101780800D02*
X135259800Y-101780800D01*
X137459800Y-102780800D02*
X137459800Y-102980800D01*
D12*
X138060000Y-102853800D02*
G75*
G02*
X137860000Y-102853800I-100000J0D01*
G01*
X137860000Y-102853800D02*
G75*
G02*
X138060000Y-102853800I100000J0D01*
G01*
D11*
%TO.C,D30*%
X122584200Y-102780800D02*
X122584200Y-102980800D01*
X122584200Y-103980800D02*
X124784200Y-103980800D01*
X124784200Y-101780800D02*
X122584200Y-101780800D01*
X124784200Y-102780800D02*
X124784200Y-102980800D01*
D12*
X125384400Y-102853800D02*
G75*
G02*
X125184400Y-102853800I-100000J0D01*
G01*
X125184400Y-102853800D02*
G75*
G02*
X125384400Y-102853800I100000J0D01*
G01*
D11*
%TO.C,D43*%
X135259800Y-109680800D02*
X135259800Y-109880800D01*
X135259800Y-110880800D02*
X137459800Y-110880800D01*
X137459800Y-108680800D02*
X135259800Y-108680800D01*
X137459800Y-109680800D02*
X137459800Y-109880800D01*
D12*
X138060000Y-109753800D02*
G75*
G02*
X137860000Y-109753800I-100000J0D01*
G01*
X137860000Y-109753800D02*
G75*
G02*
X138060000Y-109753800I100000J0D01*
G01*
D11*
%TO.C,D36*%
X131034600Y-116580800D02*
X131034600Y-116780800D01*
X131034600Y-117780800D02*
X133234600Y-117780800D01*
X133234600Y-115580800D02*
X131034600Y-115580800D01*
X133234600Y-116580800D02*
X133234600Y-116780800D01*
D12*
X133834800Y-116653800D02*
G75*
G02*
X133634800Y-116653800I-100000J0D01*
G01*
X133634800Y-116653800D02*
G75*
G02*
X133834800Y-116653800I100000J0D01*
G01*
D11*
%TO.C,D33*%
X126809400Y-109680800D02*
X126809400Y-109880800D01*
X126809400Y-110880800D02*
X129009400Y-110880800D01*
X129009400Y-108680800D02*
X126809400Y-108680800D01*
X129009400Y-109680800D02*
X129009400Y-109880800D01*
D12*
X129609600Y-109753800D02*
G75*
G02*
X129409600Y-109753800I-100000J0D01*
G01*
X129409600Y-109753800D02*
G75*
G02*
X129609600Y-109753800I100000J0D01*
G01*
D11*
%TO.C,D29*%
X122584200Y-106230800D02*
X122584200Y-106430800D01*
X122584200Y-107430800D02*
X124784200Y-107430800D01*
X124784200Y-105230800D02*
X122584200Y-105230800D01*
X124784200Y-106230800D02*
X124784200Y-106430800D01*
D12*
X125384400Y-106303800D02*
G75*
G02*
X125184400Y-106303800I-100000J0D01*
G01*
X125184400Y-106303800D02*
G75*
G02*
X125384400Y-106303800I100000J0D01*
G01*
D11*
%TO.C,D34*%
X126809400Y-106230800D02*
X126809400Y-106430800D01*
X126809400Y-107430800D02*
X129009400Y-107430800D01*
X129009400Y-105230800D02*
X126809400Y-105230800D01*
X129009400Y-106230800D02*
X129009400Y-106430800D01*
D12*
X129609600Y-106303800D02*
G75*
G02*
X129409600Y-106303800I-100000J0D01*
G01*
X129409600Y-106303800D02*
G75*
G02*
X129609600Y-106303800I100000J0D01*
G01*
D11*
%TO.C,D41*%
X135259800Y-116580800D02*
X135259800Y-116780800D01*
X135259800Y-117780800D02*
X137459800Y-117780800D01*
X137459800Y-115580800D02*
X135259800Y-115580800D01*
X137459800Y-116580800D02*
X137459800Y-116780800D01*
D12*
X138060000Y-116653800D02*
G75*
G02*
X137860000Y-116653800I-100000J0D01*
G01*
X137860000Y-116653800D02*
G75*
G02*
X138060000Y-116653800I100000J0D01*
G01*
%TD*%
M02*
