%TF.GenerationSoftware,KiCad,Pcbnew,9.0.7*%
%TF.CreationDate,2026-09-25T08:31:41+02:00*%
%TF.ProjectId,xiao led module,7869616f-206c-4656-9420-6d6f64756c65,rev?*%
%TF.SameCoordinates,Original*%
%TF.FileFunction,Paste,Top*%
%TF.FilePolarity,Positive*%
%FSLAX46Y46*%
G04 Gerber Fmt 4.6, Leading zero omitted, Abs format (unit mm)*
G04 Created by KiCad (PCBNEW 9.0.7) date 2026-09-25 08:31:41*
%MOMM*%
%LPD*%
G01*
G04 APERTURE LIST*
%ADD10R,0.700000X0.700000*%
%ADD11R,4.600000X1.000000*%
%ADD12R,3.400000X1.600000*%
G04 APERTURE END LIST*
D10*
%TO.C,D19*%
X137274800Y-113780800D03*
X137274800Y-112680800D03*
X135444800Y-112680800D03*
X135444800Y-113780800D03*
%TD*%
%TO.C,D8*%
X128824400Y-110330800D03*
X128824400Y-109230800D03*
X126994400Y-109230800D03*
X126994400Y-110330800D03*
%TD*%
%TO.C,D23*%
X141500000Y-110330800D03*
X141500000Y-109230800D03*
X139670000Y-109230800D03*
X139670000Y-110330800D03*
%TD*%
%TO.C,D3*%
X124599200Y-110330800D03*
X124599200Y-109230800D03*
X122769200Y-109230800D03*
X122769200Y-110330800D03*
%TD*%
%TO.C,D6*%
X128824400Y-103430800D03*
X128824400Y-102330800D03*
X126994400Y-102330800D03*
X126994400Y-103430800D03*
%TD*%
%TO.C,D25*%
X141500000Y-117230800D03*
X141500000Y-116130800D03*
X139670000Y-116130800D03*
X139670000Y-117230800D03*
%TD*%
%TO.C,D12*%
X133049600Y-106880800D03*
X133049600Y-105780800D03*
X131219600Y-105780800D03*
X131219600Y-106880800D03*
%TD*%
%TO.C,D18*%
X137274800Y-110330800D03*
X137274800Y-109230800D03*
X135444800Y-109230800D03*
X135444800Y-110330800D03*
%TD*%
%TO.C,D14*%
X133049600Y-113780800D03*
X133049600Y-112680800D03*
X131219600Y-112680800D03*
X131219600Y-113780800D03*
%TD*%
%TO.C,D21*%
X141500000Y-103430800D03*
X141500000Y-102330800D03*
X139670000Y-102330800D03*
X139670000Y-103430800D03*
%TD*%
%TO.C,D9*%
X128824400Y-113780800D03*
X128824400Y-112680800D03*
X126994400Y-112680800D03*
X126994400Y-113780800D03*
%TD*%
%TO.C,D22*%
X141500000Y-106880800D03*
X141500000Y-105780800D03*
X139670000Y-105780800D03*
X139670000Y-106880800D03*
%TD*%
%TO.C,D17*%
X137274800Y-106880800D03*
X137274800Y-105780800D03*
X135444800Y-105780800D03*
X135444800Y-106880800D03*
%TD*%
%TO.C,D4*%
X124599200Y-113780800D03*
X124599200Y-112680800D03*
X122769200Y-112680800D03*
X122769200Y-113780800D03*
%TD*%
%TO.C,D24*%
X141500000Y-113780800D03*
X141500000Y-112680800D03*
X139670000Y-112680800D03*
X139670000Y-113780800D03*
%TD*%
D11*
%TO.C,J2*%
X116270000Y-112990000D03*
X116270000Y-110990000D03*
X116270000Y-108990000D03*
X116270000Y-106990000D03*
D12*
X111070000Y-115390000D03*
X111070000Y-104590000D03*
%TD*%
D10*
%TO.C,D10*%
X128824400Y-117230800D03*
X128824400Y-116130800D03*
X126994400Y-116130800D03*
X126994400Y-117230800D03*
%TD*%
%TO.C,D2*%
X124599200Y-106880800D03*
X124599200Y-105780800D03*
X122769200Y-105780800D03*
X122769200Y-106880800D03*
%TD*%
%TO.C,D11*%
X133049600Y-103430800D03*
X133049600Y-102330800D03*
X131219600Y-102330800D03*
X131219600Y-103430800D03*
%TD*%
%TO.C,D20*%
X137274800Y-117230800D03*
X137274800Y-116130800D03*
X135444800Y-116130800D03*
X135444800Y-117230800D03*
%TD*%
%TO.C,D1*%
X124599200Y-103430800D03*
X124599200Y-102330800D03*
X122769200Y-102330800D03*
X122769200Y-103430800D03*
%TD*%
%TO.C,D13*%
X133049600Y-110330800D03*
X133049600Y-109230800D03*
X131219600Y-109230800D03*
X131219600Y-110330800D03*
%TD*%
%TO.C,D7*%
X128824400Y-106880800D03*
X128824400Y-105780800D03*
X126994400Y-105780800D03*
X126994400Y-106880800D03*
%TD*%
%TO.C,D5*%
X124599200Y-117230800D03*
X124599200Y-116130800D03*
X122769200Y-116130800D03*
X122769200Y-117230800D03*
%TD*%
%TO.C,D16*%
X137274800Y-103430800D03*
X137274800Y-102330800D03*
X135444800Y-102330800D03*
X135444800Y-103430800D03*
%TD*%
%TO.C,D15*%
X133049600Y-117230800D03*
X133049600Y-116130800D03*
X131219600Y-116130800D03*
X131219600Y-117230800D03*
%TD*%
M02*
